<svg class="main-svg" xmlns="http://www.w3.org/2000/svg" xmlns:xlink="http://www.w3.org/1999/xlink" width="1700" height="600" style="" viewBox="0 0 1700 600"><rect x="0" y="0" width="1700" height="600" style="fill: rgb(255, 255, 255); fill-opacity: 1;"/><defs id="defs-47fa2f"><g class="clips"><clipPath id="clip47fa2fxyplot" class="plotclip"><rect width="1620" height="520"/></clipPath><clipPath class="axesclip" id="clip47fa2fx"><rect x="40" y="0" width="1620" height="600"/></clipPath><clipPath class="axesclip" id="clip47fa2fy"><rect x="0" y="40" width="1700" height="520"/></clipPath><clipPath class="axesclip" id="clip47fa2fxy"><rect x="40" y="40" width="1620" height="520"/></clipPath></g><g class="gradients"/></defs><g class="bglayer"/><g class="layer-below"><g class="imagelayer"/><g class="shapelayer"/></g><g class="cartesianlayer"><g class="subplot xy"><g class="layer-subplot"><g class="shapelayer"/><g class="imagelayer"/></g><g class="gridlayer"><g class="x"/><g class="y"><path class="ygrid crisp" transform="translate(0,500.62)" d="M40,0h1620" style="stroke: rgb(238, 238, 238); stroke-opacity: 1; stroke-width: 1px;"/><path class="ygrid crisp" transform="translate(0,441.24)" d="M40,0h1620" style="stroke: rgb(238, 238, 238); stroke-opacity: 1; stroke-width: 1px;"/><path class="ygrid crisp" transform="translate(0,381.86)" d="M40,0h1620" style="stroke: rgb(238, 238, 238); stroke-opacity: 1; stroke-width: 1px;"/><path class="ygrid crisp" transform="translate(0,322.48)" d="M40,0h1620" style="stroke: rgb(238, 238, 238); stroke-opacity: 1; stroke-width: 1px;"/><path class="ygrid crisp" transform="translate(0,263.1)" d="M40,0h1620" style="stroke: rgb(238, 238, 238); stroke-opacity: 1; stroke-width: 1px;"/><path class="ygrid crisp" transform="translate(0,203.72)" d="M40,0h1620" style="stroke: rgb(238, 238, 238); stroke-opacity: 1; stroke-width: 1px;"/><path class="ygrid crisp" transform="translate(0,144.34)" d="M40,0h1620" style="stroke: rgb(238, 238, 238); stroke-opacity: 1; stroke-width: 1px;"/><path class="ygrid crisp" transform="translate(0,84.96000000000001)" d="M40,0h1620" style="stroke: rgb(238, 238, 238); stroke-opacity: 1; stroke-width: 1px;"/></g></g><g class="zerolinelayer"><path class="yzl zl crisp" transform="translate(0,560)" d="M40,0h1620" style="stroke: rgb(68, 68, 68); stroke-opacity: 1; stroke-width: 1px;"/></g><path class="xlines-below"/><path class="ylines-below"/><g class="overlines-below"/><g class="xaxislayer-below"/><g class="yaxislayer-below"/><g class="overaxes-below"/><g class="plot" transform="translate(40, 40)" clip-path="url('#clip47fa2fxyplot')"><g class="violinlayer mlayer"><g class="trace violins" style="opacity: 0;"><path class="violin" d="M134.1,210.67L45.9,210.67Z" style="vector-effect: non-scaling-stroke; stroke-width: 0.5px; stroke: rgb(0, 0, 0); stroke-opacity: 1; fill: rgb(49, 19, 62); fill-opacity: 1;"/><path class="box" d="M78.97,210.67H101.03M78.97,210.67H101.03V210.67H78.97ZM90,210.67V210.67M90,210.67V210.67" style="vector-effect: non-scaling-stroke; stroke-width: 0.5px; stroke: rgb(0, 0, 0); stroke-opacity: 1; fill: rgb(0, 0, 0); fill-opacity: 0.4;"/><path class="mean" d="M78.97,210.67H101.03" style="fill: none; vector-effect: non-scaling-stroke; stroke-width: 0.5px; stroke-dasharray: 1px, 0.5px; stroke: rgb(0, 0, 0); stroke-opacity: 1;"/></g><g class="trace violins" style="opacity: 1;"><path class="violin" d="M271.96,320.13Q272.94,316.59 273.58,314.85C274.24,313.07 275.04,311.32 275.88,309.58C276.73,307.81 277.73,306.06 278.66,304.3C279.59,302.54 280.62,300.8 281.46,299.02C282.28,297.28 283.1,295.53 283.64,293.74C284.16,292.01 284.54,290.23 284.66,288.46C284.78,286.71 284.6,284.93 284.35,283.18C284.1,281.41 283.54,279.66 283.13,277.9C282.71,276.14 282.11,274.4 281.86,272.63C281.61,270.88 281.4,269.09 281.61,267.35C281.83,265.57 282.37,263.77 283.18,262.07C284.06,260.24 285.41,258.49 286.82,256.79C288.33,254.96 290.23,253.25 292.03,251.51C293.88,249.73 295.94,248.01 297.8,246.23C299.61,244.49 301.46,242.76 303.03,240.95C304.51,239.24 305.87,237.49 307,235.68C308.07,233.97 308.93,232.19 309.7,230.4C310.45,228.66 311.02,226.89 311.59,225.12C312.15,223.37 312.66,221.61 313.08,219.84C313.5,218.09 313.93,216.33 314.1,214.56C314.26,212.81 314.37,211.02 314.08,209.28C313.79,207.5 313.19,205.69 312.31,204C311.35,202.16 309.93,200.42 308.41,198.73C306.75,196.89 304.69,195.17 302.65,193.45C300.5,191.64 298.1,189.93 295.81,188.17C293.51,186.41 291.1,184.68 288.88,182.89C286.74,181.16 284.61,179.43 282.73,177.61C280.96,175.9 279.3,174.15 277.89,172.33C276.57,170.62 275.41,168.85 274.47,167.05Q273.57,165.33 272.31,161.78L267.69,161.78Q266.43,165.33 265.53,167.05C264.59,168.85 263.43,170.62 262.11,172.33C260.7,174.15 259.04,175.9 257.27,177.61C255.39,179.43 253.26,181.16 251.12,182.89C248.9,184.68 246.49,186.41 244.19,188.17C241.9,189.93 239.5,191.64 237.35,193.45C235.31,195.17 233.25,196.89 231.59,198.73C230.07,200.42 228.65,202.16 227.69,204C226.81,205.69 226.21,207.5 225.92,209.28C225.63,211.02 225.74,212.81 225.9,214.56C226.07,216.33 226.5,218.09 226.92,219.84C227.34,221.61 227.85,223.37 228.41,225.12C228.98,226.89 229.55,228.66 230.3,230.4C231.07,232.19 231.93,233.97 233,235.68C234.13,237.49 235.49,239.24 236.97,240.95C238.54,242.76 240.39,244.49 242.2,246.23C244.06,248.01 246.12,249.73 247.97,251.51C249.77,253.25 251.67,254.96 253.18,256.79C254.59,258.49 255.94,260.24 256.82,262.07C257.63,263.77 258.17,265.57 258.39,267.35C258.6,269.09 258.39,270.88 258.14,272.63C257.89,274.4 257.29,276.14 256.87,277.9C256.46,279.66 255.9,281.41 255.65,283.18C255.4,284.93 255.22,286.71 255.34,288.46C255.46,290.23 255.84,292.01 256.36,293.74C256.9,295.53 257.72,297.28 258.54,299.02C259.38,300.8 260.41,302.54 261.34,304.3C262.27,306.06 263.27,307.81 264.12,309.58C264.96,311.32 265.76,313.07 266.42,314.85Q267.06,316.59 268.04,320.13Z" style="vector-effect: non-scaling-stroke; stroke-width: 0.5px; stroke: rgb(0, 0, 0); stroke-opacity: 1; fill: rgb(200, 239, 52); fill-opacity: 1;"/><path class="box" d="M258.98,224.16H281.02M258.98,237.66H281.02V208.38H258.98ZM270,237.66V237.66M270,208.38V193.9" style="vector-effect: non-scaling-stroke; stroke-width: 0.5px; stroke: rgb(0, 0, 0); stroke-opacity: 1; fill: rgb(0, 0, 0); fill-opacity: 0.4;"/><path class="mean" d="M258.98,229.38H281.02" style="fill: none; vector-effect: non-scaling-stroke; stroke-width: 0.5px; stroke-dasharray: 1px, 0.5px; stroke: rgb(0, 0, 0); stroke-opacity: 1;"/></g><g class="trace violins" style="opacity: 1;"><path class="violin" d="M450.93,374.05Q451.4,366.05 451.74,362.05C452.09,358.05 452.5,354.04 453,350.05C453.51,346.04 454.09,342.04 454.77,338.05C455.46,334.04 456.23,330.04 457.11,326.05C457.99,322.04 458.97,318.03 460.06,314.04C461.16,310.02 462.37,306.02 463.7,302.04C465.05,298.02 466.52,294.02 468.1,290.04C469.7,286.02 471.45,282.02 473.24,278.04C475.04,274.02 477,270.04 478.87,266.04C480.74,262.04 482.71,258.06 484.45,254.03C486.17,250.05 487.9,246.07 489.27,242.03C490.62,238.07 491.82,234.06 492.63,230.03C493.42,226.06 493.93,222.04 494.1,218.03C494.27,214.04 494.06,210.02 493.63,206.03C493.2,202.02 492.4,198.01 491.52,194.03C490.63,190.01 489.45,186.01 488.29,182.02C487.12,178.01 485.78,174.02 484.51,170.02C483.24,166.02 481.92,162.03 480.69,158.02C479.47,154.03 478.27,150.03 477.15,146.02C476.03,142.03 474.99,138.03 473.97,134.02C472.96,130.02 472.03,126.01 471.06,122.01C470.1,118.01 469.16,114.01 468.18,110.01C467.2,106.01 466.19,102.01 465.16,98.01C464.13,94.01 463.05,90.01 462.01,86.01C460.97,82.01 459.88,78.02 458.9,74.01C457.92,70.02 456.95,66.02 456.11,62.01C455.27,58.02 454.49,54.01 453.84,50C453.19,46.01 452.66,42.01 452.21,38Q451.76,34.01 451.15,26L448.85,26Q448.24,34.01 447.79,38C447.34,42.01 446.81,46.01 446.16,50C445.51,54.01 444.73,58.02 443.89,62.01C443.05,66.02 442.08,70.02 441.1,74.01C440.12,78.02 439.03,82.01 437.99,86.01C436.95,90.01 435.87,94.01 434.84,98.01C433.81,102.01 432.8,106.01 431.82,110.01C430.84,114.01 429.9,118.01 428.94,122.01C427.97,126.01 427.04,130.02 426.03,134.02C425.01,138.03 423.97,142.03 422.85,146.02C421.73,150.03 420.53,154.03 419.31,158.02C418.08,162.03 416.76,166.02 415.49,170.02C414.22,174.02 412.88,178.01 411.71,182.02C410.55,186.01 409.37,190.01 408.48,194.03C407.6,198.01 406.8,202.02 406.37,206.03C405.94,210.02 405.73,214.04 405.9,218.03C406.07,222.04 406.58,226.06 407.37,230.03C408.18,234.06 409.38,238.07 410.73,242.03C412.1,246.07 413.83,250.05 415.55,254.03C417.29,258.06 419.26,262.04 421.13,266.04C423,270.04 424.96,274.02 426.76,278.04C428.55,282.02 430.3,286.02 431.9,290.04C433.48,294.02 434.95,298.02 436.3,302.04C437.63,306.02 438.84,310.02 439.94,314.04C441.03,318.03 442.01,322.04 442.89,326.05C443.77,330.04 444.54,334.04 445.23,338.05C445.91,342.04 446.49,346.04 447,350.05C447.5,354.04 447.91,358.05 448.26,362.05Q448.6,366.05 449.07,374.05Z" style="vector-effect: non-scaling-stroke; stroke-width: 0.5px; stroke: rgb(0, 0, 0); stroke-opacity: 1; fill: rgb(70, 98, 215); fill-opacity: 1;"/><path class="box" d="M438.98,211.84H461.03M438.98,244.32H461.03V164.72H438.98ZM450,244.32V300.27M450,164.72V99.78" style="vector-effect: non-scaling-stroke; stroke-width: 0.5px; stroke: rgb(0, 0, 0); stroke-opacity: 1; fill: rgb(0, 0, 0); fill-opacity: 0.4;"/><path class="mean" d="M438.98,200.94H461.03" style="fill: none; vector-effect: non-scaling-stroke; stroke-width: 0.5px; stroke-dasharray: 1px, 0.5px; stroke: rgb(0, 0, 0); stroke-opacity: 1;"/></g><g class="trace violins" style="opacity: 1;"><path class="violin" d="M630.97,407.29Q631.51,400.09 631.93,396.5C632.35,392.9 632.84,389.3 633.48,385.71C634.12,382.1 634.88,378.5 635.76,374.92C636.65,371.31 637.68,367.71 638.8,364.13C639.93,360.52 641.19,356.92 642.49,353.34C643.8,349.73 645.22,346.14 646.64,342.55C648.07,338.95 649.56,335.35 651.04,331.76C652.53,328.16 654.05,324.57 655.55,320.97C657.05,317.37 658.58,313.78 660.06,310.18C661.54,306.59 663.05,303 664.45,299.39C665.84,295.8 667.24,292.22 668.45,288.6C669.64,285.02 670.79,281.43 671.65,277.81C672.5,274.24 673.21,270.63 673.62,267.02C674.02,263.44 674.17,259.82 674.1,256.23C674.03,252.63 673.64,249.03 673.18,245.44C672.72,241.83 671.99,238.23 671.32,234.64C670.65,231.04 669.85,227.45 669.16,223.85C668.47,220.26 667.81,216.66 667.2,213.06C666.59,209.47 666.09,205.87 665.52,202.27C664.95,198.67 664.47,195.07 663.8,191.48C663.13,187.87 662.41,184.27 661.48,180.69C660.53,177.07 659.42,173.47 658.15,169.9C656.86,166.28 655.34,162.69 653.78,159.11C652.2,155.49 650.42,151.92 648.73,148.32C647.04,144.72 645.26,141.14 643.65,137.53C642.06,133.95 640.48,130.36 639.13,126.74C637.8,123.17 636.6,119.57 635.59,115.95C634.6,112.38 633.79,108.77 633.12,105.16Q632.46,101.58 631.58,94.37L628.42,94.37Q627.54,101.58 626.88,105.16C626.21,108.77 625.4,112.38 624.41,115.95C623.4,119.57 622.2,123.17 620.87,126.74C619.52,130.36 617.94,133.95 616.35,137.53C614.74,141.14 612.96,144.72 611.27,148.32C609.58,151.92 607.8,155.49 606.22,159.11C604.66,162.69 603.14,166.28 601.85,169.9C600.58,173.47 599.47,177.07 598.52,180.69C597.59,184.27 596.87,187.87 596.2,191.48C595.53,195.07 595.05,198.67 594.48,202.27C593.91,205.87 593.41,209.47 592.8,213.06C592.19,216.66 591.53,220.26 590.84,223.85C590.15,227.45 589.35,231.04 588.68,234.64C588.01,238.23 587.28,241.83 586.82,245.44C586.36,249.03 585.97,252.63 585.9,256.23C585.83,259.82 585.98,263.44 586.38,267.02C586.79,270.63 587.5,274.24 588.35,277.81C589.21,281.43 590.36,285.02 591.55,288.6C592.76,292.22 594.16,295.8 595.55,299.39C596.95,303 598.46,306.59 599.94,310.18C601.42,313.78 602.95,317.37 604.45,320.97C605.95,324.57 607.47,328.16 608.96,331.76C610.44,335.35 611.93,338.95 613.36,342.55C614.78,346.14 616.2,349.73 617.51,353.34C618.81,356.92 620.07,360.52 621.2,364.13C622.32,367.71 623.35,371.31 624.24,374.92C625.12,378.5 625.88,382.1 626.52,385.71C627.16,389.3 627.65,392.9 628.07,396.5Q628.49,400.09 629.03,407.29Z" style="vector-effect: non-scaling-stroke; stroke-width: 0.5px; stroke: rgb(0, 0, 0); stroke-opacity: 1; fill: rgb(250, 186, 57); fill-opacity: 1;"/><path class="box" d="M618.98,247.75H641.03M618.98,282.48H641.03V195.82H618.98ZM630,282.48V341.86M630,195.82V159.8" style="vector-effect: non-scaling-stroke; stroke-width: 0.5px; stroke: rgb(0, 0, 0); stroke-opacity: 1; fill: rgb(0, 0, 0); fill-opacity: 0.4;"/><path class="mean" d="M618.98,245.08H641.03" style="fill: none; vector-effect: non-scaling-stroke; stroke-width: 0.5px; stroke-dasharray: 1px, 0.5px; stroke: rgb(0, 0, 0); stroke-opacity: 1;"/></g><g class="trace violins" style="opacity: 1;"><path class="violin" d="M811.48,415.59Q812.27,408.71 812.86,405.29C813.45,401.85 814.16,398.41 815.01,394.99C815.87,391.54 816.88,388.1 817.99,384.68C819.11,381.23 820.4,377.8 821.71,374.38C823.03,370.93 824.48,367.51 825.89,364.08C827.31,360.64 828.79,357.22 830.21,353.78C831.63,350.35 833.04,346.92 834.42,343.48C835.79,340.05 837.14,336.62 838.46,333.18C839.78,329.75 841.07,326.32 842.33,322.88C843.58,319.45 844.84,316.02 845.99,312.57C847.14,309.15 848.27,305.72 849.23,302.27C850.19,298.85 851.07,295.42 851.76,291.97C852.45,288.55 852.98,285.11 853.37,281.67C853.76,278.24 853.96,274.81 854.08,271.37C854.2,267.94 854.17,264.5 854.1,261.07C854.03,257.63 853.87,254.19 853.63,250.76C853.39,247.32 853.11,243.89 852.68,240.46C852.25,237.02 851.75,233.58 851.05,230.16C850.35,226.71 849.49,223.27 848.47,219.86C847.43,216.4 846.19,212.97 844.86,209.56C843.52,206.1 841.97,202.68 840.45,199.26C838.93,195.82 837.29,192.4 835.74,188.96C834.2,185.53 832.63,182.1 831.18,178.65C829.74,175.23 828.37,171.8 827.08,168.35C825.8,164.93 824.6,161.49 823.47,158.05C822.34,154.63 821.29,151.19 820.29,147.75C819.3,144.33 818.36,140.89 817.49,137.45C816.63,134.02 815.82,130.59 815.11,127.15C814.4,123.72 813.76,120.28 813.22,116.84C812.68,113.41 812.23,109.98 811.85,106.54Q811.48,103.11 810.97,96.24L809.03,96.24Q808.52,103.11 808.15,106.54C807.77,109.98 807.32,113.41 806.78,116.84C806.24,120.28 805.6,123.72 804.89,127.15C804.18,130.59 803.37,134.02 802.51,137.45C801.64,140.89 800.7,144.33 799.71,147.75C798.71,151.19 797.66,154.63 796.53,158.05C795.4,161.49 794.2,164.93 792.92,168.35C791.63,171.8 790.26,175.23 788.82,178.65C787.37,182.1 785.8,185.53 784.26,188.96C782.71,192.4 781.07,195.82 779.55,199.26C778.03,202.68 776.48,206.1 775.14,209.56C773.81,212.97 772.57,216.4 771.53,219.86C770.51,223.27 769.65,226.71 768.95,230.16C768.25,233.58 767.75,237.02 767.32,240.46C766.89,243.89 766.61,247.32 766.37,250.76C766.13,254.19 765.97,257.63 765.9,261.07C765.83,264.5 765.8,267.94 765.92,271.37C766.04,274.81 766.24,278.24 766.63,281.67C767.02,285.11 767.55,288.55 768.24,291.97C768.93,295.42 769.81,298.85 770.77,302.27C771.73,305.72 772.86,309.15 774.01,312.57C775.16,316.02 776.42,319.45 777.67,322.88C778.93,326.32 780.22,329.75 781.54,333.18C782.86,336.62 784.21,340.05 785.58,343.48C786.96,346.92 788.37,350.35 789.79,353.78C791.21,357.22 792.69,360.64 794.11,364.08C795.52,367.51 796.97,370.93 798.29,374.38C799.6,377.8 800.89,381.23 802.01,384.68C803.12,388.1 804.13,391.54 804.99,394.99C805.84,398.41 806.55,401.85 807.14,405.29Q807.73,408.71 808.52,415.59Z" style="vector-effect: non-scaling-stroke; stroke-width: 0.5px; stroke: rgb(0, 0, 0); stroke-opacity: 1; fill: rgb(54, 169, 249); fill-opacity: 1;"/><path class="box" d="M798.98,265.79H821.03M798.98,303.7H821.03V220.51H798.98ZM810,303.7V353.3M810,220.51V158.53" style="vector-effect: non-scaling-stroke; stroke-width: 0.5px; stroke: rgb(0, 0, 0); stroke-opacity: 1; fill: rgb(0, 0, 0); fill-opacity: 0.4;"/><path class="mean" d="M798.98,262.76H821.03" style="fill: none; vector-effect: non-scaling-stroke; stroke-width: 0.5px; stroke-dasharray: 1px, 0.5px; stroke: rgb(0, 0, 0); stroke-opacity: 1;"/></g><g class="trace violins" style="opacity: 1;"><path class="violin" d="M990.43,524.37Q990.65,517.34 990.8,513.83C990.95,510.32 991.12,506.81 991.31,503.3C991.5,499.79 991.72,496.28 991.93,492.77C992.14,489.26 992.38,485.75 992.57,482.24C992.76,478.73 992.95,475.21 993.08,471.7C993.21,468.19 993.31,464.68 993.36,461.17C993.41,457.66 993.41,454.15 993.4,450.64C993.39,447.13 993.33,443.61 993.3,440.1C993.28,436.59 993.23,433.08 993.25,429.57C993.27,426.06 993.32,422.55 993.43,419.04C993.55,415.53 993.72,412.02 993.94,408.51C994.16,405 994.44,401.48 994.75,397.97C995.06,394.46 995.42,390.95 995.78,387.44C996.14,383.93 996.52,380.42 996.92,376.91C997.32,373.4 997.71,369.89 998.18,366.38C998.65,362.86 999.12,359.34 999.73,355.84C1000.35,352.32 1001.01,348.8 1001.87,345.31C1002.74,341.78 1003.73,338.26 1004.93,334.78C1006.15,331.24 1007.58,327.72 1009.14,324.24C1010.73,320.7 1012.56,317.2 1014.4,313.71C1016.26,310.18 1018.32,306.7 1020.23,303.18C1022.13,299.68 1024.13,296.2 1025.83,292.65C1027.5,289.17 1029.13,285.67 1030.36,282.11C1031.56,278.64 1032.55,275.12 1033.17,271.58C1033.78,268.1 1034.06,264.56 1034.1,261.05C1034.14,257.54 1033.83,254.01 1033.4,250.51C1032.97,246.99 1032.27,243.48 1031.53,239.98C1030.78,236.46 1029.87,232.95 1028.92,229.45C1027.96,225.93 1026.9,222.42 1025.8,218.92C1024.69,215.4 1023.5,211.88 1022.28,208.38C1021.05,204.86 1019.75,201.36 1018.45,197.85C1017.15,194.34 1015.79,190.83 1014.48,187.32C1013.17,183.81 1011.83,180.31 1010.57,176.79C1009.32,173.28 1008.08,169.77 1006.94,166.25C1005.8,162.75 1004.71,159.24 1003.72,155.72C1002.73,152.22 1001.81,148.71 1000.99,145.19C1000.17,141.69 999.44,138.17 998.8,134.65C998.16,131.15 997.62,127.64 997.14,124.12C996.66,120.62 996.29,117.1 995.94,113.59C995.59,110.08 995.32,106.57 995.05,103.06C994.78,99.55 994.56,96.03 994.31,92.52C994.07,89.01 993.83,85.5 993.58,81.99C993.33,78.48 993.06,74.97 992.8,71.46C992.54,67.95 992.27,64.43 992.03,60.92C991.79,57.41 991.55,53.9 991.35,50.39C991.15,46.88 990.96,43.37 990.81,39.86Q990.66,36.35 990.44,29.33L989.56,29.33Q989.34,36.35 989.19,39.86C989.04,43.37 988.85,46.88 988.65,50.39C988.45,53.9 988.21,57.41 987.97,60.92C987.73,64.43 987.46,67.95 987.2,71.46C986.94,74.97 986.67,78.48 986.42,81.99C986.17,85.5 985.93,89.01 985.69,92.52C985.44,96.03 985.22,99.55 984.95,103.06C984.68,106.57 984.41,110.08 984.06,113.59C983.71,117.1 983.34,120.62 982.86,124.12C982.38,127.64 981.84,131.15 981.2,134.65C980.56,138.17 979.83,141.69 979.01,145.19C978.19,148.71 977.27,152.22 976.28,155.72C975.29,159.24 974.2,162.75 973.06,166.25C971.92,169.77 970.68,173.28 969.43,176.79C968.17,180.31 966.83,183.81 965.52,187.32C964.21,190.83 962.85,194.34 961.55,197.85C960.25,201.36 958.95,204.86 957.72,208.38C956.5,211.88 955.31,215.4 954.2,218.92C953.1,222.42 952.04,225.93 951.08,229.45C950.13,232.95 949.22,236.46 948.47,239.98C947.73,243.48 947.03,246.99 946.6,250.51C946.17,254.01 945.86,257.54 945.9,261.05C945.94,264.56 946.22,268.1 946.83,271.58C947.45,275.12 948.44,278.64 949.64,282.11C950.87,285.67 952.5,289.17 954.17,292.65C955.87,296.2 957.87,299.68 959.77,303.18C961.68,306.7 963.74,310.18 965.6,313.71C967.44,317.2 969.27,320.7 970.86,324.24C972.42,327.72 973.85,331.24 975.07,334.78C976.27,338.26 977.26,341.78 978.13,345.31C978.99,348.8 979.65,352.32 980.27,355.84C980.88,359.34 981.35,362.86 981.82,366.38C982.29,369.89 982.68,373.4 983.08,376.91C983.48,380.42 983.86,383.93 984.22,387.44C984.58,390.95 984.94,394.46 985.25,397.97C985.56,401.48 985.84,405 986.06,408.51C986.28,412.02 986.45,415.53 986.57,419.04C986.68,422.55 986.73,426.06 986.75,429.57C986.77,433.08 986.72,436.59 986.7,440.1C986.67,443.61 986.61,447.13 986.6,450.64C986.59,454.15 986.59,457.66 986.64,461.17C986.69,464.68 986.79,468.19 986.92,471.7C987.05,475.21 987.24,478.73 987.43,482.24C987.62,485.75 987.86,489.26 988.07,492.77C988.28,496.28 988.5,499.79 988.69,503.3C988.88,506.81 989.05,510.32 989.2,513.83Q989.35,517.34 989.57,524.37Z" style="vector-effect: non-scaling-stroke; stroke-width: 0.5px; stroke: rgb(0, 0, 0); stroke-opacity: 1; fill: rgb(246, 106, 25); fill-opacity: 1;"/><path class="box" d="M978.97,261.28H1001.03M978.97,290.97H1001.03V211.9H978.97ZM990,290.97V382.13M990,211.9V145.69" style="vector-effect: non-scaling-stroke; stroke-width: 0.5px; stroke: rgb(0, 0, 0); stroke-opacity: 1; fill: rgb(0, 0, 0); fill-opacity: 0.4;"/><path class="mean" d="M978.97,255.3H1001.03" style="fill: none; vector-effect: non-scaling-stroke; stroke-width: 0.5px; stroke-dasharray: 1px, 0.5px; stroke: rgb(0, 0, 0); stroke-opacity: 1;"/></g><g class="trace violins" style="opacity: 1;"><path class="violin" d="M1170.47,443.44Q1170.72,436.64 1170.91,433.24C1171.1,429.84 1171.31,426.45 1171.59,423.05C1171.87,419.65 1172.19,416.25 1172.57,412.85C1172.95,409.45 1173.37,406.05 1173.86,402.65C1174.35,399.25 1174.89,395.85 1175.49,392.46C1176.1,389.06 1176.75,385.65 1177.49,382.26C1178.23,378.85 1179.04,375.45 1179.95,372.06C1180.86,368.65 1181.87,365.25 1182.95,361.87C1184.04,358.46 1185.25,355.06 1186.48,351.67C1187.72,348.26 1189.06,344.88 1190.35,341.48C1191.64,338.08 1192.98,334.69 1194.2,331.28C1195.42,327.89 1196.61,324.49 1197.68,321.08C1198.74,317.7 1199.7,314.3 1200.59,310.89C1201.48,307.5 1202.24,304.09 1203.01,300.69C1203.78,297.29 1204.48,293.89 1205.23,290.49C1205.98,287.09 1206.74,283.7 1207.51,280.3C1208.28,276.9 1209.11,273.5 1209.86,270.1C1210.61,266.71 1211.41,263.32 1212.03,259.91C1212.65,256.52 1213.22,253.12 1213.57,249.71C1213.91,246.32 1214.13,242.91 1214.1,239.51C1214.07,236.11 1213.83,232.7 1213.4,229.32C1212.96,225.91 1212.28,222.5 1211.48,219.12C1210.67,215.7 1209.64,212.3 1208.54,208.92C1207.43,205.5 1206.14,202.11 1204.82,198.73C1203.49,195.32 1202.05,191.92 1200.6,188.53C1199.14,185.12 1197.6,181.73 1196.08,178.34C1194.55,174.94 1192.98,171.54 1191.46,168.14C1189.94,164.74 1188.41,161.35 1186.95,157.94C1185.5,154.55 1184.07,151.16 1182.75,147.75C1181.44,144.37 1180.2,140.97 1179.08,137.55C1177.97,134.17 1176.96,130.76 1176.08,127.35C1175.21,123.97 1174.45,120.57 1173.8,117.16C1173.16,113.77 1172.65,110.37 1172.21,106.96C1171.78,103.57 1171.46,100.17 1171.19,96.77Q1170.92,93.37 1170.59,86.57L1169.41,86.57Q1169.08,93.37 1168.81,96.77C1168.54,100.17 1168.22,103.57 1167.79,106.96C1167.35,110.37 1166.84,113.77 1166.2,117.16C1165.55,120.57 1164.79,123.97 1163.92,127.35C1163.04,130.76 1162.03,134.17 1160.92,137.55C1159.8,140.97 1158.56,144.37 1157.25,147.75C1155.93,151.16 1154.5,154.55 1153.05,157.94C1151.59,161.35 1150.06,164.74 1148.54,168.14C1147.02,171.54 1145.45,174.94 1143.92,178.34C1142.4,181.73 1140.86,185.12 1139.4,188.53C1137.95,191.92 1136.51,195.32 1135.18,198.73C1133.86,202.11 1132.57,205.5 1131.46,208.92C1130.36,212.3 1129.33,215.7 1128.52,219.12C1127.72,222.5 1127.04,225.91 1126.6,229.32C1126.17,232.7 1125.93,236.11 1125.9,239.51C1125.87,242.91 1126.09,246.32 1126.43,249.71C1126.78,253.12 1127.35,256.52 1127.97,259.91C1128.59,263.32 1129.39,266.71 1130.14,270.1C1130.89,273.5 1131.72,276.9 1132.49,280.3C1133.26,283.7 1134.02,287.09 1134.77,290.49C1135.52,293.89 1136.22,297.29 1136.99,300.69C1137.76,304.09 1138.52,307.5 1139.41,310.89C1140.3,314.3 1141.26,317.7 1142.32,321.08C1143.39,324.49 1144.58,327.89 1145.8,331.28C1147.02,334.69 1148.36,338.08 1149.65,341.48C1150.94,344.88 1152.28,348.26 1153.52,351.67C1154.75,355.06 1155.96,358.46 1157.05,361.87C1158.13,365.25 1159.14,368.65 1160.05,372.06C1160.96,375.45 1161.77,378.85 1162.51,382.26C1163.25,385.65 1163.9,389.06 1164.51,392.46C1165.11,395.85 1165.65,399.25 1166.14,402.65C1166.63,406.05 1167.05,409.45 1167.43,412.85C1167.81,416.25 1168.13,419.65 1168.41,423.05C1168.69,426.45 1168.9,429.84 1169.09,433.24Q1169.28,436.64 1169.53,443.44Z" style="vector-effect: non-scaling-stroke; stroke-width: 0.5px; stroke: rgb(0, 0, 0); stroke-opacity: 1; fill: rgb(26, 228, 182); fill-opacity: 1;"/><path class="box" d="M1158.97,259.19H1181.03M1158.97,305.41H1181.03V213.62H1158.97ZM1170,305.41V382.13M1170,213.62V147.88" style="vector-effect: non-scaling-stroke; stroke-width: 0.5px; stroke: rgb(0, 0, 0); stroke-opacity: 1; fill: rgb(0, 0, 0); fill-opacity: 0.4;"/><path class="mean" d="M1158.97,254.81H1181.03" style="fill: none; vector-effect: non-scaling-stroke; stroke-width: 0.5px; stroke-dasharray: 1px, 0.5px; stroke: rgb(0, 0, 0); stroke-opacity: 1;"/></g><g class="trace violins" style="opacity: 1;"><path class="violin" d="M1350.8,527.41Q1351.2,520.11 1351.48,516.46C1351.76,512.81 1352.1,509.15 1352.48,505.5C1352.86,501.85 1353.31,498.2 1353.77,494.55C1354.23,490.9 1354.74,487.24 1355.22,483.59C1355.7,479.94 1356.19,476.29 1356.63,472.64C1357.07,468.99 1357.48,465.34 1357.84,461.69C1358.2,458.04 1358.49,454.38 1358.77,450.73C1359.05,447.08 1359.27,443.43 1359.53,439.78C1359.79,436.13 1360.02,432.48 1360.33,428.83C1360.64,425.18 1360.98,421.52 1361.4,417.87C1361.82,414.22 1362.3,410.57 1362.85,406.92C1363.4,403.26 1364.02,399.61 1364.69,395.96C1365.36,392.3 1366.08,388.65 1366.87,385.01C1367.66,381.35 1368.49,377.7 1369.43,374.06C1370.38,370.4 1371.38,366.74 1372.53,363.1C1373.69,359.43 1374.97,355.78 1376.34,352.15C1377.73,348.48 1379.29,344.84 1380.82,341.2C1382.36,337.54 1384.04,333.91 1385.55,330.24C1387.04,326.6 1388.6,322.97 1389.82,319.29C1391.02,315.67 1392.13,312.01 1392.84,308.33C1393.54,304.71 1393.98,301.03 1394.1,297.38C1394.22,293.73 1393.97,290.07 1393.56,286.43C1393.15,282.76 1392.4,279.11 1391.65,275.47C1390.9,271.81 1389.92,268.17 1389.04,264.52C1388.16,260.87 1387.21,257.22 1386.35,253.56C1385.5,249.91 1384.69,246.26 1383.91,242.61C1383.13,238.96 1382.43,235.31 1381.68,231.66C1380.93,228.01 1380.21,224.35 1379.39,220.7C1378.57,217.04 1377.71,213.39 1376.76,209.75C1375.8,206.09 1374.75,202.44 1373.66,198.8C1372.56,195.14 1371.38,191.49 1370.2,187.84C1369.02,184.19 1367.78,180.54 1366.6,176.89C1365.42,173.24 1364.24,169.59 1363.14,165.93C1362.04,162.29 1360.97,158.64 1359.99,154.98C1359.01,151.34 1358.09,147.69 1357.26,144.03C1356.43,140.39 1355.67,136.73 1355,133.07C1354.33,129.43 1353.75,125.78 1353.24,122.12C1352.73,118.48 1352.31,114.82 1351.95,111.17C1351.59,107.52 1351.31,103.86 1351.08,100.21Q1350.85,96.56 1350.55,89.26L1349.45,89.26Q1349.15,96.56 1348.92,100.21C1348.69,103.86 1348.41,107.52 1348.05,111.17C1347.69,114.82 1347.27,118.48 1346.76,122.12C1346.25,125.78 1345.67,129.43 1345,133.07C1344.33,136.73 1343.57,140.39 1342.74,144.03C1341.91,147.69 1340.99,151.34 1340.01,154.98C1339.03,158.64 1337.96,162.29 1336.86,165.93C1335.76,169.59 1334.58,173.24 1333.4,176.89C1332.22,180.54 1330.98,184.19 1329.8,187.84C1328.62,191.49 1327.44,195.14 1326.34,198.8C1325.25,202.44 1324.2,206.09 1323.24,209.75C1322.29,213.39 1321.43,217.04 1320.61,220.7C1319.79,224.35 1319.07,228.01 1318.32,231.66C1317.57,235.31 1316.87,238.96 1316.09,242.61C1315.31,246.26 1314.5,249.91 1313.65,253.56C1312.79,257.22 1311.84,260.87 1310.96,264.52C1310.08,268.17 1309.1,271.81 1308.35,275.47C1307.6,279.11 1306.85,282.76 1306.44,286.43C1306.03,290.07 1305.78,293.73 1305.9,297.38C1306.02,301.03 1306.46,304.71 1307.16,308.33C1307.87,312.01 1308.98,315.67 1310.18,319.29C1311.4,322.97 1312.96,326.6 1314.45,330.24C1315.96,333.91 1317.64,337.54 1319.18,341.2C1320.71,344.84 1322.27,348.48 1323.66,352.15C1325.03,355.78 1326.31,359.43 1327.47,363.1C1328.62,366.74 1329.62,370.4 1330.57,374.06C1331.51,377.7 1332.34,381.35 1333.13,385.01C1333.92,388.65 1334.64,392.3 1335.31,395.96C1335.98,399.61 1336.6,403.26 1337.15,406.92C1337.7,410.57 1338.18,414.22 1338.6,417.87C1339.02,421.52 1339.36,425.18 1339.67,428.83C1339.98,432.48 1340.21,436.13 1340.47,439.78C1340.73,443.43 1340.95,447.08 1341.23,450.73C1341.51,454.38 1341.8,458.04 1342.16,461.69C1342.52,465.34 1342.93,468.99 1343.37,472.64C1343.81,476.29 1344.3,479.94 1344.78,483.59C1345.26,487.24 1345.77,490.9 1346.23,494.55C1346.69,498.2 1347.14,501.85 1347.52,505.5C1347.9,509.15 1348.24,512.81 1348.52,516.46Q1348.8,520.11 1349.2,527.41Z" style="vector-effect: non-scaling-stroke; stroke-width: 0.5px; stroke: rgb(0, 0, 0); stroke-opacity: 1; fill: rgb(202, 43, 4); fill-opacity: 1;"/><path class="box" d="M1338.98,293.92H1361.03M1338.98,322.75H1361.03V236.13H1338.98ZM1350,322.75V425.89M1350,236.13V156.05" style="vector-effect: non-scaling-stroke; stroke-width: 0.5px; stroke: rgb(0, 0, 0); stroke-opacity: 1; fill: rgb(0, 0, 0); fill-opacity: 0.4;"/><path class="mean" d="M1338.98,294.23H1361.03" style="fill: none; vector-effect: non-scaling-stroke; stroke-width: 0.5px; stroke-dasharray: 1px, 0.5px; stroke: rgb(0, 0, 0); stroke-opacity: 1;"/></g><g class="trace violins" style="opacity: 1;"><path class="violin" d="M1530.33,569.73Q1530.49,564.24 1530.6,561.5C1530.71,558.76 1530.85,556.01 1530.99,553.27C1531.13,550.53 1531.3,547.78 1531.46,545.04C1531.62,542.3 1531.79,539.55 1531.93,536.81C1532.07,534.07 1532.2,531.32 1532.28,528.58C1532.36,525.84 1532.42,523.09 1532.42,520.35C1532.42,517.61 1532.37,514.86 1532.3,512.12C1532.22,509.38 1532.1,506.63 1531.97,503.89C1531.84,501.15 1531.66,498.4 1531.51,495.66C1531.36,492.92 1531.18,490.17 1531.05,487.43C1530.92,484.69 1530.79,481.94 1530.71,479.2C1530.63,476.46 1530.55,473.71 1530.55,470.97C1530.55,468.23 1530.57,465.48 1530.68,462.74C1530.79,460 1530.93,457.25 1531.2,454.51C1531.47,451.76 1531.8,449.01 1532.29,446.28C1532.78,443.53 1533.39,440.78 1534.14,438.05C1534.9,435.29 1535.81,432.54 1536.85,429.82C1537.9,427.05 1539.14,424.31 1540.42,421.59C1541.72,418.83 1543.17,416.09 1544.61,413.36C1546.06,410.61 1547.61,407.88 1549.1,405.13C1550.59,402.39 1552.1,399.65 1553.54,396.9C1554.97,394.17 1556.37,391.43 1557.72,388.68C1559.06,385.95 1560.35,383.2 1561.61,380.45C1562.86,377.71 1564.08,374.97 1565.25,372.22C1566.41,369.49 1567.56,366.75 1568.58,363.99C1569.59,361.26 1570.58,358.52 1571.37,355.76C1572.15,353.04 1572.84,350.29 1573.3,347.53C1573.75,344.8 1574.03,342.05 1574.1,339.3C1574.17,336.56 1574.02,333.81 1573.75,331.07C1573.48,328.32 1573,325.57 1572.46,322.84C1571.92,320.09 1571.23,317.34 1570.51,314.61C1569.78,311.86 1568.97,309.12 1568.12,306.38C1567.26,303.63 1566.34,300.88 1565.38,298.15C1564.41,295.4 1563.38,292.65 1562.31,289.92C1561.23,287.17 1560.08,284.43 1558.91,281.69C1557.74,278.94 1556.52,276.2 1555.29,273.46C1554.06,270.71 1552.78,267.97 1551.53,265.23C1550.28,262.49 1549.01,259.75 1547.77,257C1546.54,254.26 1545.3,251.52 1544.12,248.77C1542.95,246.03 1541.79,243.29 1540.71,240.54C1539.64,237.81 1538.62,235.07 1537.69,232.31C1536.77,229.58 1535.92,226.84 1535.18,224.08C1534.44,221.35 1533.8,218.6 1533.25,215.85C1532.7,213.12 1532.25,210.37 1531.88,207.62C1531.51,204.88 1531.24,202.14 1531.01,199.39Q1530.78,196.65 1530.49,191.16L1529.51,191.16Q1529.22,196.65 1528.99,199.39C1528.76,202.14 1528.49,204.88 1528.12,207.62C1527.75,210.37 1527.3,213.12 1526.75,215.85C1526.2,218.6 1525.56,221.35 1524.82,224.08C1524.08,226.84 1523.23,229.58 1522.31,232.31C1521.38,235.07 1520.36,237.81 1519.29,240.54C1518.21,243.29 1517.05,246.03 1515.88,248.77C1514.7,251.52 1513.46,254.26 1512.23,257C1510.99,259.75 1509.72,262.49 1508.47,265.23C1507.22,267.97 1505.94,270.71 1504.71,273.46C1503.48,276.2 1502.26,278.94 1501.09,281.69C1499.92,284.43 1498.77,287.17 1497.69,289.92C1496.62,292.65 1495.59,295.4 1494.62,298.15C1493.66,300.88 1492.74,303.63 1491.88,306.38C1491.03,309.12 1490.22,311.86 1489.49,314.61C1488.77,317.34 1488.08,320.09 1487.54,322.84C1487,325.57 1486.52,328.32 1486.25,331.07C1485.98,333.81 1485.83,336.56 1485.9,339.3C1485.97,342.05 1486.25,344.8 1486.7,347.53C1487.16,350.29 1487.85,353.04 1488.63,355.76C1489.42,358.52 1490.41,361.26 1491.42,363.99C1492.44,366.75 1493.59,369.49 1494.75,372.22C1495.92,374.97 1497.14,377.71 1498.39,380.45C1499.65,383.2 1500.94,385.95 1502.28,388.68C1503.63,391.43 1505.03,394.17 1506.46,396.9C1507.9,399.65 1509.41,402.39 1510.9,405.13C1512.39,407.88 1513.94,410.61 1515.39,413.36C1516.83,416.09 1518.28,418.83 1519.58,421.59C1520.86,424.31 1522.1,427.05 1523.15,429.82C1524.19,432.54 1525.1,435.29 1525.86,438.05C1526.61,440.78 1527.22,443.53 1527.71,446.28C1528.2,449.01 1528.53,451.76 1528.8,454.51C1529.07,457.25 1529.21,460 1529.32,462.74C1529.43,465.48 1529.45,468.23 1529.45,470.97C1529.45,473.71 1529.37,476.46 1529.29,479.2C1529.21,481.94 1529.08,484.69 1528.95,487.43C1528.82,490.17 1528.64,492.92 1528.49,495.66C1528.34,498.4 1528.16,501.15 1528.03,503.89C1527.9,506.63 1527.78,509.38 1527.7,512.12C1527.63,514.86 1527.58,517.61 1527.58,520.35C1527.58,523.09 1527.64,525.84 1527.72,528.58C1527.8,531.32 1527.93,534.07 1528.07,536.81C1528.21,539.55 1528.38,542.3 1528.54,545.04C1528.7,547.78 1528.87,550.53 1529.01,553.27C1529.15,556.01 1529.29,558.76 1529.4,561.5Q1529.51,564.24 1529.67,569.73Z" style="vector-effect: non-scaling-stroke; stroke-width: 0.5px; stroke: rgb(0, 0, 0); stroke-opacity: 1; fill: rgb(113, 254, 95); fill-opacity: 1;"/><path class="box" d="M1518.98,341.86H1541.03M1518.98,366.51H1541.03V300.27H1518.98ZM1530,366.51V401.24M1530,300.27V240.89" style="vector-effect: non-scaling-stroke; stroke-width: 0.5px; stroke: rgb(0, 0, 0); stroke-opacity: 1; fill: rgb(0, 0, 0); fill-opacity: 0.4;"/><path class="mean" d="M1518.98,336.25H1541.03" style="fill: none; vector-effect: non-scaling-stroke; stroke-width: 0.5px; stroke-dasharray: 1px, 0.5px; stroke: rgb(0, 0, 0); stroke-opacity: 1;"/></g></g></g><g class="overplot"/><path class="xlines-above crisp" d="M0,0" style="fill: none;"/><path class="ylines-above crisp" d="M0,0" style="fill: none;"/><g class="overlines-above"/><g class="xaxislayer-above"><g class="xtick"><text text-anchor="middle" x="0" y="571.5" transform="translate(130,0)" style="font-family: Arial, Helvetica, sans-serif; font-size: 10.5px; fill: rgb(68, 68, 68); fill-opacity: 1; white-space: pre;">acute_row2_implant</text></g><g class="xtick"><text text-anchor="middle" x="0" y="571.5" transform="translate(310,0)" style="font-family: Arial, Helvetica, sans-serif; font-size: 10.5px; fill: rgb(68, 68, 68); fill-opacity: 1; white-space: pre;">acute_row2_d1</text></g><g class="xtick"><text text-anchor="middle" x="0" y="571.5" transform="translate(490,0)" style="font-family: Arial, Helvetica, sans-serif; font-size: 10.5px; fill: rgb(68, 68, 68); fill-opacity: 1; white-space: pre;">acute_row2_d2</text></g><g class="xtick"><text text-anchor="middle" x="0" y="571.5" transform="translate(670,0)" style="font-family: Arial, Helvetica, sans-serif; font-size: 10.5px; fill: rgb(68, 68, 68); fill-opacity: 1; white-space: pre;">acute_row2_d3</text></g><g class="xtick"><text text-anchor="middle" x="0" y="571.5" transform="translate(850,0)" style="font-family: Arial, Helvetica, sans-serif; font-size: 10.5px; fill: rgb(68, 68, 68); fill-opacity: 1; white-space: pre;">acute_row2_d4</text></g><g class="xtick"><text text-anchor="middle" x="0" y="571.5" transform="translate(1030,0)" style="font-family: Arial, Helvetica, sans-serif; font-size: 10.5px; fill: rgb(68, 68, 68); fill-opacity: 1; white-space: pre;">acute_row2_d5</text></g><g class="xtick"><text text-anchor="middle" x="0" y="571.5" transform="translate(1210,0)" style="font-family: Arial, Helvetica, sans-serif; font-size: 10.5px; fill: rgb(68, 68, 68); fill-opacity: 1; white-space: pre;">acute_row2_d6</text></g><g class="xtick"><text text-anchor="middle" x="0" y="571.5" transform="translate(1390,0)" style="font-family: Arial, Helvetica, sans-serif; font-size: 10.5px; fill: rgb(68, 68, 68); fill-opacity: 1; white-space: pre;">acute_row2_d7</text></g><g class="xtick"><text text-anchor="middle" x="0" y="571.5" transform="translate(1570,0)" style="font-family: Arial, Helvetica, sans-serif; font-size: 10.5px; fill: rgb(68, 68, 68); fill-opacity: 1; white-space: pre;">acute_row2_d8</text></g></g><g class="yaxislayer-above"><g class="ytick"><text text-anchor="end" x="39" y="3.675" transform="translate(0,560)" style="font-family: Arial, Helvetica, sans-serif; font-size: 10.5px; fill: rgb(68, 68, 68); fill-opacity: 1; white-space: pre;">0</text></g><g class="ytick"><text text-anchor="end" x="39" y="3.675" transform="translate(0,500.62)" style="font-family: Arial, Helvetica, sans-serif; font-size: 10.5px; fill: rgb(68, 68, 68); fill-opacity: 1; white-space: pre;">1</text></g><g class="ytick"><text text-anchor="end" x="39" y="3.675" transform="translate(0,441.24)" style="font-family: Arial, Helvetica, sans-serif; font-size: 10.5px; fill: rgb(68, 68, 68); fill-opacity: 1; white-space: pre;">2</text></g><g class="ytick"><text text-anchor="end" x="39" y="3.675" transform="translate(0,381.86)" style="font-family: Arial, Helvetica, sans-serif; font-size: 10.5px; fill: rgb(68, 68, 68); fill-opacity: 1; white-space: pre;">3</text></g><g class="ytick"><text text-anchor="end" x="39" y="3.675" transform="translate(0,322.48)" style="font-family: Arial, Helvetica, sans-serif; font-size: 10.5px; fill: rgb(68, 68, 68); fill-opacity: 1; white-space: pre;">4</text></g><g class="ytick"><text text-anchor="end" x="39" y="3.675" transform="translate(0,263.1)" style="font-family: Arial, Helvetica, sans-serif; font-size: 10.5px; fill: rgb(68, 68, 68); fill-opacity: 1; white-space: pre;">5</text></g><g class="ytick"><text text-anchor="end" x="39" y="3.675" transform="translate(0,203.72)" style="font-family: Arial, Helvetica, sans-serif; font-size: 10.5px; fill: rgb(68, 68, 68); fill-opacity: 1; white-space: pre;">6</text></g><g class="ytick"><text text-anchor="end" x="39" y="3.675" transform="translate(0,144.34)" style="font-family: Arial, Helvetica, sans-serif; font-size: 10.5px; fill: rgb(68, 68, 68); fill-opacity: 1; white-space: pre;">7</text></g><g class="ytick"><text text-anchor="end" x="39" y="3.675" transform="translate(0,84.96000000000001)" style="font-family: Arial, Helvetica, sans-serif; font-size: 10.5px; fill: rgb(68, 68, 68); fill-opacity: 1; white-space: pre;">8</text></g></g><g class="overaxes-above"/></g></g><g class="polarlayer"/><g class="ternarylayer"/><g class="geolayer"/><g class="funnelarealayer"/><g class="pielayer"/><g class="treemaplayer"/><g class="sunburstlayer"/><g class="glimages"/><defs id="topdefs-47fa2f"><g class="clips"/></defs><g class="layer-above"><g class="imagelayer"/><g class="shapelayer"><path data-index="0" fill-rule="evenodd" d="M85,250.67L175,250.67" clip-path="url('#clip47fa2fy')" style="opacity: 1; stroke: rgb(49, 19, 62); stroke-opacity: 1; fill: rgb(0, 0, 0); fill-opacity: 0; stroke-width: 2px;"/></g></g><g class="infolayer"><g class="g-gtitle"><text class="gtitle" x="850" y="20" text-anchor="middle" dy="0em" style="font-family: Arial, Helvetica, sans-serif; font-size: 14px; fill: rgb(68, 68, 68); opacity: 1; font-weight: normal; white-space: pre;">Log2 Sum Exp - Inflammatory Response (acute_row2)</text></g><g class="g-xtitle"/><g class="g-ytitle"/></g></svg>