<svg class="main-svg" xmlns="http://www.w3.org/2000/svg" xmlns:xlink="http://www.w3.org/1999/xlink" width="1700" height="600" style="" viewBox="0 0 1700 600"><rect x="0" y="0" width="1700" height="600" style="fill: rgb(255, 255, 255); fill-opacity: 1;"/><defs id="defs-c3606b"><g class="clips"><clipPath id="clipc3606bxyplot" class="plotclip"><rect width="1620" height="520"/></clipPath><clipPath class="axesclip" id="clipc3606bx"><rect x="40" y="0" width="1620" height="600"/></clipPath><clipPath class="axesclip" id="clipc3606by"><rect x="0" y="40" width="1700" height="520"/></clipPath><clipPath class="axesclip" id="clipc3606bxy"><rect x="40" y="40" width="1620" height="520"/></clipPath></g><g class="gradients"/></defs><g class="bglayer"/><g class="layer-below"><g class="imagelayer"/><g class="shapelayer"/></g><g class="cartesianlayer"><g class="subplot xy"><g class="layer-subplot"><g class="shapelayer"/><g class="imagelayer"/></g><g class="gridlayer"><g class="x"/><g class="y"><path class="ygrid crisp" transform="translate(0,500.97)" d="M40,0h1620" style="stroke: rgb(238, 238, 238); stroke-opacity: 1; stroke-width: 1px;"/><path class="ygrid crisp" transform="translate(0,441.95)" d="M40,0h1620" style="stroke: rgb(238, 238, 238); stroke-opacity: 1; stroke-width: 1px;"/><path class="ygrid crisp" transform="translate(0,382.92)" d="M40,0h1620" style="stroke: rgb(238, 238, 238); stroke-opacity: 1; stroke-width: 1px;"/><path class="ygrid crisp" transform="translate(0,323.9)" d="M40,0h1620" style="stroke: rgb(238, 238, 238); stroke-opacity: 1; stroke-width: 1px;"/><path class="ygrid crisp" transform="translate(0,264.87)" d="M40,0h1620" style="stroke: rgb(238, 238, 238); stroke-opacity: 1; stroke-width: 1px;"/><path class="ygrid crisp" transform="translate(0,205.85)" d="M40,0h1620" style="stroke: rgb(238, 238, 238); stroke-opacity: 1; stroke-width: 1px;"/><path class="ygrid crisp" transform="translate(0,146.82)" d="M40,0h1620" style="stroke: rgb(238, 238, 238); stroke-opacity: 1; stroke-width: 1px;"/><path class="ygrid crisp" transform="translate(0,87.78999999999999)" d="M40,0h1620" style="stroke: rgb(238, 238, 238); stroke-opacity: 1; stroke-width: 1px;"/></g></g><g class="zerolinelayer"><path class="yzl zl crisp" transform="translate(0,560)" d="M40,0h1620" style="stroke: rgb(68, 68, 68); stroke-opacity: 1; stroke-width: 1px;"/></g><path class="xlines-below"/><path class="ylines-below"/><g class="overlines-below"/><g class="xaxislayer-below"/><g class="yaxislayer-below"/><g class="overaxes-below"/><g class="plot" transform="translate(40, 40)" clip-path="url('#clipc3606bxyplot')"><g class="violinlayer mlayer"><g class="trace violins" style="opacity: 0;"><path class="violin" d="M134.1,331.17L45.9,331.17Z" style="vector-effect: non-scaling-stroke; stroke-width: 0.5px; stroke: rgb(0, 0, 0); stroke-opacity: 1; fill: rgb(49, 19, 62); fill-opacity: 1;"/><path class="box" d="M78.97,331.17H101.03M78.97,331.17H101.03V331.17H78.97ZM90,331.17V331.17M90,331.17V331.17" style="vector-effect: non-scaling-stroke; stroke-width: 0.5px; stroke: rgb(0, 0, 0); stroke-opacity: 1; fill: rgb(0, 0, 0); fill-opacity: 0.4;"/><path class="mean" d="M78.97,331.17H101.03" style="fill: none; vector-effect: non-scaling-stroke; stroke-width: 0.5px; stroke-dasharray: 1px, 0.5px; stroke: rgb(0, 0, 0); stroke-opacity: 1;"/></g><g class="trace violins" style="opacity: 1;"><path class="violin" d="M271.84,373.55Q272.75,370.2 273.38,368.56C274.02,366.88 274.79,365.21 275.66,363.57C276.56,361.88 277.6,360.22 278.7,358.58C279.83,356.89 281.08,355.24 282.36,353.6C283.66,351.92 285.05,350.26 286.45,348.61C287.87,346.94 289.32,345.27 290.8,343.62C292.3,341.95 293.83,340.28 295.38,338.63C296.94,336.96 298.55,335.31 300.14,333.65C301.73,331.99 303.38,330.34 304.92,328.66C306.42,327.01 307.97,325.38 309.26,323.67C310.49,322.05 311.7,320.4 312.52,318.68C313.28,317.07 313.9,315.38 314.1,313.7C314.29,312.06 314.13,310.34 313.74,308.71C313.33,307.01 312.5,305.34 311.63,303.72C310.72,302.01 309.51,300.37 308.34,298.73C307.14,297.05 305.79,295.41 304.53,293.75C303.27,292.09 301.98,290.44 300.78,288.76C299.6,287.11 298.46,285.45 297.38,283.77C296.32,282.12 295.34,280.45 294.35,278.78C293.37,277.12 292.46,275.46 291.48,273.8C290.5,272.13 289.52,270.46 288.48,268.81C287.43,267.14 286.33,265.48 285.22,263.82C284.1,262.15 282.91,260.5 281.78,258.83C280.66,257.17 279.5,255.53 278.46,253.85C277.44,252.2 276.43,250.55 275.57,248.86C274.73,247.22 273.98,245.55 273.35,243.87Q272.74,242.23 271.83,238.88L268.17,238.88Q267.26,242.23 266.65,243.87C266.02,245.55 265.27,247.22 264.43,248.86C263.57,250.55 262.56,252.2 261.54,253.85C260.5,255.53 259.34,257.17 258.22,258.83C257.09,260.5 255.9,262.15 254.78,263.82C253.67,265.48 252.57,267.14 251.52,268.81C250.48,270.46 249.5,272.13 248.52,273.8C247.54,275.46 246.63,277.12 245.65,278.78C244.66,280.45 243.68,282.12 242.62,283.77C241.54,285.45 240.4,287.11 239.22,288.76C238.02,290.44 236.73,292.09 235.47,293.75C234.21,295.41 232.86,297.05 231.66,298.73C230.49,300.37 229.28,302.01 228.37,303.72C227.5,305.34 226.67,307.01 226.26,308.71C225.87,310.34 225.71,312.06 225.9,313.7C226.1,315.38 226.72,317.07 227.48,318.68C228.3,320.4 229.51,322.05 230.74,323.67C232.03,325.38 233.58,327.01 235.08,328.66C236.62,330.34 238.27,331.99 239.86,333.65C241.45,335.31 243.06,336.96 244.62,338.63C246.17,340.28 247.7,341.95 249.2,343.62C250.68,345.27 252.13,346.94 253.55,348.61C254.95,350.26 256.34,351.92 257.64,353.6C258.92,355.24 260.17,356.89 261.3,358.58C262.4,360.22 263.44,361.88 264.34,363.57C265.21,365.21 265.98,366.88 266.62,368.56Q267.25,370.2 268.16,373.55Z" style="vector-effect: non-scaling-stroke; stroke-width: 0.5px; stroke: rgb(0, 0, 0); stroke-opacity: 1; fill: rgb(200, 239, 52); fill-opacity: 1;"/><path class="box" d="M258.98,311.13H281.02M258.98,319.96H281.02V291.78H258.98ZM270,319.96V342.63M270,291.78V269.8" style="vector-effect: non-scaling-stroke; stroke-width: 0.5px; stroke: rgb(0, 0, 0); stroke-opacity: 1; fill: rgb(0, 0, 0); fill-opacity: 0.4;"/><path class="mean" d="M258.98,307.74H281.02" style="fill: none; vector-effect: non-scaling-stroke; stroke-width: 0.5px; stroke-dasharray: 1px, 0.5px; stroke: rgb(0, 0, 0); stroke-opacity: 1;"/></g><g class="trace violins" style="opacity: 1;"><path class="violin" d="M450.94,447.04Q451.44,439 451.82,434.99C452.2,430.97 452.64,426.95 453.2,422.94C453.77,418.92 454.43,414.9 455.21,410.89C455.99,406.86 456.88,402.84 457.9,398.84C458.93,394.81 460.07,390.79 461.35,386.79C462.64,382.75 464.06,378.73 465.62,374.74C467.19,370.7 468.93,366.68 470.75,362.69C472.59,358.65 474.62,354.65 476.62,350.64C478.63,346.61 480.82,342.62 482.79,338.58C484.75,334.58 486.78,330.59 488.41,326.53C490,322.56 491.53,318.54 492.48,314.48C493.41,310.51 494.02,306.45 494.1,302.43C494.18,298.42 493.72,294.36 492.97,290.38C492.2,286.33 490.86,282.31 489.5,278.33C488.12,274.28 486.33,270.3 484.73,266.28C483.13,262.26 481.37,258.27 479.92,254.23C478.49,250.24 477.13,246.23 476.06,242.18C475.01,238.19 474.2,234.15 473.54,230.12C472.89,226.12 472.53,222.09 472.12,218.07C471.71,214.06 471.49,210.03 471.09,206.02C470.68,202 470.29,197.98 469.69,193.97C469.08,189.94 468.33,185.92 467.45,181.92C466.56,177.89 465.46,173.88 464.37,169.87C463.27,165.84 462.03,161.84 460.88,157.82C459.74,153.81 458.53,149.8 457.5,145.77C456.47,141.76 455.51,137.75 454.7,133.72C453.9,129.72 453.22,125.7 452.66,121.67Q452.1,117.66 451.36,109.61L448.64,109.61Q447.9,117.66 447.34,121.67C446.78,125.7 446.1,129.72 445.3,133.72C444.49,137.75 443.53,141.76 442.5,145.77C441.47,149.8 440.26,153.81 439.12,157.82C437.97,161.84 436.73,165.84 435.63,169.87C434.54,173.88 433.44,177.89 432.55,181.92C431.67,185.92 430.92,189.94 430.31,193.97C429.71,197.98 429.32,202 428.91,206.02C428.51,210.03 428.29,214.06 427.88,218.07C427.47,222.09 427.11,226.12 426.46,230.12C425.8,234.15 424.99,238.19 423.94,242.18C422.87,246.23 421.51,250.24 420.08,254.23C418.63,258.27 416.87,262.26 415.27,266.28C413.67,270.3 411.88,274.28 410.5,278.33C409.14,282.31 407.8,286.33 407.03,290.38C406.28,294.36 405.82,298.42 405.9,302.43C405.98,306.45 406.59,310.51 407.52,314.48C408.47,318.54 410,322.56 411.59,326.53C413.22,330.59 415.25,334.58 417.21,338.58C419.18,342.62 421.37,346.61 423.38,350.64C425.38,354.65 427.41,358.65 429.25,362.69C431.07,366.68 432.81,370.7 434.38,374.74C435.94,378.73 437.36,382.75 438.65,386.79C439.93,390.79 441.07,394.81 442.1,398.84C443.12,402.84 444.01,406.86 444.79,410.89C445.57,414.9 446.23,418.92 446.8,422.94C447.36,426.95 447.8,430.97 448.18,434.99Q448.56,439 449.06,447.04Z" style="vector-effect: non-scaling-stroke; stroke-width: 0.5px; stroke: rgb(0, 0, 0); stroke-opacity: 1; fill: rgb(70, 98, 215); fill-opacity: 1;"/><path class="box" d="M438.98,293.37H461.03M438.98,312.93H461.03V237.09H438.98ZM450,312.93V374.6M450,237.09V182.05" style="vector-effect: non-scaling-stroke; stroke-width: 0.5px; stroke: rgb(0, 0, 0); stroke-opacity: 1; fill: rgb(0, 0, 0); fill-opacity: 0.4;"/><path class="mean" d="M438.98,280.51H461.03" style="fill: none; vector-effect: non-scaling-stroke; stroke-width: 0.5px; stroke-dasharray: 1px, 0.5px; stroke: rgb(0, 0, 0); stroke-opacity: 1;"/></g><g class="trace violins" style="opacity: 1;"><path class="violin" d="M631.33,532.36Q632.06,522.59 632.63,517.71C633.2,512.82 633.87,507.92 634.75,503.05C635.63,498.15 636.68,493.25 637.92,488.39C639.17,483.48 640.63,478.59 642.22,473.73C643.83,468.82 645.66,463.94 647.53,459.07C649.41,454.17 651.48,449.29 653.48,444.41C655.48,439.52 657.6,434.65 659.52,429.75C661.43,424.88 663.35,420 664.99,415.09C666.61,410.23 668.11,405.35 669.32,400.44C670.51,395.58 671.47,390.68 672.2,385.78C672.92,380.91 673.37,376.01 673.69,371.12C674.01,366.24 674.08,361.35 674.1,356.46C674.12,351.57 673.99,346.69 673.84,341.8C673.69,336.91 673.46,332.02 673.18,327.14C672.89,322.25 672.58,317.36 672.13,312.48C671.68,307.59 671.17,302.7 670.48,297.83C669.78,292.93 668.96,288.04 667.95,283.17C666.93,278.27 665.72,273.38 664.38,268.51C663.02,263.6 661.45,258.72 659.84,253.85C658.22,248.95 656.42,244.08 654.71,239.19C653,234.3 651.18,229.43 649.57,224.53C647.97,219.66 646.39,214.78 645.05,209.87C643.72,205 642.53,200.11 641.53,195.21C640.54,190.34 639.77,185.45 639.09,180.56C638.42,175.68 637.94,170.79 637.48,165.9C637.02,161.02 636.68,156.13 636.31,151.24C635.94,146.35 635.62,141.47 635.26,136.58C634.9,131.69 634.53,126.81 634.16,121.92C633.79,117.03 633.4,112.15 633.05,107.26C632.7,102.37 632.34,97.49 632.04,92.6C631.74,87.72 631.47,82.84 631.24,77.95Q631.01,73.07 630.68,63.29L629.32,63.29Q628.99,73.07 628.76,77.95C628.53,82.84 628.26,87.72 627.96,92.6C627.66,97.49 627.3,102.37 626.95,107.26C626.6,112.15 626.21,117.03 625.84,121.92C625.47,126.81 625.1,131.69 624.74,136.58C624.38,141.47 624.06,146.35 623.69,151.24C623.32,156.13 622.98,161.02 622.52,165.9C622.06,170.79 621.58,175.68 620.91,180.56C620.23,185.45 619.46,190.34 618.47,195.21C617.47,200.11 616.28,205 614.95,209.87C613.61,214.78 612.03,219.66 610.43,224.53C608.82,229.43 607,234.3 605.29,239.19C603.58,244.08 601.78,248.95 600.16,253.85C598.55,258.72 596.98,263.6 595.62,268.51C594.28,273.38 593.07,278.27 592.05,283.17C591.04,288.04 590.22,292.93 589.52,297.83C588.83,302.7 588.32,307.59 587.87,312.48C587.42,317.36 587.11,322.25 586.82,327.14C586.54,332.02 586.31,336.91 586.16,341.8C586.01,346.69 585.88,351.57 585.9,356.46C585.92,361.35 585.99,366.24 586.31,371.12C586.63,376.01 587.08,380.91 587.8,385.78C588.53,390.68 589.49,395.58 590.68,400.44C591.89,405.35 593.39,410.23 595.01,415.09C596.65,420 598.57,424.88 600.48,429.75C602.4,434.65 604.52,439.52 606.52,444.41C608.52,449.29 610.59,454.17 612.47,459.07C614.34,463.94 616.17,468.82 617.78,473.73C619.37,478.59 620.83,483.48 622.08,488.39C623.32,493.25 624.37,498.15 625.25,503.05C626.13,507.92 626.8,512.82 627.37,517.71Q627.94,522.59 628.67,532.36Z" style="vector-effect: non-scaling-stroke; stroke-width: 0.5px; stroke: rgb(0, 0, 0); stroke-opacity: 1; fill: rgb(250, 186, 57); fill-opacity: 1;"/><path class="box" d="M618.98,335.92H641.03M618.98,390.23H641.03V282.6H618.98ZM630,390.23V442.6M630,282.6V153.05" style="vector-effect: non-scaling-stroke; stroke-width: 0.5px; stroke: rgb(0, 0, 0); stroke-opacity: 1; fill: rgb(0, 0, 0); fill-opacity: 0.4;"/><path class="mean" d="M618.98,331.29H641.03" style="fill: none; vector-effect: non-scaling-stroke; stroke-width: 0.5px; stroke-dasharray: 1px, 0.5px; stroke: rgb(0, 0, 0); stroke-opacity: 1;"/></g><g class="trace violins" style="opacity: 1;"><path class="violin" d="M812.04,513.21Q813.15,505.01 813.98,500.94C814.82,496.83 815.84,492.73 817.07,488.67C818.32,484.55 819.81,480.47 821.42,476.41C823.05,472.29 824.95,468.22 826.81,464.14C828.68,460.04 830.75,455.97 832.62,451.87C834.47,447.79 836.4,443.73 837.98,439.6C839.53,435.55 840.97,431.46 842.05,427.34C843.11,423.29 843.88,419.18 844.41,415.07C844.94,411 845.1,406.89 845.25,402.8C845.4,398.71 845.27,394.62 845.34,390.53C845.41,386.44 845.4,382.35 845.66,378.27C845.92,374.18 846.33,370.08 846.9,366C847.48,361.9 848.31,357.81 849.11,353.73C849.91,349.63 850.92,345.56 851.68,341.46C852.43,337.38 853.24,333.3 853.64,329.2C854.04,325.12 854.26,321.01 854.1,316.93C853.94,312.83 853.42,308.72 852.67,304.66C851.91,300.54 850.76,296.45 849.53,292.39C848.29,288.28 846.76,284.2 845.26,280.13C843.75,276.03 842.09,271.95 840.51,267.86C838.93,263.77 837.32,259.69 835.79,255.59C834.27,251.51 832.78,247.42 831.36,243.32C829.95,239.24 828.6,235.16 827.32,231.06C826.04,226.98 824.83,222.89 823.69,218.79C822.55,214.71 821.47,210.62 820.47,206.52C819.47,202.44 818.53,198.35 817.68,194.25C816.83,190.17 816.05,186.08 815.35,181.99C814.66,177.91 814.05,173.82 813.51,169.72C812.98,165.64 812.52,161.54 812.14,157.45C811.76,153.36 811.46,149.27 811.21,145.18Q810.96,141.09 810.63,132.92L809.37,132.92Q809.04,141.09 808.79,145.18C808.54,149.27 808.24,153.36 807.86,157.45C807.48,161.54 807.02,165.64 806.49,169.72C805.95,173.82 805.34,177.91 804.65,181.99C803.95,186.08 803.17,190.17 802.32,194.25C801.47,198.35 800.53,202.44 799.53,206.52C798.53,210.62 797.45,214.71 796.31,218.79C795.17,222.89 793.96,226.98 792.68,231.06C791.4,235.16 790.05,239.24 788.64,243.32C787.22,247.42 785.73,251.51 784.21,255.59C782.68,259.69 781.07,263.77 779.49,267.86C777.91,271.95 776.25,276.03 774.74,280.13C773.24,284.2 771.71,288.28 770.47,292.39C769.24,296.45 768.09,300.54 767.33,304.66C766.58,308.72 766.06,312.83 765.9,316.93C765.74,321.01 765.96,325.12 766.36,329.2C766.76,333.3 767.57,337.38 768.32,341.46C769.08,345.56 770.09,349.63 770.89,353.73C771.69,357.81 772.52,361.9 773.1,366C773.67,370.08 774.08,374.18 774.34,378.27C774.6,382.35 774.59,386.44 774.66,390.53C774.73,394.62 774.6,398.71 774.75,402.8C774.9,406.89 775.06,411 775.59,415.07C776.12,419.18 776.89,423.29 777.95,427.34C779.03,431.46 780.47,435.55 782.02,439.6C783.6,443.73 785.53,447.79 787.38,451.87C789.25,455.97 791.32,460.04 793.19,464.14C795.05,468.22 796.95,472.29 798.58,476.41C800.19,480.47 801.68,484.55 802.93,488.67C804.16,492.73 805.18,496.83 806.02,500.94Q806.85,505.01 807.96,513.21Z" style="vector-effect: non-scaling-stroke; stroke-width: 0.5px; stroke: rgb(0, 0, 0); stroke-opacity: 1; fill: rgb(54, 169, 249); fill-opacity: 1;"/><path class="box" d="M798.98,330.98H821.03M798.98,406.65H821.03V303.01H798.98ZM810,406.65V438.11M810,303.01V208.02" style="vector-effect: non-scaling-stroke; stroke-width: 0.5px; stroke: rgb(0, 0, 0); stroke-opacity: 1; fill: rgb(0, 0, 0); fill-opacity: 0.4;"/><path class="mean" d="M798.98,342.47H821.03" style="fill: none; vector-effect: non-scaling-stroke; stroke-width: 0.5px; stroke-dasharray: 1px, 0.5px; stroke: rgb(0, 0, 0); stroke-opacity: 1;"/></g><g class="trace violins" style="opacity: 1;"><path class="violin" d="M990.43,600.14Q990.64,591.24 990.79,586.79C990.94,582.34 991.12,577.89 991.32,573.44C991.52,568.99 991.75,564.55 991.99,560.1C992.23,555.65 992.5,551.2 992.76,546.75C993.02,542.3 993.29,537.85 993.57,533.4C993.85,528.95 994.12,524.51 994.44,520.06C994.77,515.61 995.08,511.16 995.52,506.71C995.96,502.26 996.44,497.8 997.1,493.36C997.76,488.9 998.52,484.44 999.49,480.01C1000.47,475.54 1001.62,471.09 1002.96,466.67C1004.32,462.19 1005.9,457.74 1007.61,453.32C1009.34,448.84 1011.3,444.4 1013.28,439.97C1015.27,435.5 1017.47,431.07 1019.53,426.62C1021.58,422.18 1023.76,417.76 1025.61,413.28C1027.43,408.86 1029.23,404.43 1030.56,399.93C1031.86,395.52 1032.94,391.06 1033.53,386.58C1034.11,382.16 1034.27,377.68 1034.1,373.24C1033.93,368.78 1033.25,364.32 1032.49,359.89C1031.72,355.42 1030.57,350.98 1029.51,346.54C1028.45,342.08 1027.2,337.65 1026.12,333.19C1025.05,328.75 1023.98,324.31 1023.05,319.85C1022.12,315.41 1021.32,310.96 1020.55,306.5C1019.78,302.06 1019.14,297.6 1018.45,293.15C1017.76,288.7 1017.12,284.25 1016.39,279.8C1015.66,275.35 1014.92,270.9 1014.09,266.46C1013.26,262 1012.36,257.55 1011.4,253.11C1010.44,248.65 1009.4,244.21 1008.35,239.76C1007.3,235.31 1006.17,230.87 1005.09,226.42C1004.01,221.97 1002.89,217.53 1001.86,213.07C1000.84,208.63 999.82,204.18 998.94,199.72C998.06,195.28 997.24,190.83 996.57,186.37C995.9,181.93 995.35,177.48 994.92,173.03C994.49,168.59 994.21,164.13 993.99,159.68C993.77,155.23 993.68,150.78 993.6,146.33C993.52,141.88 993.52,137.43 993.48,132.98C993.44,128.53 993.42,124.09 993.35,119.64C993.28,115.19 993.18,110.74 993.04,106.29C992.9,101.84 992.72,97.39 992.53,92.94C992.34,88.49 992.11,84.05 991.9,79.6C991.69,75.15 991.47,70.7 991.28,66.25C991.09,61.8 990.92,57.35 990.78,52.9Q990.64,48.45 990.42,39.55L989.58,39.55Q989.36,48.45 989.22,52.9C989.08,57.35 988.91,61.8 988.72,66.25C988.53,70.7 988.31,75.15 988.1,79.6C987.89,84.05 987.66,88.49 987.47,92.94C987.28,97.39 987.1,101.84 986.96,106.29C986.82,110.74 986.72,115.19 986.65,119.64C986.58,124.09 986.56,128.53 986.52,132.98C986.48,137.43 986.48,141.88 986.4,146.33C986.32,150.78 986.23,155.23 986.01,159.68C985.79,164.13 985.51,168.59 985.08,173.03C984.65,177.48 984.1,181.93 983.43,186.37C982.76,190.83 981.94,195.28 981.06,199.72C980.18,204.18 979.16,208.63 978.14,213.07C977.11,217.53 975.99,221.97 974.91,226.42C973.83,230.87 972.7,235.31 971.65,239.76C970.6,244.21 969.56,248.65 968.6,253.11C967.64,257.55 966.74,262 965.91,266.46C965.08,270.9 964.34,275.35 963.61,279.8C962.88,284.25 962.24,288.7 961.55,293.15C960.86,297.6 960.22,302.06 959.45,306.5C958.68,310.96 957.88,315.41 956.95,319.85C956.02,324.31 954.95,328.75 953.88,333.19C952.8,337.65 951.55,342.08 950.49,346.54C949.43,350.98 948.28,355.42 947.51,359.89C946.75,364.32 946.07,368.78 945.9,373.24C945.73,377.68 945.89,382.16 946.47,386.58C947.06,391.06 948.14,395.52 949.44,399.93C950.77,404.43 952.57,408.86 954.39,413.28C956.24,417.76 958.42,422.18 960.47,426.62C962.53,431.07 964.73,435.5 966.72,439.97C968.7,444.4 970.66,448.84 972.39,453.32C974.1,457.74 975.68,462.19 977.04,466.67C978.38,471.09 979.53,475.54 980.51,480.01C981.48,484.44 982.24,488.9 982.9,493.36C983.56,497.8 984.04,502.26 984.48,506.71C984.92,511.16 985.23,515.61 985.56,520.06C985.88,524.51 986.15,528.95 986.43,533.4C986.71,537.85 986.98,542.3 987.24,546.75C987.5,551.2 987.77,555.65 988.01,560.1C988.25,564.55 988.48,568.99 988.68,573.44C988.88,577.89 989.06,582.34 989.21,586.79Q989.36,591.24 989.57,600.14Z" style="vector-effect: non-scaling-stroke; stroke-width: 0.5px; stroke: rgb(0, 0, 0); stroke-opacity: 1; fill: rgb(246, 106, 25); fill-opacity: 1;"/><path class="box" d="M978.97,367.18H1001.03M978.97,392.95H1001.03V293.56H978.97ZM990,392.95V520M990,293.56V223.31" style="vector-effect: non-scaling-stroke; stroke-width: 0.5px; stroke: rgb(0, 0, 0); stroke-opacity: 1; fill: rgb(0, 0, 0); fill-opacity: 0.4;"/><path class="mean" d="M978.97,343.88H1001.03" style="fill: none; vector-effect: non-scaling-stroke; stroke-width: 0.5px; stroke-dasharray: 1px, 0.5px; stroke: rgb(0, 0, 0); stroke-opacity: 1;"/></g><g class="trace violins" style="opacity: 1;"><path class="violin" d="M1170.44,605.73Q1170.65,596.43 1170.81,591.78C1170.96,587.13 1171.15,582.49 1171.37,577.84C1171.59,573.19 1171.85,568.55 1172.14,563.9C1172.43,559.25 1172.76,554.6 1173.13,549.96C1173.5,545.31 1173.9,540.66 1174.38,536.02C1174.86,531.37 1175.38,526.72 1176.01,522.08C1176.65,517.43 1177.34,512.78 1178.19,508.14C1179.04,503.48 1180,498.83 1181.1,494.2C1182.21,489.54 1183.48,484.89 1184.84,480.26C1186.21,475.6 1187.74,470.95 1189.28,466.31C1190.82,461.65 1192.5,457.02 1194.09,452.37C1195.68,447.73 1197.31,443.09 1198.8,438.43C1200.29,433.79 1201.74,429.15 1203.03,424.49C1204.31,419.86 1205.49,415.21 1206.53,410.55C1207.56,405.92 1208.46,401.27 1209.26,396.61C1210.05,391.97 1210.72,387.32 1211.31,382.67C1211.9,378.03 1212.39,373.38 1212.8,368.73C1213.21,364.09 1213.54,359.44 1213.76,354.79C1213.98,350.14 1214.13,345.49 1214.1,340.84C1214.07,336.19 1213.94,331.54 1213.56,326.9C1213.18,322.25 1212.64,317.59 1211.84,312.96C1211.04,308.29 1209.98,303.64 1208.75,299.02C1207.51,294.35 1205.98,289.71 1204.4,285.08C1202.81,280.41 1200.97,275.78 1199.22,271.14C1197.46,266.49 1195.58,261.86 1193.86,257.2C1192.15,252.57 1190.43,247.93 1188.94,243.26C1187.46,238.63 1186.09,233.98 1184.94,229.31C1183.8,224.68 1182.83,220.03 1182.07,215.37C1181.31,210.74 1180.77,206.08 1180.37,201.43C1179.97,196.79 1179.8,192.14 1179.68,187.49C1179.56,182.84 1179.63,178.2 1179.66,173.55C1179.69,168.9 1179.83,164.26 1179.86,159.61C1179.89,154.96 1179.93,150.32 1179.83,145.67C1179.73,141.02 1179.55,136.37 1179.25,131.73C1178.95,127.08 1178.52,122.43 1178.05,117.79C1177.57,113.14 1176.97,108.49 1176.4,103.84C1175.83,99.19 1175.19,94.55 1174.63,89.9C1174.07,85.26 1173.51,80.61 1173.04,75.96C1172.57,71.32 1172.15,66.67 1171.8,62.02Q1171.46,57.38 1170.97,48.08L1169.03,48.08Q1168.54,57.38 1168.2,62.02C1167.85,66.67 1167.43,71.32 1166.96,75.96C1166.49,80.61 1165.93,85.26 1165.37,89.9C1164.81,94.55 1164.17,99.19 1163.6,103.84C1163.03,108.49 1162.43,113.14 1161.95,117.79C1161.48,122.43 1161.05,127.08 1160.75,131.73C1160.45,136.37 1160.27,141.02 1160.17,145.67C1160.07,150.32 1160.11,154.96 1160.14,159.61C1160.17,164.26 1160.31,168.9 1160.34,173.55C1160.37,178.2 1160.44,182.84 1160.32,187.49C1160.2,192.14 1160.03,196.79 1159.63,201.43C1159.23,206.08 1158.69,210.74 1157.93,215.37C1157.17,220.03 1156.2,224.68 1155.06,229.31C1153.91,233.98 1152.54,238.63 1151.06,243.26C1149.57,247.93 1147.85,252.57 1146.14,257.2C1144.42,261.86 1142.54,266.49 1140.78,271.14C1139.03,275.78 1137.19,280.41 1135.6,285.08C1134.02,289.71 1132.49,294.35 1131.25,299.02C1130.02,303.64 1128.96,308.29 1128.16,312.96C1127.36,317.59 1126.82,322.25 1126.44,326.9C1126.06,331.54 1125.93,336.19 1125.9,340.84C1125.87,345.49 1126.02,350.14 1126.24,354.79C1126.46,359.44 1126.79,364.09 1127.2,368.73C1127.61,373.38 1128.1,378.03 1128.69,382.67C1129.28,387.32 1129.95,391.97 1130.74,396.61C1131.54,401.27 1132.44,405.92 1133.47,410.55C1134.51,415.21 1135.69,419.86 1136.97,424.49C1138.26,429.15 1139.71,433.79 1141.2,438.43C1142.69,443.09 1144.32,447.73 1145.91,452.37C1147.5,457.02 1149.18,461.65 1150.72,466.31C1152.26,470.95 1153.79,475.6 1155.16,480.26C1156.52,484.89 1157.79,489.54 1158.9,494.2C1160,498.83 1160.96,503.48 1161.81,508.14C1162.66,512.78 1163.35,517.43 1163.99,522.08C1164.62,526.72 1165.14,531.37 1165.62,536.02C1166.1,540.66 1166.5,545.31 1166.87,549.96C1167.24,554.6 1167.57,559.25 1167.86,563.9C1168.15,568.55 1168.41,573.19 1168.63,577.84C1168.85,582.49 1169.04,587.13 1169.19,591.78Q1169.35,596.43 1169.56,605.73Z" style="vector-effect: non-scaling-stroke; stroke-width: 0.5px; stroke: rgb(0, 0, 0); stroke-opacity: 1; fill: rgb(26, 228, 182); fill-opacity: 1;"/><path class="box" d="M1158.97,348.65H1181.03M1158.97,399.45H1181.03V290.94H1158.97ZM1170,399.45V520M1170,290.94V133.81" style="vector-effect: non-scaling-stroke; stroke-width: 0.5px; stroke: rgb(0, 0, 0); stroke-opacity: 1; fill: rgb(0, 0, 0); fill-opacity: 0.4;"/><path class="mean" d="M1158.97,336.88H1181.03" style="fill: none; vector-effect: non-scaling-stroke; stroke-width: 0.5px; stroke-dasharray: 1px, 0.5px; stroke: rgb(0, 0, 0); stroke-opacity: 1;"/></g><g class="trace violins" style="opacity: 1;"><path class="violin" d="M1351.48,622.19Q1352.2,611.14 1352.72,605.62C1353.24,600.09 1353.86,594.57 1354.58,589.06C1355.3,583.53 1356.13,578.01 1357.04,572.5C1357.95,566.97 1358.98,561.45 1360.03,555.94C1361.09,550.41 1362.21,544.9 1363.37,539.38C1364.53,533.86 1365.74,528.33 1366.99,522.82C1368.24,517.29 1369.53,511.77 1370.89,506.26C1372.25,500.73 1373.68,495.21 1375.16,489.7C1376.64,484.17 1378.21,478.66 1379.76,473.14C1381.31,467.62 1382.95,462.11 1384.44,456.58C1385.92,451.07 1387.43,445.56 1388.68,440.02C1389.92,434.52 1391.07,429 1391.92,423.46C1392.76,417.96 1393.4,412.43 1393.76,406.9C1394.12,401.39 1394.2,395.86 1394.1,390.34C1394,384.82 1393.62,379.29 1393.15,373.77C1392.68,368.24 1391.99,362.72 1391.27,357.21C1390.54,351.68 1389.68,346.17 1388.8,340.65C1387.92,335.13 1386.96,329.61 1385.99,324.09C1385.01,318.57 1383.99,313.05 1382.95,307.53C1381.91,302.01 1380.82,296.49 1379.75,290.97C1378.67,285.45 1377.58,279.93 1376.5,274.41C1375.43,268.89 1374.34,263.37 1373.3,257.85C1372.27,252.33 1371.25,246.81 1370.29,241.29C1369.33,235.77 1368.41,230.25 1367.54,224.73C1366.67,219.21 1365.85,213.69 1365.05,208.17C1364.26,202.65 1363.5,197.13 1362.77,191.61C1362.04,186.09 1361.34,180.57 1360.67,175.05C1360,169.53 1359.35,164.01 1358.74,158.49C1358.13,152.97 1357.54,147.44 1356.99,141.92C1356.44,136.4 1355.92,130.88 1355.43,125.36C1354.94,119.84 1354.49,114.32 1354.07,108.8C1353.65,103.28 1353.26,97.76 1352.91,92.24C1352.56,86.72 1352.24,81.2 1351.96,75.68C1351.68,70.16 1351.45,64.64 1351.24,59.12C1351.03,53.6 1350.86,48.08 1350.72,42.56Q1350.58,37.04 1350.38,26L1349.62,26Q1349.42,37.04 1349.28,42.56C1349.14,48.08 1348.97,53.6 1348.76,59.12C1348.55,64.64 1348.32,70.16 1348.04,75.68C1347.76,81.2 1347.44,86.72 1347.09,92.24C1346.74,97.76 1346.35,103.28 1345.93,108.8C1345.51,114.32 1345.06,119.84 1344.57,125.36C1344.08,130.88 1343.56,136.4 1343.01,141.92C1342.46,147.44 1341.87,152.97 1341.26,158.49C1340.65,164.01 1340,169.53 1339.33,175.05C1338.66,180.57 1337.96,186.09 1337.23,191.61C1336.5,197.13 1335.74,202.65 1334.95,208.17C1334.15,213.69 1333.33,219.21 1332.46,224.73C1331.59,230.25 1330.67,235.77 1329.71,241.29C1328.75,246.81 1327.73,252.33 1326.7,257.85C1325.66,263.37 1324.57,268.89 1323.5,274.41C1322.42,279.93 1321.33,285.45 1320.25,290.97C1319.18,296.49 1318.09,302.01 1317.05,307.53C1316.01,313.05 1314.99,318.57 1314.01,324.09C1313.04,329.61 1312.08,335.13 1311.2,340.65C1310.32,346.17 1309.46,351.68 1308.73,357.21C1308.01,362.72 1307.32,368.24 1306.85,373.77C1306.38,379.29 1306,384.82 1305.9,390.34C1305.8,395.86 1305.88,401.39 1306.24,406.9C1306.6,412.43 1307.24,417.96 1308.08,423.46C1308.93,429 1310.08,434.52 1311.32,440.02C1312.57,445.56 1314.08,451.07 1315.56,456.58C1317.05,462.11 1318.69,467.62 1320.24,473.14C1321.79,478.66 1323.36,484.17 1324.84,489.7C1326.32,495.21 1327.75,500.73 1329.11,506.26C1330.47,511.77 1331.76,517.29 1333.01,522.82C1334.26,528.33 1335.47,533.86 1336.63,539.38C1337.79,544.9 1338.91,550.41 1339.97,555.94C1341.02,561.45 1342.05,566.97 1342.96,572.5C1343.87,578.01 1344.7,583.53 1345.42,589.06C1346.14,594.57 1346.76,600.09 1347.28,605.62Q1347.8,611.14 1348.52,622.19Z" style="vector-effect: non-scaling-stroke; stroke-width: 0.5px; stroke: rgb(0, 0, 0); stroke-opacity: 1; fill: rgb(202, 43, 4); fill-opacity: 1;"/><path class="box" d="M1338.98,375.49H1361.03M1338.98,436.29H1361.03V298.74H1338.98ZM1350,436.29V520M1350,298.74V128.19" style="vector-effect: non-scaling-stroke; stroke-width: 0.5px; stroke: rgb(0, 0, 0); stroke-opacity: 1; fill: rgb(0, 0, 0); fill-opacity: 0.4;"/><path class="mean" d="M1338.98,366H1361.03" style="fill: none; vector-effect: non-scaling-stroke; stroke-width: 0.5px; stroke-dasharray: 1px, 0.5px; stroke: rgb(0, 0, 0); stroke-opacity: 1;"/></g><g class="trace violins" style="opacity: 1;"><path class="violin" d="M1531.51,591.19Q1532.29,583.34 1532.86,579.43C1533.43,575.5 1534.12,571.58 1534.95,567.68C1535.78,563.75 1536.75,559.82 1537.84,555.92C1538.94,551.99 1540.19,548.07 1541.51,544.17C1542.84,540.24 1544.3,536.32 1545.8,532.41C1547.31,528.48 1548.91,524.57 1550.52,520.66C1552.13,516.73 1553.81,512.82 1555.46,508.9C1557.1,504.98 1558.8,501.08 1560.39,497.15C1561.98,493.24 1563.57,489.33 1565.01,485.39C1566.43,481.49 1567.81,477.58 1568.97,473.64C1570.11,469.74 1571.14,465.82 1571.92,461.88C1572.69,457.98 1573.28,454.06 1573.64,450.13C1574,446.22 1574.13,442.29 1574.1,438.37C1574.07,434.45 1573.8,430.53 1573.49,426.62C1573.17,422.7 1572.66,418.78 1572.21,414.86C1571.75,410.94 1571.19,407.02 1570.76,403.1C1570.33,399.19 1569.91,395.27 1569.62,391.35C1569.33,387.43 1569.17,383.51 1569.04,379.59C1568.91,375.67 1568.94,371.76 1568.83,367.84C1568.72,363.92 1568.69,359.99 1568.36,356.08C1568.03,352.15 1567.6,348.22 1566.82,344.33C1566.03,340.38 1564.95,336.45 1563.62,332.57C1562.26,328.61 1560.51,324.7 1558.71,320.82C1556.87,316.86 1554.71,312.97 1552.67,309.06C1550.62,305.14 1548.41,301.25 1546.45,297.31C1544.52,293.42 1542.59,289.51 1540.98,285.55C1539.4,281.67 1537.98,277.75 1536.84,273.8C1535.72,269.91 1534.87,265.98 1534.2,262.04C1533.54,258.14 1533.14,254.21 1532.84,250.29C1532.54,246.38 1532.46,242.45 1532.39,238.53C1532.32,234.61 1532.39,230.7 1532.42,226.78C1532.45,222.86 1532.55,218.94 1532.59,215.02C1532.63,211.1 1532.66,207.18 1532.64,203.26C1532.62,199.34 1532.55,195.43 1532.46,191.51C1532.36,187.59 1532.22,183.67 1532.07,179.75C1531.92,175.83 1531.73,171.92 1531.56,168C1531.39,164.08 1531.21,160.16 1531.06,156.24C1530.91,152.32 1530.77,148.41 1530.65,144.49Q1530.53,140.57 1530.35,132.73L1529.65,132.73Q1529.47,140.57 1529.35,144.49C1529.23,148.41 1529.09,152.32 1528.94,156.24C1528.79,160.16 1528.61,164.08 1528.44,168C1528.27,171.92 1528.08,175.83 1527.93,179.75C1527.78,183.67 1527.64,187.59 1527.54,191.51C1527.45,195.43 1527.38,199.34 1527.36,203.26C1527.34,207.18 1527.37,211.1 1527.41,215.02C1527.45,218.94 1527.55,222.86 1527.58,226.78C1527.61,230.7 1527.68,234.61 1527.61,238.53C1527.54,242.45 1527.46,246.38 1527.16,250.29C1526.86,254.21 1526.46,258.14 1525.8,262.04C1525.13,265.98 1524.28,269.91 1523.16,273.8C1522.02,277.75 1520.6,281.67 1519.02,285.55C1517.41,289.51 1515.48,293.42 1513.55,297.31C1511.59,301.25 1509.38,305.14 1507.33,309.06C1505.29,312.97 1503.13,316.86 1501.29,320.82C1499.49,324.7 1497.74,328.61 1496.38,332.57C1495.05,336.45 1493.97,340.38 1493.18,344.33C1492.4,348.22 1491.97,352.15 1491.64,356.08C1491.31,359.99 1491.28,363.92 1491.17,367.84C1491.06,371.76 1491.09,375.67 1490.96,379.59C1490.83,383.51 1490.67,387.43 1490.38,391.35C1490.09,395.27 1489.67,399.19 1489.24,403.1C1488.81,407.02 1488.25,410.94 1487.79,414.86C1487.34,418.78 1486.83,422.7 1486.51,426.62C1486.2,430.53 1485.93,434.45 1485.9,438.37C1485.87,442.29 1486,446.22 1486.36,450.13C1486.72,454.06 1487.31,457.98 1488.08,461.88C1488.86,465.82 1489.89,469.74 1491.03,473.64C1492.19,477.58 1493.57,481.49 1494.99,485.39C1496.43,489.33 1498.02,493.24 1499.61,497.15C1501.2,501.08 1502.9,504.98 1504.54,508.9C1506.19,512.82 1507.87,516.73 1509.48,520.66C1511.09,524.57 1512.69,528.48 1514.2,532.41C1515.7,536.32 1517.16,540.24 1518.49,544.17C1519.81,548.07 1521.06,551.99 1522.16,555.92C1523.25,559.82 1524.22,563.75 1525.05,567.68C1525.88,571.58 1526.57,575.5 1527.14,579.43Q1527.71,583.34 1528.49,591.19Z" style="vector-effect: non-scaling-stroke; stroke-width: 0.5px; stroke: rgb(0, 0, 0); stroke-opacity: 1; fill: rgb(113, 254, 95); fill-opacity: 1;"/><path class="box" d="M1518.98,418.71H1541.03M1518.98,464.84H1541.03V347.02H1518.98ZM1530,464.84V520M1530,347.02V203.92" style="vector-effect: non-scaling-stroke; stroke-width: 0.5px; stroke: rgb(0, 0, 0); stroke-opacity: 1; fill: rgb(0, 0, 0); fill-opacity: 0.4;"/><path class="mean" d="M1518.98,410.17H1541.03" style="fill: none; vector-effect: non-scaling-stroke; stroke-width: 0.5px; stroke-dasharray: 1px, 0.5px; stroke: rgb(0, 0, 0); stroke-opacity: 1;"/></g></g></g><g class="overplot"/><path class="xlines-above crisp" d="M0,0" style="fill: none;"/><path class="ylines-above crisp" d="M0,0" style="fill: none;"/><g class="overlines-above"/><g class="xaxislayer-above"><g class="xtick"><text text-anchor="middle" x="0" y="571.5" transform="translate(130,0)" style="font-family: Arial, Helvetica, sans-serif; font-size: 10.5px; fill: rgb(68, 68, 68); fill-opacity: 1; white-space: pre;">acute_row2_implant</text></g><g class="xtick"><text text-anchor="middle" x="0" y="571.5" transform="translate(310,0)" style="font-family: Arial, Helvetica, sans-serif; font-size: 10.5px; fill: rgb(68, 68, 68); fill-opacity: 1; white-space: pre;">acute_row2_d1</text></g><g class="xtick"><text text-anchor="middle" x="0" y="571.5" transform="translate(490,0)" style="font-family: Arial, Helvetica, sans-serif; font-size: 10.5px; fill: rgb(68, 68, 68); fill-opacity: 1; white-space: pre;">acute_row2_d2</text></g><g class="xtick"><text text-anchor="middle" x="0" y="571.5" transform="translate(670,0)" style="font-family: Arial, Helvetica, sans-serif; font-size: 10.5px; fill: rgb(68, 68, 68); fill-opacity: 1; white-space: pre;">acute_row2_d3</text></g><g class="xtick"><text text-anchor="middle" x="0" y="571.5" transform="translate(850,0)" style="font-family: Arial, Helvetica, sans-serif; font-size: 10.5px; fill: rgb(68, 68, 68); fill-opacity: 1; white-space: pre;">acute_row2_d4</text></g><g class="xtick"><text text-anchor="middle" x="0" y="571.5" transform="translate(1030,0)" style="font-family: Arial, Helvetica, sans-serif; font-size: 10.5px; fill: rgb(68, 68, 68); fill-opacity: 1; white-space: pre;">acute_row2_d5</text></g><g class="xtick"><text text-anchor="middle" x="0" y="571.5" transform="translate(1210,0)" style="font-family: Arial, Helvetica, sans-serif; font-size: 10.5px; fill: rgb(68, 68, 68); fill-opacity: 1; white-space: pre;">acute_row2_d6</text></g><g class="xtick"><text text-anchor="middle" x="0" y="571.5" transform="translate(1390,0)" style="font-family: Arial, Helvetica, sans-serif; font-size: 10.5px; fill: rgb(68, 68, 68); fill-opacity: 1; white-space: pre;">acute_row2_d7</text></g><g class="xtick"><text text-anchor="middle" x="0" y="571.5" transform="translate(1570,0)" style="font-family: Arial, Helvetica, sans-serif; font-size: 10.5px; fill: rgb(68, 68, 68); fill-opacity: 1; white-space: pre;">acute_row2_d8</text></g></g><g class="yaxislayer-above"><g class="ytick"><text text-anchor="end" x="39" y="3.675" transform="translate(0,560)" style="font-family: Arial, Helvetica, sans-serif; font-size: 10.5px; fill: rgb(68, 68, 68); fill-opacity: 1; white-space: pre;">0</text></g><g class="ytick"><text text-anchor="end" x="39" y="3.675" transform="translate(0,500.97)" style="font-family: Arial, Helvetica, sans-serif; font-size: 10.5px; fill: rgb(68, 68, 68); fill-opacity: 1; white-space: pre;">0.5</text></g><g class="ytick"><text text-anchor="end" x="39" y="3.675" transform="translate(0,441.95)" style="font-family: Arial, Helvetica, sans-serif; font-size: 10.5px; fill: rgb(68, 68, 68); fill-opacity: 1; white-space: pre;">1</text></g><g class="ytick"><text text-anchor="end" x="39" y="3.675" transform="translate(0,382.92)" style="font-family: Arial, Helvetica, sans-serif; font-size: 10.5px; fill: rgb(68, 68, 68); fill-opacity: 1; white-space: pre;">1.5</text></g><g class="ytick"><text text-anchor="end" x="39" y="3.675" transform="translate(0,323.9)" style="font-family: Arial, Helvetica, sans-serif; font-size: 10.5px; fill: rgb(68, 68, 68); fill-opacity: 1; white-space: pre;">2</text></g><g class="ytick"><text text-anchor="end" x="39" y="3.675" transform="translate(0,264.87)" style="font-family: Arial, Helvetica, sans-serif; font-size: 10.5px; fill: rgb(68, 68, 68); fill-opacity: 1; white-space: pre;">2.5</text></g><g class="ytick"><text text-anchor="end" x="39" y="3.675" transform="translate(0,205.85)" style="font-family: Arial, Helvetica, sans-serif; font-size: 10.5px; fill: rgb(68, 68, 68); fill-opacity: 1; white-space: pre;">3</text></g><g class="ytick"><text text-anchor="end" x="39" y="3.675" transform="translate(0,146.82)" style="font-family: Arial, Helvetica, sans-serif; font-size: 10.5px; fill: rgb(68, 68, 68); fill-opacity: 1; white-space: pre;">3.5</text></g><g class="ytick"><text text-anchor="end" x="39" y="3.675" transform="translate(0,87.78999999999999)" style="font-family: Arial, Helvetica, sans-serif; font-size: 10.5px; fill: rgb(68, 68, 68); fill-opacity: 1; white-space: pre;">4</text></g></g><g class="overaxes-above"/></g></g><g class="polarlayer"/><g class="ternarylayer"/><g class="geolayer"/><g class="funnelarealayer"/><g class="pielayer"/><g class="treemaplayer"/><g class="sunburstlayer"/><g class="glimages"/><defs id="topdefs-c3606b"><g class="clips"/></defs><g class="layer-above"><g class="imagelayer"/><g class="shapelayer"><path data-index="0" fill-rule="evenodd" d="M85,371.17L175,371.17" clip-path="url('#clipc3606by')" style="opacity: 1; stroke: rgb(49, 19, 62); stroke-opacity: 1; fill: rgb(0, 0, 0); fill-opacity: 0; stroke-width: 2px;"/></g></g><g class="infolayer"><g class="g-gtitle"><text class="gtitle" x="850" y="20" text-anchor="middle" dy="0em" style="font-family: Arial, Helvetica, sans-serif; font-size: 14px; fill: rgb(68, 68, 68); opacity: 1; font-weight: normal; white-space: pre;">Log Normalized Exp - Ccl4 (acute_row2)</text></g><g class="g-xtitle"/><g class="g-ytitle"/></g></svg>