<svg class="main-svg" xmlns="http://www.w3.org/2000/svg" xmlns:xlink="http://www.w3.org/1999/xlink" width="1700" height="600" style="" viewBox="0 0 1700 600"><rect x="0" y="0" width="1700" height="600" style="fill: rgb(255, 255, 255); fill-opacity: 1;"/><defs id="defs-70ed9d"><g class="clips"><clipPath id="clip70ed9dxyplot" class="plotclip"><rect width="1620" height="520"/></clipPath><clipPath class="axesclip" id="clip70ed9dx"><rect x="40" y="0" width="1620" height="600"/></clipPath><clipPath class="axesclip" id="clip70ed9dy"><rect x="0" y="40" width="1700" height="520"/></clipPath><clipPath class="axesclip" id="clip70ed9dxy"><rect x="40" y="40" width="1620" height="520"/></clipPath></g><g class="gradients"/></defs><g class="bglayer"/><g class="layer-below"><g class="imagelayer"/><g class="shapelayer"/></g><g class="cartesianlayer"><g class="subplot xy"><g class="layer-subplot"><g class="shapelayer"/><g class="imagelayer"/></g><g class="gridlayer"><g class="x"/><g class="y"><path class="ygrid crisp" transform="translate(0,466.02)" d="M40,0h1620" style="stroke: rgb(238, 238, 238); stroke-opacity: 1; stroke-width: 1px;"/><path class="ygrid crisp" transform="translate(0,372.04)" d="M40,0h1620" style="stroke: rgb(238, 238, 238); stroke-opacity: 1; stroke-width: 1px;"/><path class="ygrid crisp" transform="translate(0,278.06)" d="M40,0h1620" style="stroke: rgb(238, 238, 238); stroke-opacity: 1; stroke-width: 1px;"/><path class="ygrid crisp" transform="translate(0,184.08)" d="M40,0h1620" style="stroke: rgb(238, 238, 238); stroke-opacity: 1; stroke-width: 1px;"/><path class="ygrid crisp" transform="translate(0,90.1)" d="M40,0h1620" style="stroke: rgb(238, 238, 238); stroke-opacity: 1; stroke-width: 1px;"/></g></g><g class="zerolinelayer"><path class="yzl zl crisp" transform="translate(0,560)" d="M40,0h1620" style="stroke: rgb(68, 68, 68); stroke-opacity: 1; stroke-width: 1px;"/></g><path class="xlines-below"/><path class="ylines-below"/><g class="overlines-below"/><g class="xaxislayer-below"/><g class="yaxislayer-below"/><g class="overaxes-below"/><g class="plot" transform="translate(40, 40)" clip-path="url('#clip70ed9dxyplot')"><g class="violinlayer mlayer"><g class="trace violins" style="opacity: 0;"><path class="violin" d="M134.1,332.04L45.9,332.04Z" style="vector-effect: non-scaling-stroke; stroke-width: 0.5px; stroke: rgb(0, 0, 0); stroke-opacity: 1; fill: rgb(49, 19, 62); fill-opacity: 1;"/><path class="box" d="M78.97,332.04H101.03M78.97,332.04H101.03V332.04H78.97ZM90,332.04V332.04M90,332.04V332.04" style="vector-effect: non-scaling-stroke; stroke-width: 0.5px; stroke: rgb(0, 0, 0); stroke-opacity: 1; fill: rgb(0, 0, 0); fill-opacity: 0.4;"/><path class="mean" d="M78.97,332.04H101.03" style="fill: none; vector-effect: non-scaling-stroke; stroke-width: 0.5px; stroke-dasharray: 1px, 0.5px; stroke: rgb(0, 0, 0); stroke-opacity: 1;"/></g><g class="trace violins" style="opacity: 1;"><path class="violin" d="M271.5,304.16Q272.3,303.89 272.76,303.77C273.3,303.63 273.92,303.5 274.54,303.37C275.22,303.23 275.98,303.11 276.7,302.98C277.42,302.85 278.19,302.72 278.85,302.58C279.43,302.46 280.06,302.36 280.46,302.19C280.73,302.08 281.08,301.92 281.08,301.79C281.08,301.66 280.76,301.51 280.51,301.4C280.12,301.23 279.49,301.12 278.92,301C278.26,300.86 277.5,300.74 276.79,300.61C276.07,300.48 275.31,300.36 274.62,300.22C273.99,300.09 273.37,299.96 272.82,299.82C272.35,299.7 271.91,299.58 271.54,299.43C271.24,299.31 270.96,299.18 270.75,299.03C270.58,298.91 270.44,298.78 270.33,298.64C270.24,298.52 270.18,298.38 270.13,298.24C270.09,298.11 270.07,297.98 270.05,297.85C270.03,297.72 270.02,297.58 270.01,297.45C270,297.32 270,297.19 270,297.06C270,296.93 270,296.8 270,296.67C270,296.54 270,296.4 270,296.27C270,296.14 270,296.01 270,295.88C270,295.75 270,295.61 270,295.48C270,295.35 270,295.22 270,295.09C270,294.96 270,294.82 270,294.69C270,294.56 270,294.43 270,294.3C270,294.17 270,294.04 270,293.91C270,293.78 270,293.64 270,293.51C270,293.38 270,293.25 270,293.12C270,292.99 270,292.85 270,292.72C270,292.59 270,292.46 270,292.33C270,292.2 270,292.06 270,291.93C270,291.8 270,291.67 270,291.54C270,291.41 270,291.27 270,291.14C270,291.01 270,290.88 270,290.75C270,290.62 270,290.49 270,290.36C270,290.23 270,290.09 270,289.96C270,289.83 270,289.7 270,289.57C270,289.44 270,289.3 270,289.17C270,289.04 270,288.91 270,288.78C270,288.65 270,288.51 270,288.38C270,288.25 270,288.12 270,287.99C270,287.86 270,287.72 270,287.59C270,287.46 270,287.33 270,287.2C270,287.07 270,286.94 270,286.81C270,286.68 270,286.54 270,286.41C270,286.28 270,286.15 270,286.02C270,285.89 270,285.75 270,285.62C270,285.49 270,285.36 270,285.23C270,285.1 270,284.96 270,284.83C270,284.7 270,284.57 270,284.44C270,284.31 270,284.18 270,284.05C270,283.92 270,283.78 270,283.65C270,283.52 270,283.39 270,283.26C270,283.13 270,282.99 270,282.86C270,282.73 270,282.6 270,282.47C270,282.34 270.01,282.2 270.01,282.07C270.01,281.94 270.01,281.81 270.02,281.68C270.03,281.55 270.04,281.41 270.08,281.28C270.12,281.15 270.16,281.01 270.25,280.89C270.35,280.75 270.49,280.62 270.68,280.5C270.94,280.34 271.29,280.22 271.69,280.1C272.25,279.94 272.95,279.83 273.73,279.71C274.77,279.55 276.03,279.43 277.39,279.31C279.09,279.16 281.07,279.04 283.12,278.92C285.5,278.78 288.19,278.65 290.85,278.52C293.69,278.38 296.79,278.26 299.67,278.13C302.44,278 305.39,277.88 307.82,277.73C309.79,277.61 312.11,277.59 313.15,277.34C313.61,277.23 314.12,277.06 314.1,276.95C314.07,276.74 311.81,276.67 310.36,276.55C308.33,276.39 305.61,276.29 303.07,276.16C300.27,276.02 297.16,275.89 294.27,275.76C291.46,275.63 288.55,275.51 285.94,275.37C283.62,275.25 281.35,275.12 279.38,274.97C277.76,274.85 276.22,274.73 274.94,274.58C273.95,274.46 273.05,274.35 272.33,274.19C271.8,274.07 271.34,273.95 270.99,273.79C270.73,273.67 270.52,273.55 270.37,273.4C270.25,273.28 270.19,273.14 270.13,273C270.08,272.87 270.06,272.74 270.04,272.61C270.02,272.48 270.02,272.34 270.01,272.21C270,272.08 270,271.95 270,271.82C270,271.69 270,271.55 270,271.42C270,271.29 270,271.16 270,271.03C270,270.9 270,270.77 270,270.64C270,270.51 270,270.37 270,270.24C270,270.11 270,269.98 270,269.85C270,269.72 270,269.58 270,269.45C270,269.32 270,269.19 270,269.06C270,268.93 270,268.79 270,268.66C270,268.53 270,268.4 270,268.27C270,268.14 270,268 270,267.87C270,267.74 270,267.61 270,267.48C270,267.35 270,267.22 270,267.09C270,266.96 270,266.82 270,266.69C270,266.56 270,266.43 270,266.3C270,266.17 270,266.03 270,265.9C270,265.77 270,265.64 270,265.51C270,265.38 270,265.24 270,265.11C270,264.98 270,264.85 270,264.72C270,264.59 270,264.46 270,264.33C270,264.2 270,264.06 270,263.93C270,263.8 270,263.67 270,263.54C270,263.41 270,263.27 270,263.14C270,263.01 270,262.88 270,262.75C270,262.62 270,262.48 270,262.35C270,262.22 270,262.09 270,261.96C270,261.83 270,261.69 270,261.56C270,261.43 270,261.3 270,261.17C270,261.04 270,260.91 270,260.78C270,260.65 270,260.51 270,260.38C270,260.25 270,260.12 270,259.99C270,259.86 270,259.72 270,259.59C270,259.46 270,259.33 270,259.2C270,259.07 270,258.93 270,258.8C270,258.67 270,258.54 270,258.41C270,258.28 270,258.14 270,258.01C270,257.88 270,257.75 270,257.62C270,257.49 270,257.36 270,257.23C270,257.1 270,256.96 270,256.83C270,256.7 270,256.57 270,256.44C270,256.31 270,256.17 270,256.04C270,255.91 270,255.78 270,255.65C270,255.52 270,255.38 270,255.25C270,255.12 270,254.99 270,254.86C270,254.73 270,254.59 270,254.46C270,254.33 270,254.2 270,254.07C270,253.94 270,253.81 270,253.68C270,253.55 270,253.41 270,253.28C270,253.15 270,253.02 270,252.89C270,252.76 270,252.62 270,252.49C270,252.36 270,252.23 270,252.1C270,251.97 270,251.83 270,251.7C270,251.57 270,251.44 270,251.31C270,251.18 270,251.05 270,250.92C270,250.79 270,250.65 270,250.52C270,250.39 270,250.26 270,250.13C270,250 270,249.86 270,249.73C270,249.6 270,249.47 270,249.34C270,249.21 270,249.07 270,248.94C270,248.81 270,248.68 270,248.55C270,248.42 270,248.28 270,248.15C270,248.02 270,247.89 270,247.76C270,247.63 270,247.5 270,247.37C270,247.24 270,247.1 270,246.97C270,246.84 270,246.71 270,246.58C270,246.45 270,246.31 270,246.18C270,246.05 270,245.92 270,245.79C270,245.66 270,245.52 270,245.39C270,245.26 270,245.13 270,245C270,244.87 270,244.73 270,244.6C270,244.47 270,244.34 270,244.21C270,244.08 270,243.95 270,243.82C270,243.69 270,243.55 270,243.42C270,243.29 270,243.16 270,243.03C270,242.9 270,242.76 270,242.63C270,242.5 270,242.37 270,242.24C270,242.11 270,241.97 270,241.84C270,241.71 270,241.58 270,241.45C270,241.32 270,241.19 270,241.06C270,240.93 270,240.79 270,240.66C270,240.53 270,240.4 270,240.27C270,240.14 270,240 270,239.87C270,239.74 270,239.61 270,239.48C270,239.35 270,239.21 270,239.08C270,238.95 270,238.82 270,238.69C270,238.56 270,238.42 270,238.29C270,238.16 270,238.03 270,237.9C270,237.77 270,237.64 270,237.51C270,237.38 270,237.24 270,237.11C270,236.98 270,236.85 270,236.72C270,236.59 270,236.45 270,236.32C270,236.19 270,236.06 270,235.93C270,235.8 270,235.66 270,235.53C270,235.4 270,235.27 270,235.14C270,235.01 270,234.87 270,234.74C270,234.61 270,234.48 270,234.35C270,234.22 270,234.09 270,233.96C270,233.83 270,233.69 270,233.56C270,233.43 270,233.3 270,233.17C270,233.04 270,232.9 270,232.77C270,232.64 270,232.51 270,232.38C270,232.25 270,232.11 270,231.98C270,231.85 270,231.72 270,231.59C270,231.46 270,231.33 270,231.2C270,231.07 270,230.93 270,230.8C270,230.67 270,230.54 270,230.41C270,230.28 270,230.14 270,230.01C270,229.88 270,229.75 270,229.62C270,229.49 270,229.35 270,229.22C270,229.09 270,228.96 270,228.83C270,228.7 270,228.56 270,228.43C270,228.3 270,228.17 270,228.04C270,227.91 270,227.78 270,227.65C270,227.52 270,227.38 270,227.25C270,227.12 270,226.99 270,226.86C270,226.73 270,226.59 270,226.46C270,226.33 270,226.2 270,226.07C270,225.94 270,225.8 270,225.67C270,225.54 270,225.41 270,225.28C270,225.15 270,225.01 270,224.88C270,224.75 270,224.62 270,224.49C270,224.36 270,224.23 270,224.1C270,223.97 270,223.83 270,223.7C270,223.57 270,223.44 270,223.31C270,223.18 270,223.04 270,222.91C270,222.78 270,222.65 270,222.52C270,222.39 270,222.25 270,222.12C270,221.99 270,221.86 270,221.73C270,221.6 270,221.47 270,221.34C270,221.21 270,221.07 270,220.94C270,220.81 270,220.68 270,220.55C270,220.42 270,220.28 270,220.15C270,220.02 270,219.89 270,219.76C270,219.63 270,219.49 270,219.36C270,219.23 270,219.1 270,218.97C270,218.84 270,218.7 270,218.57C270,218.44 270,218.31 270,218.18C270,218.05 270,217.92 270,217.79C270,217.66 270,217.52 270,217.39C270,217.26 270,217.13 270,217C270,216.87 270,216.73 270,216.6C270,216.47 270,216.34 270,216.21C270,216.08 270,215.94 270,215.81C270,215.68 270,215.55 270,215.42C270,215.29 270,215.15 270,215.02C270,214.89 270,214.76 270,214.63C270,214.5 270,214.37 270,214.24C270,214.11 270,213.97 270,213.84C270,213.71 270,213.58 270,213.45C270,213.32 270,213.18 270,213.05C270,212.92 270,212.79 270,212.66C270,212.53 270,212.39 270,212.26C270,212.13 270,212 270,211.87C270,211.74 270,211.61 270,211.48C270,211.35 270,211.21 270,211.08C270,210.95 270,210.82 270,210.69C270,210.56 270,210.42 270,210.29C270,210.16 270,210.03 270,209.9C270,209.77 270,209.63 270,209.5C270,209.37 270,209.24 270,209.11C270,208.98 270,208.84 270,208.71C270,208.58 270,208.45 270,208.32C270,208.19 270,208.06 270,207.93C270,207.8 270,207.66 270,207.53C270,207.4 270,207.27 270,207.14C270,207.01 270,206.87 270,206.74C270,206.61 270,206.48 270,206.35C270,206.22 270,206.08 270,205.95C270,205.82 270,205.69 270,205.56C270,205.43 270,205.29 270,205.16C270,205.03 270,204.9 270,204.77C270,204.64 270,204.51 270,204.38C270,204.25 270,204.11 270,203.98C270,203.85 270,203.72 270,203.59C270,203.46 270,203.32 270,203.19C270,203.06 270,202.93 270,202.8C270,202.67 270,202.53 270,202.4C270,202.27 270,202.14 270,202.01C270,201.88 270,201.75 270,201.62C270,201.49 270,201.35 270,201.22C270,201.09 270,200.96 270,200.83C270,200.7 270,200.56 270,200.43C270,200.3 270,200.17 270,200.04C270,199.91 270,199.77 270,199.64C270,199.51 270,199.38 270,199.25C270,199.12 270,198.98 270,198.85C270,198.72 270,198.59 270,198.46C270,198.33 270,198.2 270,198.07C270,197.94 270,197.8 270,197.67C270,197.54 270,197.41 270,197.28C270,197.15 270,197.01 270,196.88C270,196.75 270,196.62 270,196.49C270,196.36 270,196.22 270,196.09C270,195.96 270,195.83 270,195.7C270,195.57 270,195.43 270,195.3C270,195.17 270,195.04 270,194.91C270,194.78 270,194.65 270,194.52C270,194.39 270,194.25 270,194.12C270,193.99 270,193.86 270,193.73C270,193.6 270,193.46 270,193.33C270,193.2 270,193.07 270,192.94C270,192.81 270,192.67 270,192.54C270,192.41 270,192.28 270,192.15C270,192.02 270,191.89 270,191.76C270,191.63 270,191.49 270,191.36C270,191.23 270,191.1 270,190.97C270,190.84 270,190.7 270,190.57C270,190.44 270,190.31 270,190.18C270,190.05 270,189.91 270,189.78C270,189.65 270,189.52 270,189.39C270,189.26 270,189.12 270,188.99C270,188.86 270,188.73 270,188.6C270,188.47 270,188.34 270,188.21C270,188.08 270,187.94 270,187.81C270,187.68 270,187.55 270.01,187.42C270.02,187.29 270.03,187.15 270.05,187.02C270.07,186.89 270.09,186.76 270.13,186.63C270.18,186.49 270.24,186.35 270.33,186.23C270.44,186.09 270.58,185.96 270.75,185.84C270.96,185.69 271.24,185.56 271.54,185.44C271.91,185.29 272.35,185.17 272.82,185.05C273.37,184.91 273.99,184.79 274.62,184.66C275.31,184.52 276.07,184.39 276.79,184.26C277.5,184.13 278.26,184.01 278.92,183.87C279.49,183.75 280.12,183.64 280.51,183.47C280.76,183.36 281.08,183.21 281.08,183.08C281.08,182.95 280.73,182.79 280.46,182.68C280.06,182.51 279.43,182.41 278.85,182.29C278.19,182.15 277.42,182.03 276.7,181.9C275.98,181.77 275.22,181.64 274.54,181.5C273.92,181.37 273.3,181.25 272.76,181.11Q272.3,180.99 271.5,180.71L268.5,180.71Q267.7,180.99 267.24,181.11C266.7,181.25 266.08,181.37 265.46,181.5C264.78,181.64 264.02,181.77 263.3,181.9C262.58,182.03 261.81,182.15 261.15,182.29C260.57,182.41 259.94,182.51 259.54,182.68C259.27,182.79 258.92,182.95 258.92,183.08C258.92,183.21 259.24,183.36 259.49,183.47C259.88,183.64 260.51,183.75 261.08,183.87C261.74,184.01 262.5,184.13 263.21,184.26C263.93,184.39 264.69,184.52 265.38,184.66C266.01,184.79 266.63,184.91 267.18,185.05C267.65,185.17 268.09,185.29 268.46,185.44C268.76,185.56 269.04,185.69 269.25,185.84C269.42,185.96 269.56,186.09 269.67,186.23C269.76,186.35 269.82,186.49 269.87,186.63C269.91,186.76 269.93,186.89 269.95,187.02C269.97,187.15 269.98,187.29 269.99,187.42C270,187.55 270,187.68 270,187.81C270,187.94 270,188.08 270,188.21C270,188.34 270,188.47 270,188.6C270,188.73 270,188.86 270,188.99C270,189.12 270,189.26 270,189.39C270,189.52 270,189.65 270,189.78C270,189.91 270,190.05 270,190.18C270,190.31 270,190.44 270,190.57C270,190.7 270,190.84 270,190.97C270,191.1 270,191.23 270,191.36C270,191.49 270,191.63 270,191.76C270,191.89 270,192.02 270,192.15C270,192.28 270,192.41 270,192.54C270,192.67 270,192.81 270,192.94C270,193.07 270,193.2 270,193.33C270,193.46 270,193.6 270,193.73C270,193.86 270,193.99 270,194.12C270,194.25 270,194.39 270,194.52C270,194.65 270,194.78 270,194.91C270,195.04 270,195.17 270,195.3C270,195.43 270,195.57 270,195.7C270,195.83 270,195.96 270,196.09C270,196.22 270,196.36 270,196.49C270,196.62 270,196.75 270,196.88C270,197.01 270,197.15 270,197.28C270,197.41 270,197.54 270,197.67C270,197.8 270,197.94 270,198.07C270,198.2 270,198.33 270,198.46C270,198.59 270,198.72 270,198.85C270,198.98 270,199.12 270,199.25C270,199.38 270,199.51 270,199.64C270,199.77 270,199.91 270,200.04C270,200.17 270,200.3 270,200.43C270,200.56 270,200.7 270,200.83C270,200.96 270,201.09 270,201.22C270,201.35 270,201.49 270,201.62C270,201.75 270,201.88 270,202.01C270,202.14 270,202.27 270,202.4C270,202.53 270,202.67 270,202.8C270,202.93 270,203.06 270,203.19C270,203.32 270,203.46 270,203.59C270,203.72 270,203.85 270,203.98C270,204.11 270,204.25 270,204.38C270,204.51 270,204.64 270,204.77C270,204.9 270,205.03 270,205.16C270,205.29 270,205.43 270,205.56C270,205.69 270,205.82 270,205.95C270,206.08 270,206.22 270,206.35C270,206.48 270,206.61 270,206.74C270,206.87 270,207.01 270,207.14C270,207.27 270,207.4 270,207.53C270,207.66 270,207.8 270,207.93C270,208.06 270,208.19 270,208.32C270,208.45 270,208.58 270,208.71C270,208.84 270,208.98 270,209.11C270,209.24 270,209.37 270,209.5C270,209.63 270,209.77 270,209.9C270,210.03 270,210.16 270,210.29C270,210.42 270,210.56 270,210.69C270,210.82 270,210.95 270,211.08C270,211.21 270,211.35 270,211.48C270,211.61 270,211.74 270,211.87C270,212 270,212.13 270,212.26C270,212.39 270,212.53 270,212.66C270,212.79 270,212.92 270,213.05C270,213.18 270,213.32 270,213.45C270,213.58 270,213.71 270,213.84C270,213.97 270,214.11 270,214.24C270,214.37 270,214.5 270,214.63C270,214.76 270,214.89 270,215.02C270,215.15 270,215.29 270,215.42C270,215.55 270,215.68 270,215.81C270,215.94 270,216.08 270,216.21C270,216.34 270,216.47 270,216.6C270,216.73 270,216.87 270,217C270,217.13 270,217.26 270,217.39C270,217.52 270,217.66 270,217.79C270,217.92 270,218.05 270,218.18C270,218.31 270,218.44 270,218.57C270,218.7 270,218.84 270,218.97C270,219.1 270,219.23 270,219.36C270,219.49 270,219.63 270,219.76C270,219.89 270,220.02 270,220.15C270,220.28 270,220.42 270,220.55C270,220.68 270,220.81 270,220.94C270,221.07 270,221.21 270,221.34C270,221.47 270,221.6 270,221.73C270,221.86 270,221.99 270,222.12C270,222.25 270,222.39 270,222.52C270,222.65 270,222.78 270,222.91C270,223.04 270,223.18 270,223.31C270,223.44 270,223.57 270,223.7C270,223.83 270,223.97 270,224.1C270,224.23 270,224.36 270,224.49C270,224.62 270,224.75 270,224.88C270,225.01 270,225.15 270,225.28C270,225.41 270,225.54 270,225.67C270,225.8 270,225.94 270,226.07C270,226.2 270,226.33 270,226.46C270,226.59 270,226.73 270,226.86C270,226.99 270,227.12 270,227.25C270,227.38 270,227.52 270,227.65C270,227.78 270,227.91 270,228.04C270,228.17 270,228.3 270,228.43C270,228.56 270,228.7 270,228.83C270,228.96 270,229.09 270,229.22C270,229.35 270,229.49 270,229.62C270,229.75 270,229.88 270,230.01C270,230.14 270,230.28 270,230.41C270,230.54 270,230.67 270,230.8C270,230.93 270,231.07 270,231.2C270,231.33 270,231.46 270,231.59C270,231.72 270,231.85 270,231.98C270,232.11 270,232.25 270,232.38C270,232.51 270,232.64 270,232.77C270,232.9 270,233.04 270,233.17C270,233.3 270,233.43 270,233.56C270,233.69 270,233.83 270,233.96C270,234.09 270,234.22 270,234.35C270,234.48 270,234.61 270,234.74C270,234.87 270,235.01 270,235.14C270,235.27 270,235.4 270,235.53C270,235.66 270,235.8 270,235.93C270,236.06 270,236.19 270,236.32C270,236.45 270,236.59 270,236.72C270,236.85 270,236.98 270,237.11C270,237.24 270,237.38 270,237.51C270,237.64 270,237.77 270,237.9C270,238.03 270,238.16 270,238.29C270,238.42 270,238.56 270,238.69C270,238.82 270,238.95 270,239.08C270,239.21 270,239.35 270,239.48C270,239.61 270,239.74 270,239.87C270,240 270,240.14 270,240.27C270,240.4 270,240.53 270,240.66C270,240.79 270,240.93 270,241.06C270,241.19 270,241.32 270,241.45C270,241.58 270,241.71 270,241.84C270,241.97 270,242.11 270,242.24C270,242.37 270,242.5 270,242.63C270,242.76 270,242.9 270,243.03C270,243.16 270,243.29 270,243.42C270,243.55 270,243.69 270,243.82C270,243.95 270,244.08 270,244.21C270,244.34 270,244.47 270,244.6C270,244.73 270,244.87 270,245C270,245.13 270,245.26 270,245.39C270,245.52 270,245.66 270,245.79C270,245.92 270,246.05 270,246.18C270,246.31 270,246.45 270,246.58C270,246.71 270,246.84 270,246.97C270,247.1 270,247.24 270,247.37C270,247.5 270,247.63 270,247.76C270,247.89 270,248.02 270,248.15C270,248.28 270,248.42 270,248.55C270,248.68 270,248.81 270,248.94C270,249.07 270,249.21 270,249.34C270,249.47 270,249.6 270,249.73C270,249.86 270,250 270,250.13C270,250.26 270,250.39 270,250.52C270,250.65 270,250.79 270,250.92C270,251.05 270,251.18 270,251.31C270,251.44 270,251.57 270,251.7C270,251.83 270,251.97 270,252.1C270,252.23 270,252.36 270,252.49C270,252.62 270,252.76 270,252.89C270,253.02 270,253.15 270,253.28C270,253.41 270,253.55 270,253.68C270,253.81 270,253.94 270,254.07C270,254.2 270,254.33 270,254.46C270,254.59 270,254.73 270,254.86C270,254.99 270,255.12 270,255.25C270,255.38 270,255.52 270,255.65C270,255.78 270,255.91 270,256.04C270,256.17 270,256.31 270,256.44C270,256.57 270,256.7 270,256.83C270,256.96 270,257.1 270,257.23C270,257.36 270,257.49 270,257.62C270,257.75 270,257.88 270,258.01C270,258.14 270,258.28 270,258.41C270,258.54 270,258.67 270,258.8C270,258.93 270,259.07 270,259.2C270,259.33 270,259.46 270,259.59C270,259.72 270,259.86 270,259.99C270,260.12 270,260.25 270,260.38C270,260.51 270,260.65 270,260.78C270,260.91 270,261.04 270,261.17C270,261.3 270,261.43 270,261.56C270,261.69 270,261.83 270,261.96C270,262.09 270,262.22 270,262.35C270,262.48 270,262.62 270,262.75C270,262.88 270,263.01 270,263.14C270,263.27 270,263.41 270,263.54C270,263.67 270,263.8 270,263.93C270,264.06 270,264.2 270,264.33C270,264.46 270,264.59 270,264.72C270,264.85 270,264.98 270,265.11C270,265.24 270,265.38 270,265.51C270,265.64 270,265.77 270,265.9C270,266.03 270,266.17 270,266.3C270,266.43 270,266.56 270,266.69C270,266.82 270,266.96 270,267.09C270,267.22 270,267.35 270,267.48C270,267.61 270,267.74 270,267.87C270,268 270,268.14 270,268.27C270,268.4 270,268.53 270,268.66C270,268.79 270,268.93 270,269.06C270,269.19 270,269.32 270,269.45C270,269.58 270,269.72 270,269.85C270,269.98 270,270.11 270,270.24C270,270.37 270,270.51 270,270.64C270,270.77 270,270.9 270,271.03C270,271.16 270,271.29 270,271.42C270,271.55 270,271.69 270,271.82C270,271.95 270,272.08 269.99,272.21C269.98,272.34 269.98,272.48 269.96,272.61C269.94,272.74 269.92,272.87 269.87,273C269.81,273.14 269.75,273.28 269.63,273.4C269.48,273.55 269.27,273.67 269.01,273.79C268.66,273.95 268.2,274.07 267.67,274.19C266.95,274.35 266.05,274.46 265.06,274.58C263.78,274.73 262.24,274.85 260.62,274.97C258.65,275.12 256.38,275.25 254.06,275.37C251.45,275.51 248.54,275.63 245.73,275.76C242.84,275.89 239.73,276.02 236.93,276.16C234.39,276.29 231.67,276.39 229.64,276.55C228.19,276.67 225.93,276.74 225.9,276.95C225.88,277.06 226.39,277.23 226.85,277.34C227.89,277.59 230.21,277.61 232.18,277.73C234.61,277.88 237.56,278 240.33,278.13C243.21,278.26 246.31,278.38 249.15,278.52C251.81,278.65 254.5,278.78 256.88,278.92C258.93,279.04 260.91,279.16 262.61,279.31C263.97,279.43 265.23,279.55 266.27,279.71C267.05,279.83 267.75,279.94 268.31,280.1C268.71,280.22 269.06,280.34 269.32,280.5C269.51,280.62 269.65,280.75 269.75,280.89C269.84,281.01 269.88,281.15 269.92,281.28C269.96,281.41 269.97,281.55 269.98,281.68C269.99,281.81 269.99,281.94 269.99,282.07C269.99,282.2 270,282.34 270,282.47C270,282.6 270,282.73 270,282.86C270,282.99 270,283.13 270,283.26C270,283.39 270,283.52 270,283.65C270,283.78 270,283.92 270,284.05C270,284.18 270,284.31 270,284.44C270,284.57 270,284.7 270,284.83C270,284.96 270,285.1 270,285.23C270,285.36 270,285.49 270,285.62C270,285.75 270,285.89 270,286.02C270,286.15 270,286.28 270,286.41C270,286.54 270,286.68 270,286.81C270,286.94 270,287.07 270,287.2C270,287.33 270,287.46 270,287.59C270,287.72 270,287.86 270,287.99C270,288.12 270,288.25 270,288.38C270,288.51 270,288.65 270,288.78C270,288.91 270,289.04 270,289.17C270,289.3 270,289.44 270,289.57C270,289.7 270,289.83 270,289.96C270,290.09 270,290.23 270,290.36C270,290.49 270,290.62 270,290.75C270,290.88 270,291.01 270,291.14C270,291.27 270,291.41 270,291.54C270,291.67 270,291.8 270,291.93C270,292.06 270,292.2 270,292.33C270,292.46 270,292.59 270,292.72C270,292.85 270,292.99 270,293.12C270,293.25 270,293.38 270,293.51C270,293.64 270,293.78 270,293.91C270,294.04 270,294.17 270,294.3C270,294.43 270,294.56 270,294.69C270,294.82 270,294.96 270,295.09C270,295.22 270,295.35 270,295.48C270,295.61 270,295.75 270,295.88C270,296.01 270,296.14 270,296.27C270,296.4 270,296.54 270,296.67C270,296.8 270,296.93 270,297.06C270,297.19 270,297.32 269.99,297.45C269.98,297.58 269.97,297.72 269.95,297.85C269.93,297.98 269.91,298.11 269.87,298.24C269.82,298.38 269.76,298.52 269.67,298.64C269.56,298.78 269.42,298.91 269.25,299.03C269.04,299.18 268.76,299.31 268.46,299.43C268.09,299.58 267.65,299.7 267.18,299.82C266.63,299.96 266.01,300.09 265.38,300.22C264.69,300.36 263.93,300.48 263.21,300.61C262.5,300.74 261.74,300.86 261.08,301C260.51,301.12 259.88,301.23 259.49,301.4C259.24,301.51 258.92,301.66 258.92,301.79C258.92,301.92 259.27,302.08 259.54,302.19C259.94,302.36 260.57,302.46 261.15,302.58C261.81,302.72 262.58,302.85 263.3,302.98C264.02,303.11 264.78,303.23 265.46,303.37C266.08,303.5 266.7,303.63 267.24,303.77Q267.7,303.89 268.5,304.16Z" style="vector-effect: non-scaling-stroke; stroke-width: 0.5px; stroke: rgb(0, 0, 0); stroke-opacity: 1; fill: rgb(200, 239, 52); fill-opacity: 1;"/><path class="box" d="M258.98,277.07H281.02M258.98,277.07H281.02V277.07H258.98ZM270,277.07V277.07M270,277.07V277.07" style="vector-effect: non-scaling-stroke; stroke-width: 0.5px; stroke: rgb(0, 0, 0); stroke-opacity: 1; fill: rgb(0, 0, 0); fill-opacity: 0.4;"/><path class="mean" d="M258.98,265.52H281.02" style="fill: none; vector-effect: non-scaling-stroke; stroke-width: 0.5px; stroke-dasharray: 1px, 0.5px; stroke: rgb(0, 0, 0); stroke-opacity: 1;"/></g><g class="trace violins" style="opacity: 1;"><path class="violin" d="M451.06,389.2Q451.63,382.89 452.06,379.75C452.49,376.59 453,373.43 453.65,370.29C454.3,367.13 455.07,363.97 455.96,360.84C456.86,357.67 457.9,354.52 459.03,351.39C460.18,348.22 461.46,345.07 462.8,341.94C464.15,338.77 465.62,335.62 467.11,332.48C468.6,329.32 470.19,326.18 471.74,323.03C473.29,319.88 474.89,316.74 476.42,313.58C477.94,310.44 479.48,307.3 480.9,304.13C482.31,300.99 483.68,297.84 484.93,294.67C486.16,291.54 487.32,288.39 488.35,285.22C489.36,282.09 490.28,278.93 491.06,275.77C491.83,272.63 492.5,269.48 493.01,266.32C493.51,263.18 493.91,260.02 494.09,256.86C494.27,253.71 494.32,250.55 494.1,247.41C493.88,244.25 493.46,241.08 492.78,237.96C492.09,234.78 491.11,231.62 489.94,228.51C488.74,225.32 487.23,222.17 485.66,219.05C484.06,215.87 482.19,212.74 480.4,209.6C478.59,206.44 476.65,203.32 474.86,200.15C473.09,197.01 471.32,193.87 469.73,190.69C468.17,187.57 466.71,184.41 465.4,181.24C464.11,178.11 462.96,174.96 461.9,171.79C460.85,168.66 459.94,165.5 459.06,162.34C458.19,159.2 457.4,156.04 456.66,152.88C455.92,149.74 455.24,146.59 454.63,143.43C454.02,140.29 453.47,137.14 452.99,133.98C452.51,130.84 452.11,127.68 451.77,124.53Q451.43,121.38 450.95,115.07L449.05,115.07Q448.57,121.38 448.23,124.53C447.89,127.68 447.49,130.84 447.01,133.98C446.53,137.14 445.98,140.29 445.37,143.43C444.76,146.59 444.08,149.74 443.34,152.88C442.6,156.04 441.81,159.2 440.94,162.34C440.06,165.5 439.15,168.66 438.1,171.79C437.04,174.96 435.89,178.11 434.6,181.24C433.29,184.41 431.83,187.57 430.27,190.69C428.68,193.87 426.91,197.01 425.14,200.15C423.35,203.32 421.41,206.44 419.6,209.6C417.81,212.74 415.94,215.87 414.34,219.05C412.77,222.17 411.26,225.32 410.06,228.51C408.89,231.62 407.91,234.78 407.22,237.96C406.54,241.08 406.12,244.25 405.9,247.41C405.68,250.55 405.73,253.71 405.91,256.86C406.09,260.02 406.49,263.18 406.99,266.32C407.5,269.48 408.17,272.63 408.94,275.77C409.72,278.93 410.64,282.09 411.65,285.22C412.68,288.39 413.84,291.54 415.07,294.67C416.32,297.84 417.69,300.99 419.1,304.13C420.52,307.3 422.06,310.44 423.58,313.58C425.11,316.74 426.71,319.88 428.26,323.03C429.81,326.18 431.4,329.32 432.89,332.48C434.38,335.62 435.85,338.77 437.2,341.94C438.54,345.07 439.82,348.22 440.97,351.39C442.1,354.52 443.14,357.67 444.04,360.84C444.93,363.97 445.7,367.13 446.35,370.29C447,373.43 447.51,376.59 447.94,379.75Q448.37,382.89 448.94,389.2Z" style="vector-effect: non-scaling-stroke; stroke-width: 0.5px; stroke: rgb(0, 0, 0); stroke-opacity: 1; fill: rgb(70, 98, 215); fill-opacity: 1;"/><path class="box" d="M438.98,256.17H461.03M438.98,289.43H461.03V222.09H438.98ZM450,289.43V332.04M450,222.09V172.23" style="vector-effect: non-scaling-stroke; stroke-width: 0.5px; stroke: rgb(0, 0, 0); stroke-opacity: 1; fill: rgb(0, 0, 0); fill-opacity: 0.4;"/><path class="mean" d="M438.98,256.55H461.03" style="fill: none; vector-effect: non-scaling-stroke; stroke-width: 0.5px; stroke-dasharray: 1px, 0.5px; stroke: rgb(0, 0, 0); stroke-opacity: 1;"/></g><g class="trace violins" style="opacity: 1;"><path class="violin" d="M632.19,451.12Q633.33,442.32 634.15,437.94C634.97,433.53 635.96,429.13 637.11,424.76C638.28,420.35 639.66,415.96 641.12,411.59C642.59,407.18 644.27,402.8 645.92,398.41C647.57,394.01 649.37,389.63 651.02,385.23C652.66,380.85 654.33,376.46 655.8,372.05C657.25,367.68 658.61,363.28 659.78,358.87C660.94,354.5 661.9,350.1 662.78,345.69C663.65,341.31 664.33,336.91 665.02,332.51C665.71,328.12 666.28,323.72 666.93,319.33C667.58,314.94 668.24,310.54 668.94,306.15C669.64,301.75 670.43,297.37 671.12,292.97C671.81,288.58 672.58,284.19 673.08,279.79C673.57,275.41 674.04,271.01 674.1,266.62C674.16,262.23 673.99,257.82 673.47,253.44C672.95,249.03 672.04,244.63 670.97,240.26C669.89,235.84 668.42,231.46 666.99,227.08C665.55,222.67 663.87,218.3 662.36,213.9C660.85,209.51 659.3,205.13 657.91,200.72C656.53,196.34 655.26,191.94 654.06,187.54C652.87,183.16 651.81,178.76 650.73,174.36C649.65,169.97 648.63,165.57 647.56,161.18C646.49,156.78 645.4,152.39 644.3,148C643.2,143.6 642.04,139.22 640.94,134.82C639.85,130.43 638.72,126.05 637.73,121.65C636.74,117.27 635.79,112.87 634.99,108.47C634.19,104.09 633.5,99.69 632.93,95.29Q632.36,90.9 631.55,82.11L628.45,82.11Q627.64,90.9 627.07,95.29C626.5,99.69 625.81,104.09 625.01,108.47C624.21,112.87 623.26,117.27 622.27,121.65C621.28,126.05 620.15,130.43 619.06,134.82C617.96,139.22 616.8,143.6 615.7,148C614.6,152.39 613.51,156.78 612.44,161.18C611.37,165.57 610.35,169.97 609.27,174.36C608.19,178.76 607.13,183.16 605.94,187.54C604.74,191.94 603.47,196.34 602.09,200.72C600.7,205.13 599.15,209.51 597.64,213.9C596.13,218.3 594.45,222.67 593.01,227.08C591.58,231.46 590.11,235.84 589.03,240.26C587.96,244.63 587.05,249.03 586.53,253.44C586.01,257.82 585.84,262.23 585.9,266.62C585.96,271.01 586.43,275.41 586.92,279.79C587.42,284.19 588.19,288.58 588.88,292.97C589.57,297.37 590.36,301.75 591.06,306.15C591.76,310.54 592.42,314.94 593.07,319.33C593.72,323.72 594.29,328.12 594.98,332.51C595.67,336.91 596.35,341.31 597.22,345.69C598.1,350.1 599.06,354.5 600.22,358.87C601.39,363.28 602.75,367.68 604.2,372.05C605.67,376.46 607.34,380.85 608.98,385.23C610.63,389.63 612.43,394.01 614.08,398.41C615.73,402.8 617.41,407.18 618.88,411.59C620.34,415.96 621.72,420.35 622.89,424.76C624.04,429.13 625.03,433.53 625.85,437.94Q626.67,442.32 627.81,451.12Z" style="vector-effect: non-scaling-stroke; stroke-width: 0.5px; stroke: rgb(0, 0, 0); stroke-opacity: 1; fill: rgb(250, 186, 57); fill-opacity: 1;"/><path class="box" d="M618.98,266.62H641.03M618.98,332.04H641.03V238.06H618.98ZM630,332.04V371.05M630,238.06V162.19" style="vector-effect: non-scaling-stroke; stroke-width: 0.5px; stroke: rgb(0, 0, 0); stroke-opacity: 1; fill: rgb(0, 0, 0); fill-opacity: 0.4;"/><path class="mean" d="M618.98,275.29H641.03" style="fill: none; vector-effect: non-scaling-stroke; stroke-width: 0.5px; stroke-dasharray: 1px, 0.5px; stroke: rgb(0, 0, 0); stroke-opacity: 1;"/></g><g class="trace violins" style="opacity: 1;"><path class="violin" d="M810.46,614.18Q810.69,603.75 810.85,598.54C811.01,593.33 811.21,588.11 811.43,582.9C811.65,577.68 811.91,572.47 812.18,567.25C812.45,562.04 812.76,556.82 813.07,551.61C813.39,546.4 813.71,541.18 814.07,535.97C814.43,530.76 814.79,525.54 815.22,520.33C815.65,515.11 816.1,509.89 816.65,504.68C817.2,499.46 817.81,494.25 818.52,489.04C819.23,483.82 820.04,478.61 820.89,473.4C821.74,468.18 822.7,462.97 823.6,457.76C824.5,452.55 825.45,447.34 826.28,442.12C827.11,436.91 827.9,431.69 828.57,426.47C829.24,421.26 829.78,416.05 830.28,410.83C830.78,405.62 831.15,400.4 831.58,395.19C832.01,389.98 832.37,384.76 832.88,379.55C833.4,374.33 833.94,369.11 834.67,363.9C835.4,358.68 836.26,353.46 837.27,348.26C838.28,343.03 839.48,337.82 840.72,332.62C841.97,327.4 843.4,322.19 844.75,316.98C846.1,311.76 847.57,306.56 848.81,301.33C850.05,296.13 851.31,290.92 852.19,285.69C853.07,280.5 853.82,275.27 854.1,270.05C854.38,264.85 854.37,259.61 853.89,254.41C853.41,249.18 852.46,243.93 851.2,238.76C849.92,233.5 848.13,228.29 846.21,223.12C844.26,217.86 841.88,212.67 839.57,207.48C837.25,202.25 834.67,197.07 832.31,191.84C829.97,186.64 827.56,181.44 825.47,176.19C823.4,171.01 821.46,165.8 819.82,160.55C818.2,155.37 816.83,150.15 815.69,144.91C814.56,139.72 813.71,134.5 813,129.27Q812.29,124.07 811.44,113.62L808.56,113.62Q807.71,124.07 807,129.27C806.29,134.5 805.44,139.72 804.31,144.91C803.17,150.15 801.8,155.37 800.18,160.55C798.54,165.8 796.6,171.01 794.53,176.19C792.44,181.44 790.03,186.64 787.69,191.84C785.33,197.07 782.75,202.25 780.43,207.48C778.12,212.67 775.74,217.86 773.79,223.12C771.87,228.29 770.08,233.5 768.8,238.76C767.54,243.93 766.59,249.18 766.11,254.41C765.63,259.61 765.62,264.85 765.9,270.05C766.18,275.27 766.93,280.5 767.81,285.69C768.69,290.92 769.95,296.13 771.19,301.33C772.43,306.56 773.9,311.76 775.25,316.98C776.6,322.19 778.03,327.4 779.28,332.62C780.52,337.82 781.72,343.03 782.73,348.26C783.74,353.46 784.6,358.68 785.33,363.9C786.06,369.11 786.6,374.33 787.12,379.55C787.63,384.76 787.99,389.98 788.42,395.19C788.85,400.4 789.22,405.62 789.72,410.83C790.22,416.05 790.76,421.26 791.43,426.47C792.1,431.69 792.89,436.91 793.72,442.12C794.55,447.34 795.5,452.55 796.4,457.76C797.3,462.97 798.26,468.18 799.11,473.4C799.96,478.61 800.77,483.82 801.48,489.04C802.19,494.25 802.8,499.46 803.35,504.68C803.9,509.89 804.35,515.11 804.78,520.33C805.21,525.54 805.57,530.76 805.93,535.97C806.29,541.18 806.61,546.4 806.93,551.61C807.24,556.82 807.55,562.04 807.82,567.25C808.09,572.47 808.35,577.68 808.57,582.9C808.79,588.11 808.99,593.33 809.15,598.54Q809.31,603.75 809.54,614.18Z" style="vector-effect: non-scaling-stroke; stroke-width: 0.5px; stroke: rgb(0, 0, 0); stroke-opacity: 1; fill: rgb(54, 169, 249); fill-opacity: 1;"/><path class="box" d="M798.98,289.43H821.03M798.98,371.05H821.03V238.06H798.98ZM810,371.05V520M810,238.06V207.81" style="vector-effect: non-scaling-stroke; stroke-width: 0.5px; stroke: rgb(0, 0, 0); stroke-opacity: 1; fill: rgb(0, 0, 0); fill-opacity: 0.4;"/><path class="mean" d="M798.98,311.81H821.03" style="fill: none; vector-effect: non-scaling-stroke; stroke-width: 0.5px; stroke-dasharray: 1px, 0.5px; stroke: rgb(0, 0, 0); stroke-opacity: 1;"/></g><g class="trace violins" style="opacity: 1;"><path class="violin" d="M990.43,590.01Q990.64,582.33 990.78,578.49C990.92,574.65 991.1,570.8 991.29,566.96C991.48,563.12 991.7,559.27 991.91,555.43C992.12,551.59 992.35,547.75 992.54,543.91C992.73,540.07 992.92,536.22 993.07,532.38C993.21,528.54 993.32,524.69 993.41,520.85C993.49,517.01 993.52,513.16 993.58,509.32C993.64,505.48 993.66,501.64 993.76,497.8C993.86,493.96 993.96,490.11 994.18,486.27C994.4,482.42 994.68,478.58 995.06,474.74C995.44,470.9 995.93,467.06 996.45,463.22C996.97,459.37 997.61,455.53 998.19,451.69C998.77,447.85 999.4,444.01 999.92,440.16C1000.44,436.32 1000.93,432.48 1001.3,428.63C1001.66,424.79 1001.93,420.95 1002.11,417.11C1002.29,413.27 1002.35,409.42 1002.39,405.58C1002.43,401.74 1002.36,397.89 1002.34,394.05C1002.31,390.21 1002.24,386.36 1002.24,382.52C1002.24,378.68 1002.23,374.84 1002.32,371C1002.41,367.16 1002.53,363.31 1002.77,359.47C1003.01,355.62 1003.32,351.78 1003.76,347.94C1004.2,344.09 1004.74,340.25 1005.43,336.42C1006.12,332.57 1006.94,328.72 1007.89,324.89C1008.85,321.03 1009.96,317.18 1011.19,313.36C1012.43,309.5 1013.83,305.66 1015.29,301.83C1016.76,297.97 1018.39,294.14 1019.99,290.31C1021.6,286.46 1023.34,282.64 1024.91,278.78C1026.47,274.95 1028.09,271.12 1029.39,267.25C1030.67,263.44 1031.88,259.59 1032.67,255.72C1033.44,251.91 1033.98,248.05 1034.1,244.2C1034.22,240.36 1033.94,236.49 1033.38,232.67C1032.81,228.8 1031.81,224.95 1030.68,221.14C1029.53,217.27 1028.03,213.44 1026.51,209.62C1024.97,205.75 1023.22,201.93 1021.51,198.09C1019.79,194.24 1017.98,190.41 1016.24,186.56C1014.51,182.72 1012.75,178.88 1011.09,175.03C1009.44,171.2 1007.83,167.37 1006.32,163.51C1004.83,159.68 1003.39,155.84 1002.09,151.98C1000.8,148.15 999.6,144.31 998.53,140.45C997.47,136.62 996.52,132.78 995.69,128.93C994.87,125.1 994.17,121.25 993.57,117.4C992.97,113.56 992.5,109.72 992.09,105.87C991.68,102.03 991.39,98.18 991.13,94.34Q990.88,90.5 990.56,82.82L989.44,82.82Q989.12,90.5 988.87,94.34C988.61,98.18 988.32,102.03 987.91,105.87C987.5,109.72 987.03,113.56 986.43,117.4C985.83,121.25 985.13,125.1 984.31,128.93C983.48,132.78 982.53,136.62 981.47,140.45C980.4,144.31 979.2,148.15 977.91,151.98C976.61,155.84 975.17,159.68 973.68,163.51C972.17,167.37 970.56,171.2 968.91,175.03C967.25,178.88 965.49,182.72 963.76,186.56C962.02,190.41 960.21,194.24 958.49,198.09C956.78,201.93 955.03,205.75 953.49,209.62C951.97,213.44 950.47,217.27 949.32,221.14C948.19,224.95 947.19,228.8 946.62,232.67C946.06,236.49 945.78,240.36 945.9,244.2C946.02,248.05 946.56,251.91 947.33,255.72C948.12,259.59 949.33,263.44 950.61,267.25C951.91,271.12 953.53,274.95 955.09,278.78C956.66,282.64 958.4,286.46 960.01,290.31C961.61,294.14 963.24,297.97 964.71,301.83C966.17,305.66 967.57,309.5 968.81,313.36C970.04,317.18 971.15,321.03 972.11,324.89C973.06,328.72 973.88,332.57 974.57,336.42C975.26,340.25 975.8,344.09 976.24,347.94C976.68,351.78 976.99,355.62 977.23,359.47C977.47,363.31 977.59,367.16 977.68,371C977.77,374.84 977.76,378.68 977.76,382.52C977.76,386.36 977.69,390.21 977.66,394.05C977.64,397.89 977.57,401.74 977.61,405.58C977.65,409.42 977.71,413.27 977.89,417.11C978.07,420.95 978.34,424.79 978.7,428.63C979.07,432.48 979.56,436.32 980.08,440.16C980.6,444.01 981.23,447.85 981.81,451.69C982.39,455.53 983.03,459.37 983.55,463.22C984.07,467.06 984.56,470.9 984.94,474.74C985.32,478.58 985.6,482.42 985.82,486.27C986.04,490.11 986.14,493.96 986.24,497.8C986.34,501.64 986.36,505.48 986.42,509.32C986.48,513.16 986.51,517.01 986.59,520.85C986.68,524.69 986.79,528.54 986.93,532.38C987.08,536.22 987.27,540.07 987.46,543.91C987.65,547.75 987.88,551.59 988.09,555.43C988.3,559.27 988.52,563.12 988.71,566.96C988.9,570.8 989.08,574.65 989.22,578.49Q989.36,582.33 989.57,590.01Z" style="vector-effect: non-scaling-stroke; stroke-width: 0.5px; stroke: rgb(0, 0, 0); stroke-opacity: 1; fill: rgb(246, 106, 25); fill-opacity: 1;"/><path class="box" d="M978.97,256.17H1001.03M978.97,316.91H1001.03V230.08H978.97ZM990,316.91V426.02M990,230.08V152.83" style="vector-effect: non-scaling-stroke; stroke-width: 0.5px; stroke: rgb(0, 0, 0); stroke-opacity: 1; fill: rgb(0, 0, 0); fill-opacity: 0.4;"/><path class="mean" d="M978.97,281.33H1001.03" style="fill: none; vector-effect: non-scaling-stroke; stroke-width: 0.5px; stroke-dasharray: 1px, 0.5px; stroke: rgb(0, 0, 0); stroke-opacity: 1;"/></g><g class="trace violins" style="opacity: 1;"><path class="violin" d="M1171.71,496.69Q1172.56,488.94 1173.14,485.07C1173.72,481.19 1174.42,477.32 1175.19,473.45C1175.96,469.57 1176.87,465.7 1177.75,461.83C1178.63,457.95 1179.62,454.09 1180.49,450.21C1181.36,446.34 1182.25,442.47 1182.97,438.58C1183.69,434.72 1184.32,430.84 1184.83,426.96C1185.34,423.09 1185.69,419.22 1186.03,415.34C1186.37,411.47 1186.56,407.59 1186.87,403.72C1187.18,399.85 1187.44,395.97 1187.9,392.1C1188.36,388.22 1188.9,384.34 1189.61,380.48C1190.33,376.59 1191.23,372.72 1192.21,368.86C1193.2,364.97 1194.37,361.1 1195.52,357.23C1196.67,353.35 1197.94,349.49 1199.12,345.61C1200.3,341.74 1201.49,337.87 1202.58,333.99C1203.67,330.13 1204.69,326.25 1205.65,322.37C1206.61,318.5 1207.5,314.63 1208.35,310.75C1209.19,306.88 1209.99,303.01 1210.72,299.13C1211.44,295.26 1212.16,291.39 1212.7,287.51C1213.24,283.64 1213.74,279.76 1213.97,275.88C1214.2,272.01 1214.3,268.13 1214.1,264.26C1213.9,260.38 1213.45,256.49 1212.75,252.64C1212.05,248.74 1211.03,244.87 1209.88,241.02C1208.72,237.12 1207.27,233.25 1205.81,229.4C1204.33,225.51 1202.67,221.65 1201.06,217.78C1199.45,213.9 1197.75,210.04 1196.16,206.16C1194.57,202.29 1193,198.42 1191.51,194.53C1190.03,190.67 1188.61,186.8 1187.27,182.91C1185.94,179.05 1184.68,175.17 1183.5,171.29C1182.32,167.43 1181.22,163.55 1180.18,159.67C1179.15,155.81 1178.18,151.93 1177.3,148.05C1176.43,144.19 1175.62,140.31 1174.92,136.43C1174.22,132.56 1173.61,128.69 1173.08,124.81C1172.56,120.94 1172.13,117.06 1171.77,113.18Q1171.41,109.31 1170.93,101.56L1169.07,101.56Q1168.59,109.31 1168.23,113.18C1167.87,117.06 1167.44,120.94 1166.92,124.81C1166.39,128.69 1165.78,132.56 1165.08,136.43C1164.38,140.31 1163.57,144.19 1162.7,148.05C1161.82,151.93 1160.85,155.81 1159.82,159.67C1158.78,163.55 1157.68,167.43 1156.5,171.29C1155.32,175.17 1154.06,179.05 1152.73,182.91C1151.39,186.8 1149.97,190.67 1148.49,194.53C1147,198.42 1145.43,202.29 1143.84,206.16C1142.25,210.04 1140.55,213.9 1138.94,217.78C1137.33,221.65 1135.67,225.51 1134.19,229.4C1132.73,233.25 1131.28,237.12 1130.12,241.02C1128.97,244.87 1127.95,248.74 1127.25,252.64C1126.55,256.49 1126.1,260.38 1125.9,264.26C1125.7,268.13 1125.8,272.01 1126.03,275.88C1126.26,279.76 1126.76,283.64 1127.3,287.51C1127.84,291.39 1128.56,295.26 1129.28,299.13C1130.01,303.01 1130.81,306.88 1131.65,310.75C1132.5,314.63 1133.39,318.5 1134.35,322.37C1135.31,326.25 1136.33,330.13 1137.42,333.99C1138.51,337.87 1139.7,341.74 1140.88,345.61C1142.06,349.49 1143.33,353.35 1144.48,357.23C1145.63,361.1 1146.8,364.97 1147.79,368.86C1148.77,372.72 1149.67,376.59 1150.39,380.48C1151.1,384.34 1151.64,388.22 1152.1,392.1C1152.56,395.97 1152.82,399.85 1153.13,403.72C1153.44,407.59 1153.63,411.47 1153.97,415.34C1154.31,419.22 1154.66,423.09 1155.17,426.96C1155.68,430.84 1156.31,434.72 1157.03,438.58C1157.75,442.47 1158.64,446.34 1159.51,450.21C1160.38,454.09 1161.37,457.95 1162.25,461.83C1163.13,465.7 1164.04,469.57 1164.81,473.45C1165.58,477.32 1166.28,481.19 1166.86,485.07Q1167.44,488.94 1168.29,496.69Z" style="vector-effect: non-scaling-stroke; stroke-width: 0.5px; stroke: rgb(0, 0, 0); stroke-opacity: 1; fill: rgb(26, 228, 182); fill-opacity: 1;"/><path class="box" d="M1158.97,277.07H1181.03M1158.97,332.04H1181.03V242.59H1158.97ZM1170,332.04V426.02M1170,242.59V172.23" style="vector-effect: non-scaling-stroke; stroke-width: 0.5px; stroke: rgb(0, 0, 0); stroke-opacity: 1; fill: rgb(0, 0, 0); fill-opacity: 0.4;"/><path class="mean" d="M1158.97,295.11H1181.03" style="fill: none; vector-effect: non-scaling-stroke; stroke-width: 0.5px; stroke-dasharray: 1px, 0.5px; stroke: rgb(0, 0, 0); stroke-opacity: 1;"/></g><g class="trace violins" style="opacity: 1;"><path class="violin" d="M1350.95,611.53Q1351.42,601.58 1351.73,596.61C1352.05,591.63 1352.43,586.65 1352.84,581.68C1353.26,576.7 1353.74,571.73 1354.22,566.75C1354.69,561.78 1355.22,556.81 1355.69,551.83C1356.16,546.86 1356.63,541.88 1357.02,536.9C1357.41,531.93 1357.74,526.95 1358.02,521.97C1358.3,517 1358.5,512.02 1358.7,507.05C1358.9,502.07 1359.04,497.1 1359.23,492.12C1359.42,487.15 1359.6,482.17 1359.85,477.2C1360.1,472.22 1360.39,467.25 1360.72,462.27C1361.05,457.29 1361.43,452.32 1361.81,447.34C1362.18,442.37 1362.6,437.39 1362.97,432.42C1363.34,427.44 1363.7,422.47 1364.04,417.49C1364.38,412.51 1364.66,407.54 1365,402.56C1365.34,397.59 1365.65,392.61 1366.08,387.64C1366.51,382.66 1366.95,377.68 1367.58,372.71C1368.21,367.73 1368.94,362.74 1369.86,357.78C1370.79,352.79 1371.89,347.81 1373.14,342.86C1374.4,337.86 1375.88,332.89 1377.42,327.93C1378.97,322.94 1380.74,317.97 1382.42,313C1384.1,308.02 1385.94,303.07 1387.49,298.08C1389.03,293.12 1390.6,288.16 1391.7,283.15C1392.79,278.2 1393.72,273.21 1394.1,268.22C1394.48,263.26 1394.46,258.25 1394,253.3C1393.54,248.3 1392.54,243.31 1391.32,238.37C1390.08,233.35 1388.33,228.39 1386.57,223.45C1384.79,218.44 1382.67,213.49 1380.67,208.52C1378.67,203.54 1376.52,198.58 1374.57,193.59C1372.63,188.63 1370.7,183.67 1368.98,178.67C1367.27,173.72 1365.68,168.74 1364.26,163.74C1362.85,158.78 1361.6,153.8 1360.47,148.81C1359.35,143.85 1358.38,138.87 1357.5,133.89C1356.63,128.92 1355.88,123.94 1355.21,118.96C1354.54,113.99 1353.98,109.01 1353.48,104.03C1352.98,99.06 1352.57,94.09 1352.21,89.11C1351.85,84.14 1351.57,79.16 1351.32,74.18C1351.07,69.2 1350.89,64.23 1350.73,59.25Q1350.57,54.28 1350.37,44.33L1349.63,44.33Q1349.43,54.28 1349.27,59.25C1349.11,64.23 1348.93,69.2 1348.68,74.18C1348.43,79.16 1348.15,84.14 1347.79,89.11C1347.43,94.09 1347.02,99.06 1346.52,104.03C1346.02,109.01 1345.46,113.99 1344.79,118.96C1344.12,123.94 1343.37,128.92 1342.5,133.89C1341.62,138.87 1340.65,143.85 1339.53,148.81C1338.4,153.8 1337.15,158.78 1335.74,163.74C1334.32,168.74 1332.73,173.72 1331.02,178.67C1329.3,183.67 1327.37,188.63 1325.43,193.59C1323.48,198.58 1321.33,203.54 1319.33,208.52C1317.33,213.49 1315.21,218.44 1313.43,223.45C1311.67,228.39 1309.92,233.35 1308.68,238.37C1307.46,243.31 1306.46,248.3 1306,253.3C1305.54,258.25 1305.52,263.26 1305.9,268.22C1306.28,273.21 1307.21,278.2 1308.3,283.15C1309.4,288.16 1310.97,293.12 1312.51,298.08C1314.06,303.07 1315.9,308.02 1317.58,313C1319.26,317.97 1321.03,322.94 1322.58,327.93C1324.12,332.89 1325.6,337.86 1326.86,342.86C1328.11,347.81 1329.21,352.79 1330.14,357.78C1331.06,362.74 1331.79,367.73 1332.42,372.71C1333.05,377.68 1333.49,382.66 1333.92,387.64C1334.35,392.61 1334.66,397.59 1335,402.56C1335.34,407.54 1335.62,412.51 1335.96,417.49C1336.3,422.47 1336.66,427.44 1337.03,432.42C1337.4,437.39 1337.82,442.37 1338.19,447.34C1338.57,452.32 1338.95,457.29 1339.28,462.27C1339.61,467.25 1339.9,472.22 1340.15,477.2C1340.4,482.17 1340.58,487.15 1340.77,492.12C1340.96,497.1 1341.1,502.07 1341.3,507.05C1341.5,512.02 1341.7,517 1341.98,521.97C1342.26,526.95 1342.59,531.93 1342.98,536.9C1343.37,541.88 1343.84,546.86 1344.31,551.83C1344.78,556.81 1345.31,561.78 1345.78,566.75C1346.26,571.73 1346.74,576.7 1347.16,581.68C1347.57,586.65 1347.95,591.63 1348.27,596.61Q1348.58,601.58 1349.05,611.53Z" style="vector-effect: non-scaling-stroke; stroke-width: 0.5px; stroke: rgb(0, 0, 0); stroke-opacity: 1; fill: rgb(202, 43, 4); fill-opacity: 1;"/><path class="box" d="M1338.98,277.07H1361.03M1338.98,361.29H1361.03V242.59H1338.98ZM1350,361.29V520M1350,242.59V135.86" style="vector-effect: non-scaling-stroke; stroke-width: 0.5px; stroke: rgb(0, 0, 0); stroke-opacity: 1; fill: rgb(0, 0, 0); fill-opacity: 0.4;"/><path class="mean" d="M1338.98,304.45H1361.03" style="fill: none; vector-effect: non-scaling-stroke; stroke-width: 0.5px; stroke-dasharray: 1px, 0.5px; stroke: rgb(0, 0, 0); stroke-opacity: 1;"/></g><g class="trace violins" style="opacity: 1;"><path class="violin" d="M1530.68,622.11Q1531.01,611.07 1531.25,605.55C1531.49,600.03 1531.77,594.51 1532.1,588.99C1532.43,583.47 1532.81,577.96 1533.22,572.44C1533.63,566.92 1534.09,561.4 1534.57,555.88C1535.06,550.36 1535.57,544.84 1536.13,539.32C1536.69,533.8 1537.27,528.28 1537.92,522.76C1538.57,517.24 1539.26,511.71 1540.04,506.2C1540.82,500.67 1541.69,495.15 1542.62,489.64C1543.55,484.11 1544.6,478.6 1545.64,473.08C1546.69,467.56 1547.83,462.04 1548.89,456.52C1549.95,451 1551.04,445.49 1552,439.97C1552.96,434.46 1553.86,428.94 1554.65,423.41C1555.44,417.9 1556.11,412.37 1556.76,406.85C1557.4,401.33 1557.94,395.81 1558.52,390.29C1559.1,384.77 1559.63,379.25 1560.24,373.73C1560.85,368.21 1561.49,362.69 1562.17,357.17C1562.85,351.65 1563.57,346.13 1564.3,340.61C1565.03,335.09 1565.79,329.58 1566.53,324.06C1567.27,318.54 1568.02,313.02 1568.72,307.5C1569.42,301.98 1570.12,296.46 1570.75,290.94C1571.38,285.42 1572.01,279.9 1572.51,274.38C1573.01,268.86 1573.49,263.34 1573.75,257.82C1574.01,252.3 1574.19,246.78 1574.1,241.26C1574.01,235.74 1573.75,230.21 1573.2,224.7C1572.65,219.17 1571.84,213.65 1570.8,208.15C1569.75,202.61 1568.4,197.09 1566.92,191.59C1565.42,186.04 1563.65,180.53 1561.85,175.03C1560.04,169.49 1558.01,163.99 1556.07,158.47C1554.12,152.95 1552.08,147.44 1550.18,141.91C1548.29,136.4 1546.41,130.89 1544.72,125.35C1543.05,119.85 1541.47,114.33 1540.09,108.79C1538.72,103.29 1537.52,97.76 1536.48,92.23C1535.45,86.73 1534.61,81.21 1533.89,75.68C1533.17,70.17 1532.64,64.64 1532.18,59.12C1531.72,53.6 1531.41,48.08 1531.14,42.56Q1530.87,37.04 1530.55,26L1529.45,26Q1529.13,37.04 1528.86,42.56C1528.59,48.08 1528.28,53.6 1527.82,59.12C1527.36,64.64 1526.83,70.17 1526.11,75.68C1525.39,81.21 1524.55,86.73 1523.52,92.23C1522.48,97.76 1521.28,103.29 1519.91,108.79C1518.53,114.33 1516.95,119.85 1515.28,125.35C1513.59,130.89 1511.71,136.4 1509.82,141.91C1507.92,147.44 1505.88,152.95 1503.93,158.47C1501.99,163.99 1499.96,169.49 1498.15,175.03C1496.35,180.53 1494.58,186.04 1493.08,191.59C1491.6,197.09 1490.25,202.61 1489.2,208.15C1488.16,213.65 1487.35,219.17 1486.8,224.7C1486.25,230.21 1485.99,235.74 1485.9,241.26C1485.81,246.78 1485.99,252.3 1486.25,257.82C1486.51,263.34 1486.99,268.86 1487.49,274.38C1487.99,279.9 1488.62,285.42 1489.25,290.94C1489.88,296.46 1490.58,301.98 1491.28,307.5C1491.98,313.02 1492.73,318.54 1493.47,324.06C1494.21,329.58 1494.97,335.09 1495.7,340.61C1496.43,346.13 1497.15,351.65 1497.83,357.17C1498.51,362.69 1499.15,368.21 1499.76,373.73C1500.37,379.25 1500.9,384.77 1501.48,390.29C1502.06,395.81 1502.6,401.33 1503.24,406.85C1503.89,412.37 1504.56,417.9 1505.35,423.41C1506.14,428.94 1507.04,434.46 1508,439.97C1508.96,445.49 1510.05,451 1511.11,456.52C1512.17,462.04 1513.31,467.56 1514.36,473.08C1515.4,478.6 1516.45,484.11 1517.38,489.64C1518.31,495.15 1519.18,500.67 1519.96,506.2C1520.74,511.71 1521.43,517.24 1522.08,522.76C1522.73,528.28 1523.31,533.8 1523.87,539.32C1524.43,544.84 1524.94,550.36 1525.43,555.88C1525.91,561.4 1526.37,566.92 1526.78,572.44C1527.19,577.96 1527.57,583.47 1527.9,588.99C1528.23,594.51 1528.51,600.03 1528.75,605.55Q1528.99,611.07 1529.32,622.11Z" style="vector-effect: non-scaling-stroke; stroke-width: 0.5px; stroke: rgb(0, 0, 0); stroke-opacity: 1; fill: rgb(113, 254, 95); fill-opacity: 1;"/><path class="box" d="M1518.98,289.43H1541.03M1518.98,371.05H1541.03V222.09H1518.98ZM1530,371.05V520M1530,222.09V128.11" style="vector-effect: non-scaling-stroke; stroke-width: 0.5px; stroke: rgb(0, 0, 0); stroke-opacity: 1; fill: rgb(0, 0, 0); fill-opacity: 0.4;"/><path class="mean" d="M1518.98,299.26H1541.03" style="fill: none; vector-effect: non-scaling-stroke; stroke-width: 0.5px; stroke-dasharray: 1px, 0.5px; stroke: rgb(0, 0, 0); stroke-opacity: 1;"/></g></g></g><g class="overplot"/><path class="xlines-above crisp" d="M0,0" style="fill: none;"/><path class="ylines-above crisp" d="M0,0" style="fill: none;"/><g class="overlines-above"/><g class="xaxislayer-above"><g class="xtick"><text text-anchor="middle" x="0" y="571.5" transform="translate(130,0)" style="font-family: Arial, Helvetica, sans-serif; font-size: 10.5px; fill: rgb(68, 68, 68); fill-opacity: 1; white-space: pre;">acute_row2_implant</text></g><g class="xtick"><text text-anchor="middle" x="0" y="571.5" transform="translate(310,0)" style="font-family: Arial, Helvetica, sans-serif; font-size: 10.5px; fill: rgb(68, 68, 68); fill-opacity: 1; white-space: pre;">acute_row2_d1</text></g><g class="xtick"><text text-anchor="middle" x="0" y="571.5" transform="translate(490,0)" style="font-family: Arial, Helvetica, sans-serif; font-size: 10.5px; fill: rgb(68, 68, 68); fill-opacity: 1; white-space: pre;">acute_row2_d2</text></g><g class="xtick"><text text-anchor="middle" x="0" y="571.5" transform="translate(670,0)" style="font-family: Arial, Helvetica, sans-serif; font-size: 10.5px; fill: rgb(68, 68, 68); fill-opacity: 1; white-space: pre;">acute_row2_d3</text></g><g class="xtick"><text text-anchor="middle" x="0" y="571.5" transform="translate(850,0)" style="font-family: Arial, Helvetica, sans-serif; font-size: 10.5px; fill: rgb(68, 68, 68); fill-opacity: 1; white-space: pre;">acute_row2_d4</text></g><g class="xtick"><text text-anchor="middle" x="0" y="571.5" transform="translate(1030,0)" style="font-family: Arial, Helvetica, sans-serif; font-size: 10.5px; fill: rgb(68, 68, 68); fill-opacity: 1; white-space: pre;">acute_row2_d5</text></g><g class="xtick"><text text-anchor="middle" x="0" y="571.5" transform="translate(1210,0)" style="font-family: Arial, Helvetica, sans-serif; font-size: 10.5px; fill: rgb(68, 68, 68); fill-opacity: 1; white-space: pre;">acute_row2_d6</text></g><g class="xtick"><text text-anchor="middle" x="0" y="571.5" transform="translate(1390,0)" style="font-family: Arial, Helvetica, sans-serif; font-size: 10.5px; fill: rgb(68, 68, 68); fill-opacity: 1; white-space: pre;">acute_row2_d7</text></g><g class="xtick"><text text-anchor="middle" x="0" y="571.5" transform="translate(1570,0)" style="font-family: Arial, Helvetica, sans-serif; font-size: 10.5px; fill: rgb(68, 68, 68); fill-opacity: 1; white-space: pre;">acute_row2_d8</text></g></g><g class="yaxislayer-above"><g class="ytick"><text text-anchor="end" x="39" y="3.675" transform="translate(0,560)" style="font-family: Arial, Helvetica, sans-serif; font-size: 10.5px; fill: rgb(68, 68, 68); fill-opacity: 1; white-space: pre;">0</text></g><g class="ytick"><text text-anchor="end" x="39" y="3.675" transform="translate(0,466.02)" style="font-family: Arial, Helvetica, sans-serif; font-size: 10.5px; fill: rgb(68, 68, 68); fill-opacity: 1; white-space: pre;">1</text></g><g class="ytick"><text text-anchor="end" x="39" y="3.675" transform="translate(0,372.04)" style="font-family: Arial, Helvetica, sans-serif; font-size: 10.5px; fill: rgb(68, 68, 68); fill-opacity: 1; white-space: pre;">2</text></g><g class="ytick"><text text-anchor="end" x="39" y="3.675" transform="translate(0,278.06)" style="font-family: Arial, Helvetica, sans-serif; font-size: 10.5px; fill: rgb(68, 68, 68); fill-opacity: 1; white-space: pre;">3</text></g><g class="ytick"><text text-anchor="end" x="39" y="3.675" transform="translate(0,184.08)" style="font-family: Arial, Helvetica, sans-serif; font-size: 10.5px; fill: rgb(68, 68, 68); fill-opacity: 1; white-space: pre;">4</text></g><g class="ytick"><text text-anchor="end" x="39" y="3.675" transform="translate(0,90.1)" style="font-family: Arial, Helvetica, sans-serif; font-size: 10.5px; fill: rgb(68, 68, 68); fill-opacity: 1; white-space: pre;">5</text></g></g><g class="overaxes-above"/></g></g><g class="polarlayer"/><g class="ternarylayer"/><g class="geolayer"/><g class="funnelarealayer"/><g class="pielayer"/><g class="treemaplayer"/><g class="sunburstlayer"/><g class="glimages"/><defs id="topdefs-70ed9d"><g class="clips"/></defs><g class="layer-above"><g class="imagelayer"/><g class="shapelayer"><path data-index="0" fill-rule="evenodd" d="M85,372.04L175,372.04" clip-path="url('#clip70ed9dy')" style="opacity: 1; stroke: rgb(49, 19, 62); stroke-opacity: 1; fill: rgb(0, 0, 0); fill-opacity: 0; stroke-width: 2px;"/></g></g><g class="infolayer"><g class="g-gtitle"><text class="gtitle" x="850" y="20" text-anchor="middle" dy="0em" style="font-family: Arial, Helvetica, sans-serif; font-size: 14px; fill: rgb(68, 68, 68); opacity: 1; font-weight: normal; white-space: pre;">Log2 Max Exp - Nrxns (acute_row2)</text></g><g class="g-xtitle"/><g class="g-ytitle"/></g></svg>