<svg class="main-svg" xmlns="http://www.w3.org/2000/svg" xmlns:xlink="http://www.w3.org/1999/xlink" width="1700" height="600" style="" viewBox="0 0 1700 600"><rect x="0" y="0" width="1700" height="600" style="fill: rgb(255, 255, 255); fill-opacity: 1;"/><defs id="defs-43ef24"><g class="clips"><clipPath id="clip43ef24xyplot" class="plotclip"><rect width="1620" height="520"/></clipPath><clipPath class="axesclip" id="clip43ef24x"><rect x="40" y="0" width="1620" height="600"/></clipPath><clipPath class="axesclip" id="clip43ef24y"><rect x="0" y="40" width="1700" height="520"/></clipPath><clipPath class="axesclip" id="clip43ef24xy"><rect x="40" y="40" width="1620" height="520"/></clipPath></g><g class="gradients"/></defs><g class="bglayer"/><g class="layer-below"><g class="imagelayer"/><g class="shapelayer"/></g><g class="cartesianlayer"><g class="subplot xy"><g class="layer-subplot"><g class="shapelayer"/><g class="imagelayer"/></g><g class="gridlayer"><g class="x"/><g class="y"><path class="ygrid crisp" transform="translate(0,490.98)" d="M40,0h1620" style="stroke: rgb(238, 238, 238); stroke-opacity: 1; stroke-width: 1px;"/><path class="ygrid crisp" transform="translate(0,421.97)" d="M40,0h1620" style="stroke: rgb(238, 238, 238); stroke-opacity: 1; stroke-width: 1px;"/><path class="ygrid crisp" transform="translate(0,352.95)" d="M40,0h1620" style="stroke: rgb(238, 238, 238); stroke-opacity: 1; stroke-width: 1px;"/><path class="ygrid crisp" transform="translate(0,283.94)" d="M40,0h1620" style="stroke: rgb(238, 238, 238); stroke-opacity: 1; stroke-width: 1px;"/><path class="ygrid crisp" transform="translate(0,214.92)" d="M40,0h1620" style="stroke: rgb(238, 238, 238); stroke-opacity: 1; stroke-width: 1px;"/><path class="ygrid crisp" transform="translate(0,145.91)" d="M40,0h1620" style="stroke: rgb(238, 238, 238); stroke-opacity: 1; stroke-width: 1px;"/><path class="ygrid crisp" transform="translate(0,76.89)" d="M40,0h1620" style="stroke: rgb(238, 238, 238); stroke-opacity: 1; stroke-width: 1px;"/></g></g><g class="zerolinelayer"><path class="yzl zl crisp" transform="translate(0,560)" d="M40,0h1620" style="stroke: rgb(68, 68, 68); stroke-opacity: 1; stroke-width: 1px;"/></g><path class="xlines-below"/><path class="ylines-below"/><g class="overlines-below"/><g class="xaxislayer-below"/><g class="yaxislayer-below"/><g class="overaxes-below"/><g class="plot" transform="translate(40, 40)" clip-path="url('#clip43ef24xyplot')"><g class="violinlayer mlayer"><g class="trace violins" style="opacity: 0;"><path class="violin" d="M134.1,326.16L45.9,326.16Z" style="vector-effect: non-scaling-stroke; stroke-width: 0.5px; stroke: rgb(0, 0, 0); stroke-opacity: 1; fill: rgb(49, 19, 62); fill-opacity: 1;"/><path class="box" d="M78.97,326.16H101.03M78.97,326.16H101.03V326.16H78.97ZM90,326.16V326.16M90,326.16V326.16" style="vector-effect: non-scaling-stroke; stroke-width: 0.5px; stroke: rgb(0, 0, 0); stroke-opacity: 1; fill: rgb(0, 0, 0); fill-opacity: 0.4;"/><path class="mean" d="M78.97,326.16H101.03" style="fill: none; vector-effect: non-scaling-stroke; stroke-width: 0.5px; stroke-dasharray: 1px, 0.5px; stroke: rgb(0, 0, 0); stroke-opacity: 1;"/></g><g class="trace violins" style="opacity: 1;"><path class="violin" d="M271.64,604.8Q272.48,595.45 273.07,590.79C273.67,586.11 274.39,581.44 275.21,576.78C276.04,572.1 277.01,567.44 278.03,562.78C279.06,558.1 280.21,553.44 281.35,548.77C282.49,544.1 283.7,539.43 284.85,534.76C285.99,530.09 287.14,525.43 288.22,520.76C289.3,516.1 290.31,511.42 291.32,506.75C292.32,502.08 293.26,497.41 294.25,492.74C295.24,488.07 296.21,483.4 297.28,478.74C298.36,474.06 299.49,469.39 300.7,464.73C301.91,460.05 303.24,455.39 304.55,450.72C305.86,446.05 307.31,441.4 308.56,436.72C309.81,432.06 311.11,427.4 312.04,422.71C312.96,418.06 313.79,413.38 314.1,408.7C314.41,404.04 314.4,399.34 313.9,394.69C313.39,390 312.37,385.3 311.03,380.69C309.65,375.96 307.71,371.3 305.69,366.68C303.62,361.96 301.12,357.32 298.72,352.67C296.31,347.99 293.65,343.36 291.25,338.67C288.87,334.02 286.47,329.37 284.4,324.66C282.37,320.03 280.48,315.36 278.91,310.65C277.36,306.02 276.07,301.34 275.01,296.65Q273.96,292.01 272.56,282.64L267.44,282.64Q266.04,292.01 264.99,296.65C263.93,301.34 262.64,306.02 261.09,310.65C259.52,315.36 257.63,320.03 255.6,324.66C253.53,329.37 251.13,334.02 248.75,338.67C246.35,343.36 243.69,347.99 241.28,352.67C238.88,357.32 236.38,361.96 234.31,366.68C232.29,371.3 230.35,375.96 228.97,380.69C227.63,385.3 226.61,390 226.1,394.69C225.6,399.34 225.59,404.04 225.9,408.7C226.21,413.38 227.04,418.06 227.96,422.71C228.89,427.4 230.19,432.06 231.44,436.72C232.69,441.4 234.14,446.05 235.45,450.72C236.76,455.39 238.09,460.05 239.3,464.73C240.51,469.39 241.64,474.06 242.72,478.74C243.79,483.4 244.76,488.07 245.75,492.74C246.74,497.41 247.68,502.08 248.68,506.75C249.69,511.42 250.7,516.1 251.78,520.76C252.86,525.43 254.01,530.09 255.15,534.76C256.3,539.43 257.51,544.1 258.65,548.77C259.79,553.44 260.94,558.1 261.97,562.78C262.99,567.44 263.96,572.1 264.79,576.78C265.61,581.44 266.33,586.11 266.93,590.79Q267.52,595.45 268.36,604.8Z" style="vector-effect: non-scaling-stroke; stroke-width: 0.5px; stroke: rgb(0, 0, 0); stroke-opacity: 1; fill: rgb(200, 239, 52); fill-opacity: 1;"/><path class="box" d="M258.98,414.32H281.02M258.98,468.26H281.02V381.68H258.98ZM270,468.26V520M270,381.68V367.44" style="vector-effect: non-scaling-stroke; stroke-width: 0.5px; stroke: rgb(0, 0, 0); stroke-opacity: 1; fill: rgb(0, 0, 0); fill-opacity: 0.4;"/><path class="mean" d="M258.98,427.67H281.02" style="fill: none; vector-effect: non-scaling-stroke; stroke-width: 0.5px; stroke-dasharray: 1px, 0.5px; stroke: rgb(0, 0, 0); stroke-opacity: 1;"/></g><g class="trace violins" style="opacity: 1;"><path class="violin" d="M451.89,540.87Q452.99,529.3 453.89,523.55C454.79,517.76 455.88,511.98 457.29,506.24C458.71,500.44 460.44,494.66 462.41,488.93C464.41,483.11 466.79,477.35 469.23,471.61C471.7,465.81 474.54,460.08 477.16,454.3C479.78,448.53 482.62,442.8 484.95,436.98C487.24,431.26 489.53,425.5 491.06,419.67C492.56,413.96 493.7,408.15 494.1,402.36C494.5,396.61 494.2,390.78 493.48,385.04C492.75,379.24 491.24,373.47 489.71,367.73C488.16,361.92 486.05,356.18 484.22,350.41C482.4,344.64 480.35,338.9 478.76,333.1C477.18,327.36 475.74,321.58 474.7,315.78C473.67,310.04 473.01,304.25 472.54,298.47C472.07,292.71 472.01,286.93 471.89,281.16C471.77,275.39 471.91,269.61 471.83,263.84C471.75,258.07 471.71,252.3 471.42,246.53C471.13,240.75 470.7,234.97 470.08,229.21C469.46,223.43 468.63,217.66 467.72,211.9C466.81,206.12 465.71,200.36 464.63,194.59C463.55,188.81 462.35,183.05 461.25,177.27C460.15,171.5 459.04,165.74 458.05,159.96C457.07,154.19 456.14,148.42 455.34,142.64C454.54,136.88 453.85,131.11 453.27,125.33C452.69,119.57 452.23,113.79 451.84,108.02Q451.45,102.25 450.94,90.7L449.06,90.7Q448.55,102.25 448.16,108.02C447.77,113.79 447.31,119.57 446.73,125.33C446.15,131.11 445.46,136.88 444.66,142.64C443.86,148.42 442.93,154.19 441.95,159.96C440.96,165.74 439.85,171.5 438.75,177.27C437.65,183.05 436.45,188.81 435.37,194.59C434.29,200.36 433.19,206.12 432.28,211.9C431.37,217.66 430.54,223.43 429.92,229.21C429.3,234.97 428.87,240.75 428.58,246.53C428.29,252.3 428.25,258.07 428.17,263.84C428.09,269.61 428.23,275.39 428.11,281.16C427.99,286.93 427.93,292.71 427.46,298.47C426.99,304.25 426.33,310.04 425.3,315.78C424.26,321.58 422.82,327.36 421.24,333.1C419.65,338.9 417.6,344.64 415.78,350.41C413.95,356.18 411.84,361.92 410.29,367.73C408.76,373.47 407.25,379.24 406.52,385.04C405.8,390.78 405.5,396.61 405.9,402.36C406.3,408.15 407.44,413.96 408.94,419.67C410.47,425.5 412.76,431.26 415.05,436.98C417.38,442.8 420.22,448.53 422.84,454.3C425.46,460.08 428.3,465.81 430.77,471.61C433.21,477.35 435.59,483.11 437.59,488.93C439.56,494.66 441.29,500.44 442.71,506.24C444.12,511.98 445.21,517.76 446.11,523.55Q447.01,529.3 448.11,540.87Z" style="vector-effect: non-scaling-stroke; stroke-width: 0.5px; stroke: rgb(0, 0, 0); stroke-opacity: 1; fill: rgb(70, 98, 215); fill-opacity: 1;"/><path class="box" d="M438.98,380.66H461.03M438.98,405.95H461.03V265.95H438.98ZM450,405.95V436.04M450,265.95V195.53" style="vector-effect: non-scaling-stroke; stroke-width: 0.5px; stroke: rgb(0, 0, 0); stroke-opacity: 1; fill: rgb(0, 0, 0); fill-opacity: 0.4;"/><path class="mean" d="M438.98,346.93H461.03" style="fill: none; vector-effect: non-scaling-stroke; stroke-width: 0.5px; stroke-dasharray: 1px, 0.5px; stroke: rgb(0, 0, 0); stroke-opacity: 1;"/></g><g class="trace violins" style="opacity: 1;"><path class="violin" d="M633.23,610.66Q634.88,600.73 636.04,595.81C637.22,590.84 638.64,585.88 640.26,580.97C641.9,575.99 643.83,571.05 645.84,566.13C647.87,561.15 650.17,556.23 652.37,551.28C654.57,546.33 656.93,541.41 659.03,536.44C661.11,531.52 663.2,526.59 664.94,521.6C666.65,516.69 668.19,511.73 669.41,506.75C670.61,501.83 671.51,496.87 672.21,491.91C672.91,486.98 673.29,482.02 673.61,477.07C673.92,472.13 674.02,467.17 674.1,462.22C674.18,457.27 674.17,452.33 674.1,447.38C674.03,442.43 673.94,437.48 673.7,432.54C673.46,427.59 673.17,422.63 672.65,417.69C672.13,412.73 671.47,407.78 670.59,402.85C669.7,397.89 668.57,392.94 667.35,388.01C666.12,383.04 664.63,378.1 663.22,373.16C661.81,368.21 660.24,363.28 658.89,358.32C657.55,353.38 656.21,348.44 655.15,343.47C654.1,338.54 653.22,333.59 652.56,328.63C651.9,323.7 651.51,318.74 651.18,313.79C650.85,308.85 650.75,303.89 650.57,298.94C650.39,293.99 650.33,289.04 650.1,284.1C649.87,279.15 649.61,274.2 649.19,269.26C648.77,264.31 648.22,259.35 647.56,254.41C646.9,249.45 646.08,244.51 645.23,239.57C644.38,234.62 643.41,229.68 642.47,224.73C641.53,219.78 640.51,214.83 639.58,209.88C638.65,204.94 637.72,199.99 636.89,195.04C636.06,190.1 635.29,185.15 634.62,180.2C633.95,175.26 633.36,170.3 632.86,165.35C632.36,160.41 631.97,155.46 631.63,150.51Q631.3,145.56 630.85,135.66L629.15,135.66Q628.7,145.56 628.37,150.51C628.03,155.46 627.64,160.41 627.14,165.35C626.64,170.3 626.05,175.26 625.38,180.2C624.71,185.15 623.94,190.1 623.11,195.04C622.28,199.99 621.35,204.94 620.42,209.88C619.49,214.83 618.47,219.78 617.53,224.73C616.59,229.68 615.62,234.62 614.77,239.57C613.92,244.51 613.1,249.45 612.44,254.41C611.78,259.35 611.23,264.31 610.81,269.26C610.39,274.2 610.13,279.15 609.9,284.1C609.67,289.04 609.61,293.99 609.43,298.94C609.25,303.89 609.15,308.85 608.82,313.79C608.49,318.74 608.1,323.7 607.44,328.63C606.78,333.59 605.9,338.54 604.85,343.47C603.79,348.44 602.45,353.38 601.11,358.32C599.76,363.28 598.19,368.21 596.78,373.16C595.37,378.1 593.88,383.04 592.65,388.01C591.43,392.94 590.3,397.89 589.41,402.85C588.53,407.78 587.87,412.73 587.35,417.69C586.83,422.63 586.54,427.59 586.3,432.54C586.06,437.48 585.97,442.43 585.9,447.38C585.83,452.33 585.82,457.27 585.9,462.22C585.98,467.17 586.08,472.13 586.39,477.07C586.71,482.02 587.09,486.98 587.79,491.91C588.49,496.87 589.39,501.83 590.59,506.75C591.81,511.73 593.35,516.69 595.06,521.6C596.8,526.59 598.89,531.52 600.97,536.44C603.07,541.41 605.43,546.33 607.63,551.28C609.83,556.23 612.13,561.15 614.16,566.13C616.17,571.05 618.1,575.99 619.74,580.97C621.36,585.88 622.78,590.84 623.96,595.81Q625.12,600.73 626.77,610.66Z" style="vector-effect: non-scaling-stroke; stroke-width: 0.5px; stroke: rgb(0, 0, 0); stroke-opacity: 1; fill: rgb(250, 186, 57); fill-opacity: 1;"/><path class="box" d="M618.98,418.6H641.03M618.98,478.23H641.03V375.3H618.98ZM630,478.23V520M630,375.3V226.32" style="vector-effect: non-scaling-stroke; stroke-width: 0.5px; stroke: rgb(0, 0, 0); stroke-opacity: 1; fill: rgb(0, 0, 0); fill-opacity: 0.4;"/><path class="mean" d="M618.98,412.92H641.03" style="fill: none; vector-effect: non-scaling-stroke; stroke-width: 0.5px; stroke-dasharray: 1px, 0.5px; stroke: rgb(0, 0, 0); stroke-opacity: 1;"/></g><g class="trace violins" style="opacity: 1;"><path class="violin" d="M812.93,603.52Q814.39,594.47 815.4,589.98C816.42,585.45 817.65,580.93 819.04,576.44C820.44,571.9 822.08,567.39 823.77,562.9C825.47,558.37 827.38,553.87 829.2,549.36C831.02,544.84 832.96,540.35 834.71,535.82C836.45,531.32 838.16,526.82 839.67,522.28C841.16,517.79 842.51,513.27 843.71,508.74C844.9,504.25 845.9,499.72 846.84,495.2C847.77,490.7 848.56,486.18 849.31,481.66C850.06,477.15 850.74,472.65 851.35,468.13C851.96,463.62 852.55,459.11 852.99,454.59C853.43,450.08 853.82,445.57 854,441.05C854.18,436.54 854.23,432.02 854.1,427.51C853.97,422.99 853.63,418.48 853.22,413.97C852.8,409.45 852.19,404.94 851.61,400.43C851.03,395.91 850.35,391.4 849.75,386.89C849.16,382.38 848.58,377.87 848.04,373.35C847.5,368.84 847.04,364.32 846.51,359.81C845.98,355.3 845.5,350.78 844.84,346.27C844.18,341.75 843.45,337.23 842.53,332.73C841.6,328.2 840.51,323.68 839.27,319.19C838.02,314.66 836.55,310.15 835.06,305.65C833.56,301.12 831.87,296.62 830.27,292.11C828.66,287.6 826.97,283.09 825.43,278.57C823.9,274.07 822.38,269.56 821.04,265.03C819.71,260.54 818.48,256.03 817.41,251.5C816.35,247 815.44,242.48 814.66,237.96C813.88,233.46 813.26,228.94 812.73,224.42C812.2,219.91 811.81,215.4 811.48,210.88Q811.15,206.37 810.75,197.34L809.25,197.34Q808.85,206.37 808.52,210.88C808.19,215.4 807.8,219.91 807.27,224.42C806.74,228.94 806.12,233.46 805.34,237.96C804.56,242.48 803.65,247 802.59,251.5C801.52,256.03 800.29,260.54 798.96,265.03C797.62,269.56 796.1,274.07 794.57,278.57C793.03,283.09 791.34,287.6 789.73,292.11C788.13,296.62 786.44,301.12 784.94,305.65C783.45,310.15 781.98,314.66 780.73,319.19C779.49,323.68 778.4,328.2 777.47,332.73C776.55,337.23 775.82,341.75 775.16,346.27C774.5,350.78 774.02,355.3 773.49,359.81C772.96,364.32 772.5,368.84 771.96,373.35C771.42,377.87 770.84,382.38 770.25,386.89C769.65,391.4 768.97,395.91 768.39,400.43C767.81,404.94 767.2,409.45 766.78,413.97C766.37,418.48 766.03,422.99 765.9,427.51C765.77,432.02 765.82,436.54 766,441.05C766.18,445.57 766.57,450.08 767.01,454.59C767.45,459.11 768.04,463.62 768.65,468.13C769.26,472.65 769.94,477.15 770.69,481.66C771.44,486.18 772.23,490.7 773.16,495.2C774.1,499.72 775.1,504.25 776.29,508.74C777.49,513.27 778.84,517.79 780.33,522.28C781.84,526.82 783.55,531.32 785.29,535.82C787.04,540.35 788.98,544.84 790.8,549.36C792.62,553.87 794.53,558.37 796.23,562.9C797.92,567.39 799.56,571.9 800.96,576.44C802.35,580.93 803.58,585.45 804.6,589.98Q805.61,594.47 807.07,603.52Z" style="vector-effect: non-scaling-stroke; stroke-width: 0.5px; stroke: rgb(0, 0, 0); stroke-opacity: 1; fill: rgb(54, 169, 249); fill-opacity: 1;"/><path class="box" d="M798.98,416.94H821.03M798.98,474.83H821.03V355.58H798.98ZM810,474.83V520M810,355.58V280.86" style="vector-effect: non-scaling-stroke; stroke-width: 0.5px; stroke: rgb(0, 0, 0); stroke-opacity: 1; fill: rgb(0, 0, 0); fill-opacity: 0.4;"/><path class="mean" d="M798.98,419.13H821.03" style="fill: none; vector-effect: non-scaling-stroke; stroke-width: 0.5px; stroke-dasharray: 1px, 0.5px; stroke: rgb(0, 0, 0); stroke-opacity: 1;"/></g><g class="trace violins" style="opacity: 1;"><path class="violin" d="M992.88,602.92Q994.37,593.75 995.42,589.19C996.48,584.59 997.75,580 999.21,575.45C1000.69,570.84 1002.43,566.26 1004.25,561.71C1006.09,557.11 1008.16,552.55 1010.18,547.98C1012.21,543.39 1014.39,538.83 1016.4,534.24C1018.4,529.67 1020.41,525.11 1022.2,520.5C1023.96,515.95 1025.64,511.38 1027.06,506.77C1028.46,502.22 1029.69,497.63 1030.68,493.03C1031.66,488.47 1032.43,483.89 1032.99,479.3C1033.55,474.73 1033.88,470.14 1034.06,465.56C1034.24,460.98 1034.2,456.4 1034.1,451.82C1034,447.24 1033.72,442.67 1033.44,438.09C1033.16,433.51 1032.78,428.93 1032.43,424.35C1032.08,419.77 1031.72,415.19 1031.33,410.61C1030.94,406.03 1030.57,401.45 1030.08,396.88C1029.59,392.3 1029.09,387.71 1028.38,383.14C1027.67,378.55 1026.85,373.97 1025.82,369.41C1024.78,364.81 1023.55,360.23 1022.16,355.67C1020.76,351.07 1019.12,346.49 1017.45,341.93C1015.76,337.33 1013.88,332.77 1012.07,328.2C1010.26,323.62 1008.34,319.05 1006.59,314.46C1004.85,309.89 1003.11,305.32 1001.58,300.72C1000.07,296.16 998.66,291.59 997.46,286.99C996.27,282.43 995.26,277.84 994.41,273.25C993.57,268.69 992.93,264.11 992.39,259.52C991.85,254.95 991.49,250.36 991.19,245.78C990.89,241.2 990.72,236.62 990.57,232.04C990.43,227.46 990.36,222.89 990.32,218.31C990.28,213.73 990.28,209.15 990.31,204.57C990.34,199.99 990.4,195.41 990.5,190.83C990.59,186.25 990.73,181.68 990.88,177.1C991.04,172.52 991.23,167.94 991.43,163.36C991.63,158.78 991.86,154.21 992.08,149.63C992.3,145.05 992.54,140.47 992.73,135.89C992.92,131.31 993.1,126.73 993.21,122.15C993.32,117.57 993.37,113 993.37,108.42C993.37,103.84 993.29,99.26 993.18,94.68C993.07,90.1 992.88,85.52 992.69,80.94C992.5,76.36 992.25,71.79 992.03,67.21C991.81,62.63 991.58,58.05 991.38,53.47C991.18,48.89 990.99,44.32 990.84,39.74Q990.69,35.16 990.46,26L989.54,26Q989.31,35.16 989.16,39.74C989.01,44.32 988.82,48.89 988.62,53.47C988.42,58.05 988.19,62.63 987.97,67.21C987.75,71.79 987.5,76.36 987.31,80.94C987.12,85.52 986.93,90.1 986.82,94.68C986.71,99.26 986.63,103.84 986.63,108.42C986.63,113 986.68,117.57 986.79,122.15C986.9,126.73 987.08,131.31 987.27,135.89C987.46,140.47 987.7,145.05 987.92,149.63C988.14,154.21 988.37,158.78 988.57,163.36C988.77,167.94 988.96,172.52 989.12,177.1C989.27,181.68 989.41,186.25 989.5,190.83C989.6,195.41 989.66,199.99 989.69,204.57C989.72,209.15 989.72,213.73 989.68,218.31C989.64,222.89 989.57,227.46 989.43,232.04C989.28,236.62 989.11,241.2 988.81,245.78C988.51,250.36 988.15,254.95 987.61,259.52C987.07,264.11 986.43,268.69 985.59,273.25C984.74,277.84 983.73,282.43 982.54,286.99C981.34,291.59 979.93,296.16 978.42,300.72C976.89,305.32 975.15,309.89 973.41,314.46C971.66,319.05 969.74,323.62 967.93,328.2C966.12,332.77 964.24,337.33 962.55,341.93C960.88,346.49 959.24,351.07 957.84,355.67C956.45,360.23 955.22,364.81 954.18,369.41C953.15,373.97 952.33,378.55 951.62,383.14C950.91,387.71 950.41,392.3 949.92,396.88C949.43,401.45 949.06,406.03 948.67,410.61C948.28,415.19 947.92,419.77 947.57,424.35C947.22,428.93 946.84,433.51 946.56,438.09C946.28,442.67 946,447.24 945.9,451.82C945.8,456.4 945.76,460.98 945.94,465.56C946.12,470.14 946.45,474.73 947.01,479.3C947.57,483.89 948.34,488.47 949.32,493.03C950.31,497.63 951.54,502.22 952.94,506.77C954.36,511.38 956.04,515.95 957.8,520.5C959.59,525.11 961.6,529.67 963.6,534.24C965.61,538.83 967.79,543.39 969.82,547.98C971.84,552.55 973.91,557.11 975.75,561.71C977.57,566.26 979.31,570.84 980.79,575.45C982.25,580 983.52,584.59 984.58,589.19Q985.63,593.75 987.12,602.92Z" style="vector-effect: non-scaling-stroke; stroke-width: 0.5px; stroke: rgb(0, 0, 0); stroke-opacity: 1; fill: rgb(246, 106, 25); fill-opacity: 1;"/><path class="box" d="M978.97,444.51H1001.03M978.97,480.36H1001.03V377.51H978.97ZM990,480.36V520M990,377.51V331.79" style="vector-effect: non-scaling-stroke; stroke-width: 0.5px; stroke: rgb(0, 0, 0); stroke-opacity: 1; fill: rgb(0, 0, 0); fill-opacity: 0.4;"/><path class="mean" d="M978.97,424.31H1001.03" style="fill: none; vector-effect: non-scaling-stroke; stroke-width: 0.5px; stroke-dasharray: 1px, 0.5px; stroke: rgb(0, 0, 0); stroke-opacity: 1;"/></g><g class="trace violins" style="opacity: 1;"><path class="violin" d="M1172.67,605.02Q1174.04,595.69 1175.01,591.05C1175.99,586.37 1177.17,581.71 1178.54,577.08C1179.92,572.4 1181.55,567.74 1183.27,563.11C1185.01,558.43 1186.97,553.79 1188.91,549.14C1190.86,544.47 1192.96,539.84 1194.92,535.17C1196.87,530.52 1198.86,525.88 1200.65,521.2C1202.42,516.57 1204.12,511.91 1205.59,507.23C1207.05,502.6 1208.36,497.93 1209.45,493.25C1210.53,488.61 1211.43,483.95 1212.13,479.28C1212.83,474.64 1213.33,469.97 1213.66,465.31C1213.99,460.66 1214.12,456 1214.1,451.34C1214.08,446.68 1213.87,442.02 1213.54,437.37C1213.21,432.71 1212.7,428.05 1212.11,423.4C1211.52,418.74 1210.78,414.08 1209.99,409.43C1209.2,404.77 1208.29,400.11 1207.36,395.46C1206.43,390.8 1205.41,386.14 1204.39,381.49C1203.37,376.83 1202.29,372.18 1201.22,367.52C1200.15,362.86 1199.06,358.21 1197.99,353.55C1196.92,348.89 1195.85,344.24 1194.81,339.58C1193.77,334.92 1192.74,330.26 1191.75,325.6C1190.76,320.95 1189.79,316.29 1188.85,311.63C1187.91,306.98 1187,302.32 1186.12,297.66C1185.24,293.01 1184.37,288.35 1183.55,283.69C1182.73,279.04 1181.93,274.38 1181.19,269.72C1180.45,265.07 1179.74,260.41 1179.09,255.75C1178.44,251.1 1177.84,246.44 1177.31,241.78C1176.78,237.13 1176.31,232.47 1175.91,227.81C1175.51,223.16 1175.18,218.5 1174.91,213.84C1174.64,209.19 1174.46,204.53 1174.3,199.87C1174.14,195.21 1174.06,190.56 1173.97,185.9C1173.88,181.24 1173.83,176.59 1173.75,171.93C1173.67,167.27 1173.6,162.61 1173.49,157.95C1173.38,153.29 1173.24,148.64 1173.08,143.98C1172.92,139.32 1172.71,134.67 1172.51,130.01C1172.31,125.35 1172.08,120.7 1171.87,116.04C1171.66,111.38 1171.45,106.73 1171.26,102.07C1171.08,97.41 1170.9,92.76 1170.76,88.1Q1170.62,83.44 1170.42,74.13L1169.58,74.13Q1169.38,83.44 1169.24,88.1C1169.1,92.76 1168.92,97.41 1168.74,102.07C1168.55,106.73 1168.34,111.38 1168.13,116.04C1167.92,120.7 1167.69,125.35 1167.49,130.01C1167.29,134.67 1167.08,139.32 1166.92,143.98C1166.76,148.64 1166.62,153.29 1166.51,157.95C1166.4,162.61 1166.33,167.27 1166.25,171.93C1166.17,176.59 1166.12,181.24 1166.03,185.9C1165.94,190.56 1165.86,195.21 1165.7,199.87C1165.54,204.53 1165.36,209.19 1165.09,213.84C1164.82,218.5 1164.49,223.16 1164.09,227.81C1163.69,232.47 1163.22,237.13 1162.69,241.78C1162.16,246.44 1161.56,251.1 1160.91,255.75C1160.26,260.41 1159.55,265.07 1158.81,269.72C1158.07,274.38 1157.27,279.04 1156.45,283.69C1155.63,288.35 1154.76,293.01 1153.88,297.66C1153,302.32 1152.09,306.98 1151.15,311.63C1150.21,316.29 1149.24,320.95 1148.25,325.6C1147.26,330.26 1146.23,334.92 1145.19,339.58C1144.15,344.24 1143.08,348.89 1142.01,353.55C1140.94,358.21 1139.85,362.86 1138.78,367.52C1137.71,372.18 1136.63,376.83 1135.61,381.49C1134.59,386.14 1133.57,390.8 1132.64,395.46C1131.71,400.11 1130.8,404.77 1130.01,409.43C1129.22,414.08 1128.48,418.74 1127.89,423.4C1127.3,428.05 1126.79,432.71 1126.46,437.37C1126.13,442.02 1125.92,446.68 1125.9,451.34C1125.88,456 1126.01,460.66 1126.34,465.31C1126.67,469.97 1127.17,474.64 1127.87,479.28C1128.57,483.95 1129.47,488.61 1130.55,493.25C1131.64,497.93 1132.95,502.6 1134.41,507.23C1135.88,511.91 1137.58,516.57 1139.35,521.2C1141.14,525.88 1143.13,530.52 1145.08,535.17C1147.04,539.84 1149.14,544.47 1151.09,549.14C1153.03,553.79 1154.99,558.43 1156.73,563.11C1158.45,567.74 1160.08,572.4 1161.46,577.08C1162.83,581.71 1164.01,586.37 1164.99,591.05Q1165.96,595.69 1167.33,605.02Z" style="vector-effect: non-scaling-stroke; stroke-width: 0.5px; stroke: rgb(0, 0, 0); stroke-opacity: 1; fill: rgb(26, 228, 182); fill-opacity: 1;"/><path class="box" d="M1158.97,434.6H1181.03M1158.97,474.94H1181.03V367.32H1158.97ZM1170,474.94V520M1170,367.32V244.91" style="vector-effect: non-scaling-stroke; stroke-width: 0.5px; stroke: rgb(0, 0, 0); stroke-opacity: 1; fill: rgb(0, 0, 0); fill-opacity: 0.4;"/><path class="mean" d="M1158.97,415.48H1181.03" style="fill: none; vector-effect: non-scaling-stroke; stroke-width: 0.5px; stroke-dasharray: 1px, 0.5px; stroke: rgb(0, 0, 0); stroke-opacity: 1;"/></g><g class="trace violins" style="opacity: 1;"><path class="violin" d="M1354.27,605.37Q1356.42,596.12 1357.89,591.55C1359.39,586.9 1361.2,582.29 1363.21,577.73C1365.26,573.08 1367.66,568.49 1370.08,563.92C1372.53,559.28 1375.29,554.72 1377.82,550.1C1380.34,545.5 1383.02,540.94 1385.24,536.28C1387.41,531.73 1389.53,527.13 1391.01,522.46C1392.45,517.92 1393.58,513.27 1394.09,508.64C1394.6,504.06 1394.54,499.41 1394.1,494.82C1393.66,490.19 1392.59,485.57 1391.42,481C1390.23,476.36 1388.56,471.77 1387.01,467.18C1385.45,462.56 1383.64,457.98 1382.1,453.36C1380.57,448.77 1379.02,444.18 1377.78,439.55C1376.56,434.97 1375.5,430.36 1374.7,425.73C1373.9,421.14 1373.38,416.52 1372.97,411.91C1372.56,407.31 1372.42,402.7 1372.23,398.09C1372.05,393.48 1372.01,388.88 1371.86,384.27C1371.71,379.66 1371.58,375.05 1371.33,370.45C1371.08,365.84 1370.76,361.23 1370.37,356.63C1369.98,352.02 1369.48,347.41 1368.97,342.81C1368.46,338.2 1367.88,333.59 1367.3,328.99C1366.72,324.38 1366.11,319.78 1365.51,315.18C1364.91,310.57 1364.3,305.97 1363.69,301.36C1363.08,296.75 1362.48,292.15 1361.86,287.54C1361.24,282.93 1360.61,278.33 1359.98,273.72C1359.34,269.11 1358.69,264.51 1358.05,259.9C1357.41,255.29 1356.75,250.69 1356.14,246.08C1355.53,241.48 1354.93,236.87 1354.39,232.26C1353.85,227.66 1353.35,223.05 1352.91,218.44C1352.48,213.84 1352.1,209.23 1351.78,204.62C1351.46,200.02 1351.2,195.42 1350.99,190.81Q1350.78,186.21 1350.51,176.99L1349.49,176.99Q1349.22,186.21 1349.01,190.81C1348.8,195.42 1348.54,200.02 1348.22,204.62C1347.9,209.23 1347.52,213.84 1347.09,218.44C1346.65,223.05 1346.15,227.66 1345.61,232.26C1345.07,236.87 1344.47,241.48 1343.86,246.08C1343.25,250.69 1342.59,255.29 1341.95,259.9C1341.31,264.51 1340.66,269.11 1340.02,273.72C1339.39,278.33 1338.76,282.93 1338.14,287.54C1337.52,292.15 1336.92,296.75 1336.31,301.36C1335.7,305.97 1335.09,310.57 1334.49,315.18C1333.89,319.78 1333.28,324.38 1332.7,328.99C1332.12,333.59 1331.54,338.2 1331.03,342.81C1330.52,347.41 1330.02,352.02 1329.63,356.63C1329.24,361.23 1328.92,365.84 1328.67,370.45C1328.42,375.05 1328.29,379.66 1328.14,384.27C1327.99,388.88 1327.95,393.48 1327.77,398.09C1327.58,402.7 1327.44,407.31 1327.03,411.91C1326.62,416.52 1326.1,421.14 1325.3,425.73C1324.5,430.36 1323.44,434.97 1322.22,439.55C1320.98,444.18 1319.43,448.77 1317.9,453.36C1316.36,457.98 1314.55,462.56 1312.99,467.18C1311.44,471.77 1309.77,476.36 1308.58,481C1307.41,485.57 1306.34,490.19 1305.9,494.82C1305.46,499.41 1305.4,504.06 1305.91,508.64C1306.42,513.27 1307.55,517.92 1308.99,522.46C1310.47,527.13 1312.59,531.73 1314.76,536.28C1316.98,540.94 1319.66,545.5 1322.18,550.1C1324.71,554.72 1327.47,559.28 1329.92,563.92C1332.34,568.49 1334.74,573.08 1336.79,577.73C1338.8,582.29 1340.61,586.9 1342.11,591.55Q1343.58,596.12 1345.73,605.37Z" style="vector-effect: non-scaling-stroke; stroke-width: 0.5px; stroke: rgb(0, 0, 0); stroke-opacity: 1; fill: rgb(202, 43, 4); fill-opacity: 1;"/><path class="box" d="M1338.98,476.94H1361.03M1338.98,520H1361.03V382.28H1338.98ZM1350,520V520M1350,382.28V262.36" style="vector-effect: non-scaling-stroke; stroke-width: 0.5px; stroke: rgb(0, 0, 0); stroke-opacity: 1; fill: rgb(0, 0, 0); fill-opacity: 0.4;"/><path class="mean" d="M1338.98,444.45H1361.03" style="fill: none; vector-effect: non-scaling-stroke; stroke-width: 0.5px; stroke-dasharray: 1px, 0.5px; stroke: rgb(0, 0, 0); stroke-opacity: 1;"/></g><g class="trace violins" style="opacity: 1;"><path class="violin" d="M1535.01,591.64Q1537.58,583.64 1539.28,579.72C1541.04,575.69 1543.17,571.71 1545.44,567.79C1547.77,563.76 1550.5,559.83 1553.12,555.87C1555.76,551.88 1558.68,547.97 1561.22,543.95C1563.71,540.01 1566.28,536.08 1568.22,532.02C1570.08,528.12 1571.75,524.14 1572.73,520.1C1573.68,516.18 1574.11,512.15 1574.1,508.17C1574.09,504.2 1573.44,500.2 1572.7,496.25C1571.96,492.25 1570.73,488.29 1569.64,484.32C1568.54,480.34 1567.24,476.38 1566.12,472.4C1565.01,468.43 1563.92,464.46 1562.96,460.47C1562.01,456.51 1561.18,452.53 1560.39,448.55C1559.6,444.58 1558.92,440.61 1558.2,436.63C1557.48,432.66 1556.81,428.67 1556.08,424.7C1555.34,420.72 1554.58,416.75 1553.79,412.78C1552.99,408.8 1552.15,404.82 1551.31,400.85C1550.46,396.87 1549.58,392.9 1548.72,388.93C1547.86,384.95 1546.98,380.98 1546.16,377C1545.34,373.03 1544.53,369.06 1543.78,365.08C1543.03,361.11 1542.31,357.13 1541.65,353.15C1540.99,349.18 1540.38,345.21 1539.8,341.23C1539.22,337.26 1538.7,333.29 1538.19,329.31C1537.69,325.34 1537.22,321.36 1536.77,317.38C1536.32,313.41 1535.9,309.44 1535.49,305.46C1535.08,301.49 1534.69,297.51 1534.33,293.53C1533.97,289.56 1533.64,285.59 1533.35,281.61C1533.07,277.64 1532.82,273.66 1532.62,269.68C1532.42,265.71 1532.27,261.73 1532.17,257.76C1532.07,253.78 1532.03,249.81 1532.01,245.83C1531.99,241.86 1532.02,237.88 1532.04,233.91C1532.06,229.94 1532.11,225.96 1532.12,221.99C1532.13,218.01 1532.15,214.04 1532.12,210.06C1532.09,206.09 1532.04,202.11 1531.96,198.14C1531.88,194.16 1531.76,190.19 1531.64,186.21C1531.52,182.24 1531.37,178.26 1531.24,174.29C1531.11,170.31 1530.96,166.34 1530.84,162.36C1530.72,158.39 1530.6,154.41 1530.51,150.44Q1530.42,146.46 1530.28,138.51L1529.72,138.51Q1529.58,146.46 1529.49,150.44C1529.4,154.41 1529.28,158.39 1529.16,162.36C1529.04,166.34 1528.89,170.31 1528.76,174.29C1528.63,178.26 1528.48,182.24 1528.36,186.21C1528.24,190.19 1528.12,194.16 1528.04,198.14C1527.96,202.11 1527.91,206.09 1527.88,210.06C1527.85,214.04 1527.87,218.01 1527.88,221.99C1527.89,225.96 1527.94,229.94 1527.96,233.91C1527.98,237.88 1528.01,241.86 1527.99,245.83C1527.97,249.81 1527.93,253.78 1527.83,257.76C1527.73,261.73 1527.58,265.71 1527.38,269.68C1527.18,273.66 1526.93,277.64 1526.65,281.61C1526.36,285.59 1526.03,289.56 1525.67,293.53C1525.31,297.51 1524.92,301.49 1524.51,305.46C1524.1,309.44 1523.68,313.41 1523.23,317.38C1522.78,321.36 1522.31,325.34 1521.81,329.31C1521.3,333.29 1520.78,337.26 1520.2,341.23C1519.62,345.21 1519.01,349.18 1518.35,353.15C1517.69,357.13 1516.97,361.11 1516.22,365.08C1515.47,369.06 1514.66,373.03 1513.84,377C1513.02,380.98 1512.14,384.95 1511.28,388.93C1510.42,392.9 1509.54,396.87 1508.69,400.85C1507.85,404.82 1507.01,408.8 1506.21,412.78C1505.42,416.75 1504.66,420.72 1503.92,424.7C1503.19,428.67 1502.52,432.66 1501.8,436.63C1501.08,440.61 1500.4,444.58 1499.61,448.55C1498.82,452.53 1497.99,456.51 1497.04,460.47C1496.08,464.46 1494.99,468.43 1493.88,472.4C1492.76,476.38 1491.46,480.34 1490.36,484.32C1489.27,488.29 1488.04,492.25 1487.3,496.25C1486.56,500.2 1485.91,504.2 1485.9,508.17C1485.89,512.15 1486.32,516.18 1487.27,520.1C1488.25,524.14 1489.92,528.12 1491.78,532.02C1493.72,536.08 1496.29,540.01 1498.78,543.95C1501.32,547.97 1504.24,551.88 1506.88,555.87C1509.5,559.83 1512.23,563.76 1514.56,567.79C1516.83,571.71 1518.96,575.69 1520.72,579.72Q1522.42,583.64 1524.99,591.64Z" style="vector-effect: non-scaling-stroke; stroke-width: 0.5px; stroke: rgb(0, 0, 0); stroke-opacity: 1; fill: rgb(113, 254, 95); fill-opacity: 1;"/><path class="box" d="M1518.98,476.24H1541.03M1518.98,520H1541.03V424.57H1518.98ZM1530,520V520M1530,424.57V301.87" style="vector-effect: non-scaling-stroke; stroke-width: 0.5px; stroke: rgb(0, 0, 0); stroke-opacity: 1; fill: rgb(0, 0, 0); fill-opacity: 0.4;"/><path class="mean" d="M1518.98,459.44H1541.03" style="fill: none; vector-effect: non-scaling-stroke; stroke-width: 0.5px; stroke-dasharray: 1px, 0.5px; stroke: rgb(0, 0, 0); stroke-opacity: 1;"/></g></g></g><g class="overplot"/><path class="xlines-above crisp" d="M0,0" style="fill: none;"/><path class="ylines-above crisp" d="M0,0" style="fill: none;"/><g class="overlines-above"/><g class="xaxislayer-above"><g class="xtick"><text text-anchor="middle" x="0" y="571.5" transform="translate(130,0)" style="font-family: Arial, Helvetica, sans-serif; font-size: 10.5px; fill: rgb(68, 68, 68); fill-opacity: 1; white-space: pre;">acute_row2_implant</text></g><g class="xtick"><text text-anchor="middle" x="0" y="571.5" transform="translate(310,0)" style="font-family: Arial, Helvetica, sans-serif; font-size: 10.5px; fill: rgb(68, 68, 68); fill-opacity: 1; white-space: pre;">acute_row2_d1</text></g><g class="xtick"><text text-anchor="middle" x="0" y="571.5" transform="translate(490,0)" style="font-family: Arial, Helvetica, sans-serif; font-size: 10.5px; fill: rgb(68, 68, 68); fill-opacity: 1; white-space: pre;">acute_row2_d2</text></g><g class="xtick"><text text-anchor="middle" x="0" y="571.5" transform="translate(670,0)" style="font-family: Arial, Helvetica, sans-serif; font-size: 10.5px; fill: rgb(68, 68, 68); fill-opacity: 1; white-space: pre;">acute_row2_d3</text></g><g class="xtick"><text text-anchor="middle" x="0" y="571.5" transform="translate(850,0)" style="font-family: Arial, Helvetica, sans-serif; font-size: 10.5px; fill: rgb(68, 68, 68); fill-opacity: 1; white-space: pre;">acute_row2_d4</text></g><g class="xtick"><text text-anchor="middle" x="0" y="571.5" transform="translate(1030,0)" style="font-family: Arial, Helvetica, sans-serif; font-size: 10.5px; fill: rgb(68, 68, 68); fill-opacity: 1; white-space: pre;">acute_row2_d5</text></g><g class="xtick"><text text-anchor="middle" x="0" y="571.5" transform="translate(1210,0)" style="font-family: Arial, Helvetica, sans-serif; font-size: 10.5px; fill: rgb(68, 68, 68); fill-opacity: 1; white-space: pre;">acute_row2_d6</text></g><g class="xtick"><text text-anchor="middle" x="0" y="571.5" transform="translate(1390,0)" style="font-family: Arial, Helvetica, sans-serif; font-size: 10.5px; fill: rgb(68, 68, 68); fill-opacity: 1; white-space: pre;">acute_row2_d7</text></g><g class="xtick"><text text-anchor="middle" x="0" y="571.5" transform="translate(1570,0)" style="font-family: Arial, Helvetica, sans-serif; font-size: 10.5px; fill: rgb(68, 68, 68); fill-opacity: 1; white-space: pre;">acute_row2_d8</text></g></g><g class="yaxislayer-above"><g class="ytick"><text text-anchor="end" x="39" y="3.675" transform="translate(0,560)" style="font-family: Arial, Helvetica, sans-serif; font-size: 10.5px; fill: rgb(68, 68, 68); fill-opacity: 1; white-space: pre;">0</text></g><g class="ytick"><text text-anchor="end" x="39" y="3.675" transform="translate(0,490.98)" style="font-family: Arial, Helvetica, sans-serif; font-size: 10.5px; fill: rgb(68, 68, 68); fill-opacity: 1; white-space: pre;">0.5</text></g><g class="ytick"><text text-anchor="end" x="39" y="3.675" transform="translate(0,421.97)" style="font-family: Arial, Helvetica, sans-serif; font-size: 10.5px; fill: rgb(68, 68, 68); fill-opacity: 1; white-space: pre;">1</text></g><g class="ytick"><text text-anchor="end" x="39" y="3.675" transform="translate(0,352.95)" style="font-family: Arial, Helvetica, sans-serif; font-size: 10.5px; fill: rgb(68, 68, 68); fill-opacity: 1; white-space: pre;">1.5</text></g><g class="ytick"><text text-anchor="end" x="39" y="3.675" transform="translate(0,283.94)" style="font-family: Arial, Helvetica, sans-serif; font-size: 10.5px; fill: rgb(68, 68, 68); fill-opacity: 1; white-space: pre;">2</text></g><g class="ytick"><text text-anchor="end" x="39" y="3.675" transform="translate(0,214.92)" style="font-family: Arial, Helvetica, sans-serif; font-size: 10.5px; fill: rgb(68, 68, 68); fill-opacity: 1; white-space: pre;">2.5</text></g><g class="ytick"><text text-anchor="end" x="39" y="3.675" transform="translate(0,145.91)" style="font-family: Arial, Helvetica, sans-serif; font-size: 10.5px; fill: rgb(68, 68, 68); fill-opacity: 1; white-space: pre;">3</text></g><g class="ytick"><text text-anchor="end" x="39" y="3.675" transform="translate(0,76.89)" style="font-family: Arial, Helvetica, sans-serif; font-size: 10.5px; fill: rgb(68, 68, 68); fill-opacity: 1; white-space: pre;">3.5</text></g></g><g class="overaxes-above"/></g></g><g class="polarlayer"/><g class="ternarylayer"/><g class="geolayer"/><g class="funnelarealayer"/><g class="pielayer"/><g class="treemaplayer"/><g class="sunburstlayer"/><g class="glimages"/><defs id="topdefs-43ef24"><g class="clips"/></defs><g class="layer-above"><g class="imagelayer"/><g class="shapelayer"><path data-index="0" fill-rule="evenodd" d="M85,366.16L175,366.16" clip-path="url('#clip43ef24y')" style="opacity: 1; stroke: rgb(49, 19, 62); stroke-opacity: 1; fill: rgb(0, 0, 0); fill-opacity: 0; stroke-width: 2px;"/></g></g><g class="infolayer"><g class="g-gtitle"><text class="gtitle" x="850" y="20" text-anchor="middle" dy="0em" style="font-family: Arial, Helvetica, sans-serif; font-size: 14px; fill: rgb(68, 68, 68); opacity: 1; font-weight: normal; white-space: pre;">Log Normalized Exp - Il1b (acute_row2)</text></g><g class="g-xtitle"/><g class="g-ytitle"/></g></svg>