<svg class="main-svg" xmlns="http://www.w3.org/2000/svg" xmlns:xlink="http://www.w3.org/1999/xlink" width="1700" height="600" style="" viewBox="0 0 1700 600"><rect x="0" y="0" width="1700" height="600" style="fill: rgb(255, 255, 255); fill-opacity: 1;"/><defs id="defs-644349"><g class="clips"><clipPath id="clip644349xyplot" class="plotclip"><rect width="1620" height="520"/></clipPath><clipPath class="axesclip" id="clip644349x"><rect x="40" y="0" width="1620" height="600"/></clipPath><clipPath class="axesclip" id="clip644349y"><rect x="0" y="40" width="1700" height="520"/></clipPath><clipPath class="axesclip" id="clip644349xy"><rect x="40" y="40" width="1620" height="520"/></clipPath></g><g class="gradients"/></defs><g class="bglayer"/><g class="layer-below"><g class="imagelayer"/><g class="shapelayer"/></g><g class="cartesianlayer"><g class="subplot xy"><g class="layer-subplot"><g class="shapelayer"/><g class="imagelayer"/></g><g class="gridlayer"><g class="x"/><g class="y"><path class="ygrid crisp" transform="translate(0,500.98)" d="M40,0h1620" style="stroke: rgb(238, 238, 238); stroke-opacity: 1; stroke-width: 1px;"/><path class="ygrid crisp" transform="translate(0,441.95)" d="M40,0h1620" style="stroke: rgb(238, 238, 238); stroke-opacity: 1; stroke-width: 1px;"/><path class="ygrid crisp" transform="translate(0,382.93)" d="M40,0h1620" style="stroke: rgb(238, 238, 238); stroke-opacity: 1; stroke-width: 1px;"/><path class="ygrid crisp" transform="translate(0,323.9)" d="M40,0h1620" style="stroke: rgb(238, 238, 238); stroke-opacity: 1; stroke-width: 1px;"/><path class="ygrid crisp" transform="translate(0,264.88)" d="M40,0h1620" style="stroke: rgb(238, 238, 238); stroke-opacity: 1; stroke-width: 1px;"/><path class="ygrid crisp" transform="translate(0,205.85)" d="M40,0h1620" style="stroke: rgb(238, 238, 238); stroke-opacity: 1; stroke-width: 1px;"/><path class="ygrid crisp" transform="translate(0,146.82999999999998)" d="M40,0h1620" style="stroke: rgb(238, 238, 238); stroke-opacity: 1; stroke-width: 1px;"/><path class="ygrid crisp" transform="translate(0,87.8)" d="M40,0h1620" style="stroke: rgb(238, 238, 238); stroke-opacity: 1; stroke-width: 1px;"/></g></g><g class="zerolinelayer"><path class="yzl zl crisp" transform="translate(0,560)" d="M40,0h1620" style="stroke: rgb(68, 68, 68); stroke-opacity: 1; stroke-width: 1px;"/></g><path class="xlines-below"/><path class="ylines-below"/><g class="overlines-below"/><g class="xaxislayer-below"/><g class="yaxislayer-below"/><g class="overaxes-below"/><g class="plot" transform="translate(40, 40)" clip-path="url('#clip644349xyplot')"><g class="violinlayer mlayer"><g class="trace violins" style="opacity: 0;"><path class="violin" d="M134.1,287.85L45.9,287.85Z" style="vector-effect: non-scaling-stroke; stroke-width: 0.5px; stroke: rgb(0, 0, 0); stroke-opacity: 1; fill: rgb(49, 19, 62); fill-opacity: 1;"/><path class="box" d="M78.97,287.85H101.03M78.97,287.85H101.03V287.85H78.97ZM90,287.85V287.85M90,287.85V287.85" style="vector-effect: non-scaling-stroke; stroke-width: 0.5px; stroke: rgb(0, 0, 0); stroke-opacity: 1; fill: rgb(0, 0, 0); fill-opacity: 0.4;"/><path class="mean" d="M78.97,287.85H101.03" style="fill: none; vector-effect: non-scaling-stroke; stroke-width: 0.5px; stroke-dasharray: 1px, 0.5px; stroke: rgb(0, 0, 0); stroke-opacity: 1;"/></g><g class="trace violins" style="opacity: 1;"><path class="violin" d="M271.84,522.8Q272.77,511.85 273.45,506.39C274.13,500.91 274.94,495.44 275.9,489.98C276.87,484.5 278.01,479.03 279.24,473.58C280.48,468.1 281.89,462.63 283.31,457.17C284.73,451.69 286.29,446.23 287.75,440.76C289.21,435.29 290.72,429.84 292.09,424.36C293.45,418.9 294.76,413.43 295.93,407.95C297.1,402.49 298.14,397.03 299.1,391.55C300.06,386.09 300.87,380.61 301.69,375.14C302.51,369.67 303.22,364.2 304.01,358.73C304.8,353.26 305.59,347.79 306.44,342.33C307.29,336.86 308.23,331.39 309.13,325.92C310.03,320.45 311.04,314.99 311.82,309.51C312.59,304.05 313.41,298.59 313.79,293.11C314.17,287.65 314.4,282.16 314.1,276.7C313.8,271.22 313.1,265.72 311.97,260.29C310.82,254.78 309.13,249.31 307.24,243.89C305.32,238.37 302.88,232.92 300.51,227.48C298.11,221.98 295.4,216.55 292.93,211.07C290.47,205.61 287.93,200.18 285.73,194.67C283.56,189.24 281.53,183.77 279.83,178.26C278.16,172.83 276.75,167.35 275.59,161.86Q274.44,156.42 272.88,145.45L267.12,145.45Q265.56,156.42 264.41,161.86C263.25,167.35 261.84,172.83 260.17,178.26C258.47,183.77 256.44,189.24 254.27,194.67C252.07,200.18 249.53,205.61 247.07,211.07C244.6,216.55 241.89,221.98 239.49,227.48C237.12,232.92 234.68,238.37 232.76,243.89C230.87,249.31 229.18,254.78 228.03,260.29C226.9,265.72 226.2,271.22 225.9,276.7C225.6,282.16 225.83,287.65 226.21,293.11C226.59,298.59 227.41,304.05 228.18,309.51C228.96,314.99 229.97,320.45 230.87,325.92C231.77,331.39 232.71,336.86 233.56,342.33C234.41,347.79 235.2,353.26 235.99,358.73C236.78,364.2 237.49,369.67 238.31,375.14C239.13,380.61 239.94,386.09 240.9,391.55C241.86,397.03 242.9,402.49 244.07,407.95C245.24,413.43 246.55,418.9 247.91,424.36C249.28,429.84 250.79,435.29 252.25,440.76C253.71,446.23 255.27,451.69 256.69,457.17C258.11,462.63 259.52,468.1 260.76,473.58C261.99,479.03 263.13,484.5 264.1,489.98C265.06,495.44 265.87,500.91 266.55,506.39Q267.23,511.85 268.16,522.8Z" style="vector-effect: non-scaling-stroke; stroke-width: 0.5px; stroke: rgb(0, 0, 0); stroke-opacity: 1; fill: rgb(200, 239, 52); fill-opacity: 1;"/><path class="box" d="M258.98,299.12H281.02M258.98,374.7H281.02V269.8H258.98ZM270,374.7V421.18M270,269.8V247.07" style="vector-effect: non-scaling-stroke; stroke-width: 0.5px; stroke: rgb(0, 0, 0); stroke-opacity: 1; fill: rgb(0, 0, 0); fill-opacity: 0.4;"/><path class="mean" d="M258.98,318.5H281.02" style="fill: none; vector-effect: non-scaling-stroke; stroke-width: 0.5px; stroke-dasharray: 1px, 0.5px; stroke: rgb(0, 0, 0); stroke-opacity: 1;"/></g><g class="trace violins" style="opacity: 1;"><path class="violin" d="M451.69,473.53Q452.58,464.63 453.21,460.2C453.85,455.75 454.62,451.3 455.51,446.87C456.41,442.41 457.47,437.96 458.6,433.53C459.73,429.07 461.02,424.64 462.29,420.2C463.57,415.75 464.94,411.31 466.26,406.87C467.58,402.42 468.91,397.98 470.21,393.53C471.51,389.09 472.76,384.64 474.04,380.2C475.31,375.76 476.56,371.31 477.86,366.87C479.16,362.42 480.49,357.97 481.82,353.53C483.16,349.08 484.57,344.65 485.87,340.2C487.17,335.76 488.52,331.33 489.63,326.87C490.74,322.44 491.8,317.99 492.54,313.53C493.28,309.1 493.82,304.65 494.08,300.2C494.34,295.76 494.3,291.31 494.1,286.87C493.9,282.42 493.4,277.98 492.85,273.54C492.29,269.09 491.55,264.64 490.77,260.2C489.99,255.75 489.1,251.31 488.15,246.87C487.2,242.42 486.19,237.97 485.05,233.54C483.91,229.08 482.67,224.63 481.31,220.2C479.94,215.74 478.42,211.3 476.84,206.87C475.25,202.41 473.5,197.98 471.79,193.54C470.08,189.09 468.27,184.66 466.59,180.2C464.92,175.77 463.23,171.33 461.74,166.87C460.26,162.45 458.87,158.01 457.68,153.54C456.5,149.11 455.49,144.66 454.63,140.2C453.78,135.77 453.12,131.32 452.56,126.87Q452,122.43 451.29,113.54L448.71,113.54Q448,122.43 447.44,126.87C446.88,131.32 446.22,135.77 445.37,140.2C444.51,144.66 443.5,149.11 442.32,153.54C441.13,158.01 439.74,162.45 438.26,166.87C436.77,171.33 435.08,175.77 433.41,180.2C431.73,184.66 429.92,189.09 428.21,193.54C426.5,197.98 424.75,202.41 423.16,206.87C421.58,211.3 420.06,215.74 418.69,220.2C417.33,224.63 416.09,229.08 414.95,233.54C413.81,237.97 412.8,242.42 411.85,246.87C410.9,251.31 410.01,255.75 409.23,260.2C408.45,264.64 407.71,269.09 407.15,273.54C406.6,277.98 406.1,282.42 405.9,286.87C405.7,291.31 405.66,295.76 405.92,300.2C406.18,304.65 406.72,309.1 407.46,313.53C408.2,317.99 409.26,322.44 410.37,326.87C411.48,331.33 412.83,335.76 414.13,340.2C415.43,344.65 416.84,349.08 418.18,353.53C419.51,357.97 420.84,362.42 422.14,366.87C423.44,371.31 424.69,375.76 425.96,380.2C427.24,384.64 428.49,389.09 429.79,393.53C431.09,397.98 432.42,402.42 433.74,406.87C435.06,411.31 436.43,415.75 437.71,420.2C438.98,424.64 440.27,429.07 441.4,433.53C442.53,437.96 443.59,442.41 444.49,446.87C445.38,451.3 446.15,455.75 446.79,460.2Q447.42,464.63 448.31,473.53Z" style="vector-effect: non-scaling-stroke; stroke-width: 0.5px; stroke: rgb(0, 0, 0); stroke-opacity: 1; fill: rgb(70, 98, 215); fill-opacity: 1;"/><path class="box" d="M438.98,296.44H461.03M438.98,333.55H461.03V237.43H438.98ZM450,333.55V392.64M450,237.43V194.43" style="vector-effect: non-scaling-stroke; stroke-width: 0.5px; stroke: rgb(0, 0, 0); stroke-opacity: 1; fill: rgb(0, 0, 0); fill-opacity: 0.4;"/><path class="mean" d="M438.98,292.84H461.03" style="fill: none; vector-effect: non-scaling-stroke; stroke-width: 0.5px; stroke-dasharray: 1px, 0.5px; stroke: rgb(0, 0, 0); stroke-opacity: 1;"/></g><g class="trace violins" style="opacity: 1;"><path class="violin" d="M630.62,609.7Q630.92,599.91 631.13,595.02C631.34,590.12 631.59,585.22 631.87,580.33C632.15,575.43 632.47,570.54 632.79,565.65C633.11,560.76 633.46,555.86 633.78,550.97C634.1,546.08 634.42,541.18 634.7,536.29C634.98,531.4 635.24,526.5 635.48,521.61C635.72,516.72 635.91,511.82 636.16,506.93C636.41,502.04 636.63,497.14 636.98,492.25C637.33,487.35 637.71,482.46 638.26,477.57C638.82,472.67 639.47,467.76 640.31,462.88C641.15,457.97 642.17,453.08 643.32,448.2C644.48,443.29 645.84,438.4 647.26,433.52C648.69,428.61 650.3,423.72 651.9,418.84C653.51,413.94 655.24,409.06 656.89,404.16C658.54,399.27 660.24,394.39 661.79,389.48C663.33,384.6 664.85,379.71 666.17,374.8C667.48,369.92 668.7,365.03 669.71,360.12C670.71,355.24 671.56,350.34 672.22,345.43C672.88,340.55 673.36,335.65 673.67,330.75C673.98,325.86 674.14,320.96 674.1,316.07C674.06,311.18 673.87,306.27 673.45,301.39C673.03,296.49 672.43,291.58 671.58,286.71C670.72,281.8 669.61,276.9 668.31,272.03C666.99,267.11 665.39,262.22 663.71,257.35C662.01,252.43 660.06,247.56 658.17,242.67C656.27,237.77 654.23,232.89 652.34,227.98C650.46,223.1 648.57,218.21 646.88,213.3C645.2,208.43 643.63,203.53 642.23,198.62C640.85,193.75 639.61,188.85 638.53,183.94C637.45,179.06 636.55,174.16 635.74,169.26C634.94,164.38 634.27,159.48 633.69,154.58C633.11,149.69 632.65,144.8 632.25,139.9C631.85,135.01 631.53,130.12 631.27,125.22Q631.01,120.33 630.67,110.53L629.33,110.53Q628.99,120.33 628.73,125.22C628.47,130.12 628.15,135.01 627.75,139.9C627.35,144.8 626.89,149.69 626.31,154.58C625.73,159.48 625.06,164.38 624.26,169.26C623.45,174.16 622.55,179.06 621.47,183.94C620.39,188.85 619.15,193.75 617.77,198.62C616.37,203.53 614.8,208.43 613.12,213.3C611.43,218.21 609.54,223.1 607.66,227.98C605.77,232.89 603.73,237.77 601.83,242.67C599.94,247.56 597.99,252.43 596.29,257.35C594.61,262.22 593.01,267.11 591.69,272.03C590.39,276.9 589.28,281.8 588.42,286.71C587.57,291.58 586.97,296.49 586.55,301.39C586.13,306.27 585.94,311.18 585.9,316.07C585.86,320.96 586.02,325.86 586.33,330.75C586.64,335.65 587.12,340.55 587.78,345.43C588.44,350.34 589.29,355.24 590.29,360.12C591.3,365.03 592.52,369.92 593.83,374.8C595.15,379.71 596.67,384.6 598.21,389.48C599.76,394.39 601.46,399.27 603.11,404.16C604.76,409.06 606.49,413.94 608.1,418.84C609.7,423.72 611.31,428.61 612.74,433.52C614.16,438.4 615.52,443.29 616.68,448.2C617.83,453.08 618.85,457.97 619.69,462.88C620.53,467.76 621.18,472.67 621.74,477.57C622.29,482.46 622.67,487.35 623.02,492.25C623.37,497.14 623.59,502.04 623.84,506.93C624.09,511.82 624.28,516.72 624.52,521.61C624.76,526.5 625.02,531.4 625.3,536.29C625.58,541.18 625.9,546.08 626.22,550.97C626.54,555.86 626.89,560.76 627.21,565.65C627.53,570.54 627.85,575.43 628.13,580.33C628.41,585.22 628.66,590.12 628.87,595.02Q629.08,599.91 629.38,609.7Z" style="vector-effect: non-scaling-stroke; stroke-width: 0.5px; stroke: rgb(0, 0, 0); stroke-opacity: 1; fill: rgb(250, 186, 57); fill-opacity: 1;"/><path class="box" d="M618.98,337.52H641.03M618.98,383.02H641.03V269.45H618.98ZM630,383.02V520M630,269.45V200.23" style="vector-effect: non-scaling-stroke; stroke-width: 0.5px; stroke: rgb(0, 0, 0); stroke-opacity: 1; fill: rgb(0, 0, 0); fill-opacity: 0.4;"/><path class="mean" d="M618.98,332.69H641.03" style="fill: none; vector-effect: non-scaling-stroke; stroke-width: 0.5px; stroke-dasharray: 1px, 0.5px; stroke: rgb(0, 0, 0); stroke-opacity: 1;"/></g><g class="trace violins" style="opacity: 1;"><path class="violin" d="M810.58,510.56Q810.88,503.24 811.11,499.58C811.34,495.92 811.62,492.25 811.97,488.59C812.32,484.92 812.73,481.26 813.23,477.6C813.73,473.93 814.3,470.27 814.96,466.61C815.62,462.94 816.36,459.28 817.19,455.63C818.03,451.96 818.95,448.29 819.97,444.64C821,440.96 822.11,437.3 823.33,433.65C824.56,429.97 825.9,426.31 827.34,422.67C828.8,418.99 830.38,415.33 832.02,411.68C833.68,408 835.47,404.35 837.25,400.69C839.04,397.02 840.94,393.37 842.71,389.7C844.47,386.05 846.3,382.41 847.83,378.72C849.34,375.09 850.81,371.43 851.85,367.73C852.87,364.11 853.7,360.42 854.07,356.74C854.44,353.09 854.43,349.4 854.1,345.75C853.77,342.07 852.97,338.4 852.06,334.77C851.14,331.08 849.82,327.43 848.6,323.78C847.37,320.11 845.94,316.47 844.72,312.79C843.51,309.14 842.28,305.48 841.33,301.8C840.39,298.16 839.61,294.49 839.02,290.82C838.43,287.17 838.09,283.5 837.77,279.83C837.46,276.17 837.36,272.5 837.13,268.84C836.9,265.18 836.75,261.51 836.37,257.85C835.99,254.18 835.53,250.51 834.84,246.87C834.15,243.19 833.26,239.52 832.23,235.88C831.19,232.19 829.91,228.54 828.62,224.89C827.32,221.21 825.85,217.56 824.48,213.9C823.11,210.24 821.67,206.59 820.39,202.92C819.12,199.27 817.89,195.61 816.84,191.93C815.8,188.28 814.89,184.62 814.12,180.94C813.36,177.29 812.76,173.62 812.26,169.95Q811.76,166.3 811.13,158.97L808.87,158.97Q808.24,166.3 807.74,169.95C807.24,173.62 806.64,177.29 805.88,180.94C805.11,184.62 804.2,188.28 803.16,191.93C802.11,195.61 800.88,199.27 799.61,202.92C798.33,206.59 796.89,210.24 795.52,213.9C794.15,217.56 792.68,221.21 791.38,224.89C790.09,228.54 788.81,232.19 787.77,235.88C786.74,239.52 785.85,243.19 785.16,246.87C784.47,250.51 784.01,254.18 783.63,257.85C783.25,261.51 783.1,265.18 782.87,268.84C782.64,272.5 782.54,276.17 782.23,279.83C781.91,283.5 781.57,287.17 780.98,290.82C780.39,294.49 779.61,298.16 778.67,301.8C777.72,305.48 776.49,309.14 775.28,312.79C774.06,316.47 772.63,320.11 771.4,323.78C770.18,327.43 768.86,331.08 767.94,334.77C767.03,338.4 766.23,342.07 765.9,345.75C765.57,349.4 765.56,353.09 765.93,356.74C766.3,360.42 767.13,364.11 768.15,367.73C769.19,371.43 770.66,375.09 772.17,378.72C773.7,382.41 775.53,386.05 777.29,389.7C779.06,393.37 780.96,397.02 782.75,400.69C784.53,404.35 786.32,408 787.98,411.68C789.62,415.33 791.2,418.99 792.66,422.67C794.1,426.31 795.44,429.97 796.67,433.65C797.89,437.3 799,440.96 800.03,444.64C801.05,448.29 801.97,451.96 802.81,455.63C803.64,459.28 804.38,462.94 805.04,466.61C805.7,470.27 806.27,473.93 806.77,477.6C807.27,481.26 807.68,484.92 808.03,488.59C808.38,492.25 808.66,495.92 808.89,499.58Q809.12,503.24 809.42,510.56Z" style="vector-effect: non-scaling-stroke; stroke-width: 0.5px; stroke: rgb(0, 0, 0); stroke-opacity: 1; fill: rgb(54, 169, 249); fill-opacity: 1;"/><path class="box" d="M798.98,343.65H821.03M798.98,366.17H821.03V271.23H798.98ZM810,366.17V443.31M810,271.23V226.22" style="vector-effect: non-scaling-stroke; stroke-width: 0.5px; stroke: rgb(0, 0, 0); stroke-opacity: 1; fill: rgb(0, 0, 0); fill-opacity: 0.4;"/><path class="mean" d="M798.98,328.3H821.03" style="fill: none; vector-effect: non-scaling-stroke; stroke-width: 0.5px; stroke-dasharray: 1px, 0.5px; stroke: rgb(0, 0, 0); stroke-opacity: 1;"/></g><g class="trace violins" style="opacity: 1;"><path class="violin" d="M990.4,600.24Q990.6,591.33 990.74,586.88C990.88,582.43 991.06,577.98 991.24,573.53C991.43,569.08 991.64,564.63 991.85,560.18C992.06,555.73 992.29,551.27 992.5,546.82C992.71,542.37 992.92,537.92 993.11,533.47C993.3,529.02 993.46,524.56 993.62,520.11C993.78,515.66 993.9,511.21 994.08,506.76C994.26,502.31 994.41,497.85 994.69,493.4C994.97,488.95 995.26,484.49 995.74,480.05C996.22,475.59 996.78,471.13 997.55,466.69C998.32,462.23 999.25,457.77 1000.35,453.34C1001.47,448.87 1002.78,444.42 1004.22,439.99C1005.67,435.51 1007.34,431.07 1009.02,426.63C1010.71,422.16 1012.57,417.73 1014.34,413.28C1016.12,408.83 1017.97,404.39 1019.67,399.92C1021.36,395.48 1023.02,391.04 1024.5,386.57C1025.96,382.14 1027.33,377.68 1028.5,373.21C1029.66,368.78 1030.67,364.33 1031.48,359.86C1032.29,355.43 1032.94,350.97 1033.38,346.51C1033.82,342.07 1034.08,337.6 1034.1,333.15C1034.12,328.7 1033.94,324.24 1033.52,319.8C1033.1,315.34 1032.43,310.87 1031.56,306.44C1030.68,301.97 1029.53,297.52 1028.26,293.09C1026.97,288.61 1025.43,284.16 1023.86,279.73C1022.28,275.26 1020.51,270.82 1018.79,266.38C1017.06,261.92 1015.23,257.48 1013.5,253.02C1011.77,248.57 1010.03,244.13 1008.42,239.67C1006.82,235.23 1005.26,230.79 1003.85,226.32C1002.45,221.88 1001.13,217.43 999.97,212.96C998.82,208.53 997.79,204.07 996.9,199.61C996.02,195.17 995.28,190.71 994.67,186.25C994.07,181.81 993.62,177.36 993.27,172.9C992.93,168.45 992.73,163.99 992.6,159.54C992.47,155.09 992.48,150.64 992.49,146.19C992.5,141.74 992.62,137.29 992.69,132.84C992.77,128.39 992.89,123.93 992.94,119.48C992.99,115.03 993.03,110.58 993.01,106.13C992.99,101.68 992.93,97.22 992.82,92.77C992.72,88.32 992.55,83.87 992.38,79.42C992.21,74.97 991.99,70.51 991.8,66.06C991.61,61.61 991.4,57.16 991.22,52.71C991.04,48.26 990.88,43.8 990.74,39.35Q990.6,34.9 990.4,26L989.6,26Q989.4,34.9 989.26,39.35C989.12,43.8 988.96,48.26 988.78,52.71C988.6,57.16 988.39,61.61 988.2,66.06C988.01,70.51 987.79,74.97 987.62,79.42C987.45,83.87 987.28,88.32 987.18,92.77C987.07,97.22 987.01,101.68 986.99,106.13C986.97,110.58 987.01,115.03 987.06,119.48C987.11,123.93 987.23,128.39 987.31,132.84C987.38,137.29 987.5,141.74 987.51,146.19C987.52,150.64 987.53,155.09 987.4,159.54C987.27,163.99 987.07,168.45 986.73,172.9C986.38,177.36 985.93,181.81 985.33,186.25C984.72,190.71 983.98,195.17 983.1,199.61C982.21,204.07 981.18,208.53 980.03,212.96C978.87,217.43 977.55,221.88 976.15,226.32C974.74,230.79 973.18,235.23 971.58,239.67C969.97,244.13 968.23,248.57 966.5,253.02C964.77,257.48 962.94,261.92 961.21,266.38C959.49,270.82 957.72,275.26 956.14,279.73C954.57,284.16 953.03,288.61 951.74,293.09C950.47,297.52 949.32,301.97 948.44,306.44C947.57,310.87 946.9,315.34 946.48,319.8C946.06,324.24 945.88,328.7 945.9,333.15C945.92,337.6 946.18,342.07 946.62,346.51C947.06,350.97 947.71,355.43 948.52,359.86C949.33,364.33 950.34,368.78 951.5,373.21C952.67,377.68 954.04,382.14 955.5,386.57C956.98,391.04 958.64,395.48 960.33,399.92C962.03,404.39 963.88,408.83 965.66,413.28C967.43,417.73 969.29,422.16 970.98,426.63C972.66,431.07 974.33,435.51 975.78,439.99C977.22,444.42 978.53,448.87 979.65,453.34C980.75,457.77 981.68,462.23 982.45,466.69C983.22,471.13 983.78,475.59 984.26,480.05C984.74,484.49 985.03,488.95 985.31,493.4C985.59,497.85 985.74,502.31 985.92,506.76C986.1,511.21 986.22,515.66 986.38,520.11C986.54,524.56 986.7,529.02 986.89,533.47C987.08,537.92 987.29,542.37 987.5,546.82C987.71,551.27 987.94,555.73 988.15,560.18C988.36,564.63 988.57,569.08 988.76,573.53C988.94,577.98 989.12,582.43 989.26,586.88Q989.4,591.33 989.6,600.24Z" style="vector-effect: non-scaling-stroke; stroke-width: 0.5px; stroke: rgb(0, 0, 0); stroke-opacity: 1; fill: rgb(246, 106, 25); fill-opacity: 1;"/><path class="box" d="M978.97,328.75H1001.03M978.97,385.83H1001.03V286.31H978.97ZM990,385.83V520M990,286.31V227.12" style="vector-effect: non-scaling-stroke; stroke-width: 0.5px; stroke: rgb(0, 0, 0); stroke-opacity: 1; fill: rgb(0, 0, 0); fill-opacity: 0.4;"/><path class="mean" d="M978.97,331.73H1001.03" style="fill: none; vector-effect: non-scaling-stroke; stroke-width: 0.5px; stroke-dasharray: 1px, 0.5px; stroke: rgb(0, 0, 0); stroke-opacity: 1;"/></g><g class="trace violins" style="opacity: 1;"><path class="violin" d="M1170.42,608.14Q1170.63,598.45 1170.78,593.61C1170.93,588.77 1171.1,583.92 1171.3,579.08C1171.5,574.24 1171.73,569.39 1171.98,564.55C1172.22,559.71 1172.49,554.87 1172.77,550.03C1173.05,545.19 1173.34,540.34 1173.68,535.5C1174.02,530.66 1174.34,525.81 1174.8,520.97C1175.26,516.12 1175.74,511.27 1176.43,506.44C1177.13,501.59 1177.92,496.73 1178.98,491.91C1180.05,487.05 1181.34,482.2 1182.86,477.39C1184.4,472.51 1186.24,467.67 1188.18,462.86C1190.15,457.98 1192.42,453.16 1194.6,448.33C1196.79,443.48 1199.18,438.67 1201.29,433.8C1203.38,428.98 1205.5,424.16 1207.21,419.27C1208.89,414.47 1210.39,409.62 1211.47,404.74C1212.54,399.93 1213.26,395.07 1213.7,390.22C1214.14,385.39 1214.16,380.53 1214.1,375.69C1214.04,370.85 1213.65,366 1213.31,361.16C1212.96,356.31 1212.45,351.47 1212.03,346.63C1211.61,341.79 1211.17,336.94 1210.79,332.1C1210.42,327.26 1210.09,322.41 1209.78,317.57C1209.47,312.73 1209.23,307.89 1208.91,303.05C1208.59,298.21 1208.3,293.36 1207.84,288.52C1207.38,283.67 1206.88,278.82 1206.16,273.99C1205.44,269.13 1204.57,264.29 1203.52,259.46C1202.46,254.6 1201.19,249.75 1199.82,244.93C1198.44,240.07 1196.85,235.24 1195.27,230.41C1193.69,225.56 1191.95,220.73 1190.34,215.88C1188.73,211.04 1187.07,206.21 1185.61,201.35C1184.16,196.52 1182.77,191.68 1181.59,186.82C1180.42,182 1179.39,177.15 1178.54,172.29C1177.69,167.46 1177.04,162.61 1176.47,157.76C1175.9,152.93 1175.51,148.08 1175.13,143.24C1174.75,138.4 1174.48,133.55 1174.2,128.71C1173.92,123.87 1173.68,119.02 1173.43,114.18C1173.18,109.34 1172.93,104.49 1172.68,99.65C1172.43,94.81 1172.18,89.96 1171.95,85.12C1171.72,80.28 1171.49,75.44 1171.3,70.6C1171.1,65.76 1170.93,60.91 1170.78,56.07Q1170.63,51.23 1170.42,41.54L1169.58,41.54Q1169.37,51.23 1169.22,56.07C1169.07,60.91 1168.9,65.76 1168.7,70.6C1168.51,75.44 1168.28,80.28 1168.05,85.12C1167.82,89.96 1167.57,94.81 1167.32,99.65C1167.07,104.49 1166.82,109.34 1166.57,114.18C1166.32,119.02 1166.08,123.87 1165.8,128.71C1165.52,133.55 1165.25,138.4 1164.87,143.24C1164.49,148.08 1164.1,152.93 1163.53,157.76C1162.96,162.61 1162.31,167.46 1161.46,172.29C1160.61,177.15 1159.58,182 1158.41,186.82C1157.23,191.68 1155.84,196.52 1154.39,201.35C1152.93,206.21 1151.27,211.04 1149.66,215.88C1148.05,220.73 1146.31,225.56 1144.73,230.41C1143.15,235.24 1141.56,240.07 1140.18,244.93C1138.81,249.75 1137.54,254.6 1136.48,259.46C1135.43,264.29 1134.56,269.13 1133.84,273.99C1133.12,278.82 1132.62,283.67 1132.16,288.52C1131.7,293.36 1131.41,298.21 1131.09,303.05C1130.77,307.89 1130.53,312.73 1130.22,317.57C1129.91,322.41 1129.58,327.26 1129.21,332.1C1128.83,336.94 1128.39,341.79 1127.97,346.63C1127.55,351.47 1127.04,356.31 1126.69,361.16C1126.35,366 1125.96,370.85 1125.9,375.69C1125.84,380.53 1125.86,385.39 1126.3,390.22C1126.74,395.07 1127.46,399.93 1128.53,404.74C1129.61,409.62 1131.11,414.47 1132.79,419.27C1134.5,424.16 1136.62,428.98 1138.71,433.8C1140.82,438.67 1143.21,443.48 1145.4,448.33C1147.58,453.16 1149.85,457.98 1151.82,462.86C1153.76,467.67 1155.6,472.51 1157.14,477.39C1158.66,482.2 1159.95,487.05 1161.02,491.91C1162.08,496.73 1162.87,501.59 1163.57,506.44C1164.26,511.27 1164.74,516.12 1165.2,520.97C1165.66,525.81 1165.98,530.66 1166.32,535.5C1166.66,540.34 1166.95,545.19 1167.23,550.03C1167.51,554.87 1167.78,559.71 1168.02,564.55C1168.27,569.39 1168.5,574.24 1168.7,579.08C1168.9,583.92 1169.07,588.77 1169.22,593.61Q1169.37,598.45 1169.58,608.14Z" style="vector-effect: non-scaling-stroke; stroke-width: 0.5px; stroke: rgb(0, 0, 0); stroke-opacity: 1; fill: rgb(26, 228, 182); fill-opacity: 1;"/><path class="box" d="M1158.97,340.71H1181.03M1158.97,399.57H1181.03V274.85H1158.97ZM1170,399.57V520M1170,274.85V129.68" style="vector-effect: non-scaling-stroke; stroke-width: 0.5px; stroke: rgb(0, 0, 0); stroke-opacity: 1; fill: rgb(0, 0, 0); fill-opacity: 0.4;"/><path class="mean" d="M1158.97,335.9H1181.03" style="fill: none; vector-effect: non-scaling-stroke; stroke-width: 0.5px; stroke-dasharray: 1px, 0.5px; stroke: rgb(0, 0, 0); stroke-opacity: 1;"/></g><g class="trace violins" style="opacity: 1;"><path class="violin" d="M1351.56,589.27Q1352.34,581.61 1352.88,577.79C1353.42,573.96 1354.07,570.13 1354.79,566.31C1355.51,562.48 1356.36,558.65 1357.19,554.83C1358.02,551 1358.95,547.18 1359.79,543.35C1360.63,539.53 1361.49,535.7 1362.25,531.87C1363,528.05 1363.68,524.22 1364.32,520.39C1364.96,516.57 1365.47,512.74 1366.08,508.91C1366.69,505.08 1367.22,501.25 1367.96,497.43C1368.7,493.59 1369.49,489.75 1370.52,485.95C1371.56,482.1 1372.79,478.27 1374.16,474.47C1375.55,470.62 1377.2,466.8 1378.83,462.99C1380.47,459.15 1382.32,455.35 1383.98,451.51C1385.63,447.69 1387.36,443.89 1388.76,440.03C1390.13,436.24 1391.42,432.42 1392.31,428.56C1393.19,424.77 1393.81,420.92 1394.1,417.08C1394.39,413.26 1394.33,409.42 1394.06,405.6C1393.79,401.76 1393.18,397.93 1392.49,394.12C1391.79,390.28 1390.86,386.45 1389.88,382.64C1388.9,378.8 1387.76,374.98 1386.6,371.16C1385.43,367.32 1384.18,363.5 1382.89,359.68C1381.59,355.84 1380.21,352.02 1378.83,348.2C1377.45,344.37 1375.99,340.55 1374.6,336.72C1373.22,332.9 1371.78,329.08 1370.52,325.24C1369.27,321.43 1368.04,317.61 1367.06,313.76C1366.09,309.95 1365.25,306.12 1364.64,302.28C1364.04,298.47 1363.65,294.63 1363.42,290.8C1363.19,286.98 1363.21,283.15 1363.24,279.32C1363.27,275.49 1363.49,271.67 1363.62,267.84C1363.75,264.02 1363.95,260.19 1364.01,256.37C1364.07,252.54 1364.07,248.72 1363.95,244.89C1363.83,241.06 1363.6,237.23 1363.28,233.41C1362.96,229.58 1362.51,225.75 1362.03,221.93C1361.55,218.1 1360.98,214.27 1360.41,210.45C1359.84,206.62 1359.22,202.8 1358.62,198.97C1358.02,195.14 1357.41,191.32 1356.83,187.49C1356.25,183.66 1355.69,179.84 1355.16,176.01C1354.64,172.19 1354.13,168.36 1353.68,164.53C1353.23,160.71 1352.81,156.88 1352.45,153.05C1352.09,149.23 1351.78,145.4 1351.51,141.57C1351.25,137.74 1351.04,133.92 1350.86,130.09Q1350.68,126.26 1350.44,118.61L1349.56,118.61Q1349.32,126.26 1349.14,130.09C1348.96,133.92 1348.75,137.74 1348.49,141.57C1348.22,145.4 1347.91,149.23 1347.55,153.05C1347.19,156.88 1346.77,160.71 1346.32,164.53C1345.87,168.36 1345.36,172.19 1344.84,176.01C1344.31,179.84 1343.75,183.66 1343.17,187.49C1342.59,191.32 1341.98,195.14 1341.38,198.97C1340.78,202.8 1340.16,206.62 1339.59,210.45C1339.02,214.27 1338.45,218.1 1337.97,221.93C1337.49,225.75 1337.04,229.58 1336.72,233.41C1336.4,237.23 1336.17,241.06 1336.05,244.89C1335.93,248.72 1335.93,252.54 1335.99,256.37C1336.05,260.19 1336.25,264.02 1336.38,267.84C1336.51,271.67 1336.73,275.49 1336.76,279.32C1336.79,283.15 1336.81,286.98 1336.58,290.8C1336.35,294.63 1335.96,298.47 1335.36,302.28C1334.75,306.12 1333.91,309.95 1332.94,313.76C1331.96,317.61 1330.73,321.43 1329.48,325.24C1328.22,329.08 1326.78,332.9 1325.4,336.72C1324.01,340.55 1322.55,344.37 1321.17,348.2C1319.79,352.02 1318.41,355.84 1317.11,359.68C1315.82,363.5 1314.57,367.32 1313.4,371.16C1312.24,374.98 1311.1,378.8 1310.12,382.64C1309.14,386.45 1308.21,390.28 1307.51,394.12C1306.82,397.93 1306.21,401.76 1305.94,405.6C1305.67,409.42 1305.61,413.26 1305.9,417.08C1306.19,420.92 1306.81,424.77 1307.69,428.56C1308.58,432.42 1309.87,436.24 1311.24,440.03C1312.64,443.89 1314.37,447.69 1316.02,451.51C1317.68,455.35 1319.53,459.15 1321.17,462.99C1322.8,466.8 1324.45,470.62 1325.84,474.47C1327.21,478.27 1328.44,482.1 1329.48,485.95C1330.51,489.75 1331.3,493.59 1332.04,497.43C1332.78,501.25 1333.31,505.08 1333.92,508.91C1334.53,512.74 1335.04,516.57 1335.68,520.39C1336.32,524.22 1337,528.05 1337.75,531.87C1338.51,535.7 1339.37,539.53 1340.21,543.35C1341.05,547.18 1341.98,551 1342.81,554.83C1343.64,558.65 1344.49,562.48 1345.21,566.31C1345.93,570.13 1346.58,573.96 1347.12,577.79Q1347.66,581.61 1348.44,589.27Z" style="vector-effect: non-scaling-stroke; stroke-width: 0.5px; stroke: rgb(0, 0, 0); stroke-opacity: 1; fill: rgb(202, 43, 4); fill-opacity: 1;"/><path class="box" d="M1338.98,400.31H1361.03M1338.98,439.06H1361.03V349.23H1338.98ZM1350,439.06V520M1350,349.23V217.89" style="vector-effect: non-scaling-stroke; stroke-width: 0.5px; stroke: rgb(0, 0, 0); stroke-opacity: 1; fill: rgb(0, 0, 0); fill-opacity: 0.4;"/><path class="mean" d="M1338.98,385.82H1361.03" style="fill: none; vector-effect: non-scaling-stroke; stroke-width: 0.5px; stroke-dasharray: 1px, 0.5px; stroke: rgb(0, 0, 0); stroke-opacity: 1;"/></g><g class="trace violins" style="opacity: 1;"><path class="violin" d="M1532.64,591.29Q1533.99,583.37 1534.92,579.44C1535.86,575.47 1537,571.52 1538.28,567.59C1539.57,563.62 1541.09,559.67 1542.63,555.74C1544.19,551.77 1545.93,547.84 1547.58,543.89C1549.24,539.94 1550.97,536 1552.56,532.04C1554.14,528.1 1555.69,524.15 1557.1,520.18C1558.5,516.25 1559.79,512.29 1561.01,508.33C1562.23,504.39 1563.32,500.44 1564.42,496.48C1565.51,492.54 1566.57,488.59 1567.58,484.63C1568.59,480.68 1569.61,476.74 1570.49,472.78C1571.36,468.84 1572.23,464.89 1572.83,460.93C1573.43,456.99 1573.93,453.04 1574.1,449.08C1574.27,445.14 1574.21,441.17 1573.88,437.23C1573.55,433.27 1572.9,429.31 1572.09,425.38C1571.28,421.41 1570.16,417.46 1569.01,413.53C1567.85,409.56 1566.47,405.62 1565.15,401.68C1563.82,397.72 1562.39,393.79 1561.07,389.83C1559.75,385.89 1558.43,381.94 1557.24,377.98C1556.06,374.04 1554.94,370.09 1553.95,366.13C1552.97,362.19 1552.11,358.24 1551.33,354.28C1550.55,350.34 1549.9,346.38 1549.28,342.42C1548.66,338.47 1548.14,334.52 1547.6,330.57C1547.06,326.62 1546.56,322.67 1546.02,318.72C1545.48,314.77 1544.94,310.82 1544.36,306.87C1543.78,302.92 1543.16,298.97 1542.54,295.02C1541.92,291.07 1541.27,287.12 1540.64,283.17C1540.01,279.22 1539.38,275.27 1538.78,271.32C1538.18,267.37 1537.59,263.42 1537.04,259.47C1536.49,255.52 1535.98,251.57 1535.49,247.62C1535,243.67 1534.55,239.72 1534.12,235.77C1533.7,231.82 1533.3,227.87 1532.94,223.92C1532.58,219.97 1532.26,216.02 1531.97,212.07C1531.68,208.12 1531.43,204.17 1531.22,200.22C1531.01,196.27 1530.84,192.32 1530.7,188.37Q1530.56,184.42 1530.36,176.51L1529.64,176.51Q1529.44,184.42 1529.3,188.37C1529.16,192.32 1528.99,196.27 1528.78,200.22C1528.57,204.17 1528.32,208.12 1528.03,212.07C1527.74,216.02 1527.42,219.97 1527.06,223.92C1526.7,227.87 1526.3,231.82 1525.88,235.77C1525.45,239.72 1525,243.67 1524.51,247.62C1524.02,251.57 1523.51,255.52 1522.96,259.47C1522.41,263.42 1521.82,267.37 1521.22,271.32C1520.62,275.27 1519.99,279.22 1519.36,283.17C1518.73,287.12 1518.08,291.07 1517.46,295.02C1516.84,298.97 1516.22,302.92 1515.64,306.87C1515.06,310.82 1514.52,314.77 1513.98,318.72C1513.44,322.67 1512.94,326.62 1512.4,330.57C1511.86,334.52 1511.34,338.47 1510.72,342.42C1510.1,346.38 1509.45,350.34 1508.67,354.28C1507.89,358.24 1507.03,362.19 1506.05,366.13C1505.06,370.09 1503.94,374.04 1502.76,377.98C1501.57,381.94 1500.25,385.89 1498.93,389.83C1497.61,393.79 1496.18,397.72 1494.85,401.68C1493.53,405.62 1492.15,409.56 1490.99,413.53C1489.84,417.46 1488.72,421.41 1487.91,425.38C1487.1,429.31 1486.45,433.27 1486.12,437.23C1485.79,441.17 1485.73,445.14 1485.9,449.08C1486.07,453.04 1486.57,456.99 1487.17,460.93C1487.77,464.89 1488.64,468.84 1489.51,472.78C1490.39,476.74 1491.41,480.68 1492.42,484.63C1493.43,488.59 1494.49,492.54 1495.58,496.48C1496.68,500.44 1497.77,504.39 1498.99,508.33C1500.21,512.29 1501.5,516.25 1502.9,520.18C1504.31,524.15 1505.86,528.1 1507.44,532.04C1509.03,536 1510.76,539.94 1512.42,543.89C1514.07,547.84 1515.81,551.77 1517.37,555.74C1518.91,559.67 1520.43,563.62 1521.72,567.59C1523,571.52 1524.14,575.47 1525.08,579.44Q1526.01,583.37 1527.36,591.29Z" style="vector-effect: non-scaling-stroke; stroke-width: 0.5px; stroke: rgb(0, 0, 0); stroke-opacity: 1; fill: rgb(113, 254, 95); fill-opacity: 1;"/><path class="box" d="M1518.98,441.96H1541.03M1518.98,477.65H1541.03V382.69H1518.98ZM1530,477.65V520M1530,382.69V247.8" style="vector-effect: non-scaling-stroke; stroke-width: 0.5px; stroke: rgb(0, 0, 0); stroke-opacity: 1; fill: rgb(0, 0, 0); fill-opacity: 0.4;"/><path class="mean" d="M1518.98,427.3H1541.03" style="fill: none; vector-effect: non-scaling-stroke; stroke-width: 0.5px; stroke-dasharray: 1px, 0.5px; stroke: rgb(0, 0, 0); stroke-opacity: 1;"/></g></g></g><g class="overplot"/><path class="xlines-above crisp" d="M0,0" style="fill: none;"/><path class="ylines-above crisp" d="M0,0" style="fill: none;"/><g class="overlines-above"/><g class="xaxislayer-above"><g class="xtick"><text text-anchor="middle" x="0" y="571.5" transform="translate(130,0)" style="font-family: Arial, Helvetica, sans-serif; font-size: 10.5px; fill: rgb(68, 68, 68); fill-opacity: 1; white-space: pre;">acute_row2_implant</text></g><g class="xtick"><text text-anchor="middle" x="0" y="571.5" transform="translate(310,0)" style="font-family: Arial, Helvetica, sans-serif; font-size: 10.5px; fill: rgb(68, 68, 68); fill-opacity: 1; white-space: pre;">acute_row2_d1</text></g><g class="xtick"><text text-anchor="middle" x="0" y="571.5" transform="translate(490,0)" style="font-family: Arial, Helvetica, sans-serif; font-size: 10.5px; fill: rgb(68, 68, 68); fill-opacity: 1; white-space: pre;">acute_row2_d2</text></g><g class="xtick"><text text-anchor="middle" x="0" y="571.5" transform="translate(670,0)" style="font-family: Arial, Helvetica, sans-serif; font-size: 10.5px; fill: rgb(68, 68, 68); fill-opacity: 1; white-space: pre;">acute_row2_d3</text></g><g class="xtick"><text text-anchor="middle" x="0" y="571.5" transform="translate(850,0)" style="font-family: Arial, Helvetica, sans-serif; font-size: 10.5px; fill: rgb(68, 68, 68); fill-opacity: 1; white-space: pre;">acute_row2_d4</text></g><g class="xtick"><text text-anchor="middle" x="0" y="571.5" transform="translate(1030,0)" style="font-family: Arial, Helvetica, sans-serif; font-size: 10.5px; fill: rgb(68, 68, 68); fill-opacity: 1; white-space: pre;">acute_row2_d5</text></g><g class="xtick"><text text-anchor="middle" x="0" y="571.5" transform="translate(1210,0)" style="font-family: Arial, Helvetica, sans-serif; font-size: 10.5px; fill: rgb(68, 68, 68); fill-opacity: 1; white-space: pre;">acute_row2_d6</text></g><g class="xtick"><text text-anchor="middle" x="0" y="571.5" transform="translate(1390,0)" style="font-family: Arial, Helvetica, sans-serif; font-size: 10.5px; fill: rgb(68, 68, 68); fill-opacity: 1; white-space: pre;">acute_row2_d7</text></g><g class="xtick"><text text-anchor="middle" x="0" y="571.5" transform="translate(1570,0)" style="font-family: Arial, Helvetica, sans-serif; font-size: 10.5px; fill: rgb(68, 68, 68); fill-opacity: 1; white-space: pre;">acute_row2_d8</text></g></g><g class="yaxislayer-above"><g class="ytick"><text text-anchor="end" x="39" y="3.675" transform="translate(0,560)" style="font-family: Arial, Helvetica, sans-serif; font-size: 10.5px; fill: rgb(68, 68, 68); fill-opacity: 1; white-space: pre;">0</text></g><g class="ytick"><text text-anchor="end" x="39" y="3.675" transform="translate(0,500.98)" style="font-family: Arial, Helvetica, sans-serif; font-size: 10.5px; fill: rgb(68, 68, 68); fill-opacity: 1; white-space: pre;">0.5</text></g><g class="ytick"><text text-anchor="end" x="39" y="3.675" transform="translate(0,441.95)" style="font-family: Arial, Helvetica, sans-serif; font-size: 10.5px; fill: rgb(68, 68, 68); fill-opacity: 1; white-space: pre;">1</text></g><g class="ytick"><text text-anchor="end" x="39" y="3.675" transform="translate(0,382.93)" style="font-family: Arial, Helvetica, sans-serif; font-size: 10.5px; fill: rgb(68, 68, 68); fill-opacity: 1; white-space: pre;">1.5</text></g><g class="ytick"><text text-anchor="end" x="39" y="3.675" transform="translate(0,323.9)" style="font-family: Arial, Helvetica, sans-serif; font-size: 10.5px; fill: rgb(68, 68, 68); fill-opacity: 1; white-space: pre;">2</text></g><g class="ytick"><text text-anchor="end" x="39" y="3.675" transform="translate(0,264.88)" style="font-family: Arial, Helvetica, sans-serif; font-size: 10.5px; fill: rgb(68, 68, 68); fill-opacity: 1; white-space: pre;">2.5</text></g><g class="ytick"><text text-anchor="end" x="39" y="3.675" transform="translate(0,205.85)" style="font-family: Arial, Helvetica, sans-serif; font-size: 10.5px; fill: rgb(68, 68, 68); fill-opacity: 1; white-space: pre;">3</text></g><g class="ytick"><text text-anchor="end" x="39" y="3.675" transform="translate(0,146.82999999999998)" style="font-family: Arial, Helvetica, sans-serif; font-size: 10.5px; fill: rgb(68, 68, 68); fill-opacity: 1; white-space: pre;">3.5</text></g><g class="ytick"><text text-anchor="end" x="39" y="3.675" transform="translate(0,87.8)" style="font-family: Arial, Helvetica, sans-serif; font-size: 10.5px; fill: rgb(68, 68, 68); fill-opacity: 1; white-space: pre;">4</text></g></g><g class="overaxes-above"/></g></g><g class="polarlayer"/><g class="ternarylayer"/><g class="geolayer"/><g class="funnelarealayer"/><g class="pielayer"/><g class="treemaplayer"/><g class="sunburstlayer"/><g class="glimages"/><defs id="topdefs-644349"><g class="clips"/></defs><g class="layer-above"><g class="imagelayer"/><g class="shapelayer"><path data-index="0" fill-rule="evenodd" d="M85,327.85L175,327.85" clip-path="url('#clip644349y')" style="opacity: 1; stroke: rgb(49, 19, 62); stroke-opacity: 1; fill: rgb(0, 0, 0); fill-opacity: 0; stroke-width: 2px;"/></g></g><g class="infolayer"><g class="g-gtitle"><text class="gtitle" x="850" y="20" text-anchor="middle" dy="0em" style="font-family: Arial, Helvetica, sans-serif; font-size: 14px; fill: rgb(68, 68, 68); opacity: 1; font-weight: normal; white-space: pre;">Log Normalized Exp - Ccl3 (acute_row2)</text></g><g class="g-xtitle"/><g class="g-ytitle"/></g></svg>