<svg class="main-svg" xmlns="http://www.w3.org/2000/svg" xmlns:xlink="http://www.w3.org/1999/xlink" width="1700" height="600" style="" viewBox="0 0 1700 600"><rect x="0" y="0" width="1700" height="600" style="fill: rgb(255, 255, 255); fill-opacity: 1;"/><defs id="defs-930bb0"><g class="clips"><clipPath id="clip930bb0xyplot" class="plotclip"><rect width="1620" height="520"/></clipPath><clipPath class="axesclip" id="clip930bb0x"><rect x="40" y="0" width="1620" height="600"/></clipPath><clipPath class="axesclip" id="clip930bb0y"><rect x="0" y="40" width="1700" height="520"/></clipPath><clipPath class="axesclip" id="clip930bb0xy"><rect x="40" y="40" width="1620" height="520"/></clipPath></g><g class="gradients"/></defs><g class="bglayer"/><g class="layer-below"><g class="imagelayer"/><g class="shapelayer"/></g><g class="cartesianlayer"><g class="subplot xy"><g class="layer-subplot"><g class="shapelayer"/><g class="imagelayer"/></g><g class="gridlayer"><g class="x"/><g class="y"><path class="ygrid crisp" transform="translate(0,504.18)" d="M40,0h1620" style="stroke: rgb(238, 238, 238); stroke-opacity: 1; stroke-width: 1px;"/><path class="ygrid crisp" transform="translate(0,448.36)" d="M40,0h1620" style="stroke: rgb(238, 238, 238); stroke-opacity: 1; stroke-width: 1px;"/><path class="ygrid crisp" transform="translate(0,392.55)" d="M40,0h1620" style="stroke: rgb(238, 238, 238); stroke-opacity: 1; stroke-width: 1px;"/><path class="ygrid crisp" transform="translate(0,336.73)" d="M40,0h1620" style="stroke: rgb(238, 238, 238); stroke-opacity: 1; stroke-width: 1px;"/><path class="ygrid crisp" transform="translate(0,280.90999999999997)" d="M40,0h1620" style="stroke: rgb(238, 238, 238); stroke-opacity: 1; stroke-width: 1px;"/><path class="ygrid crisp" transform="translate(0,225.09)" d="M40,0h1620" style="stroke: rgb(238, 238, 238); stroke-opacity: 1; stroke-width: 1px;"/><path class="ygrid crisp" transform="translate(0,169.27)" d="M40,0h1620" style="stroke: rgb(238, 238, 238); stroke-opacity: 1; stroke-width: 1px;"/><path class="ygrid crisp" transform="translate(0,113.46)" d="M40,0h1620" style="stroke: rgb(238, 238, 238); stroke-opacity: 1; stroke-width: 1px;"/><path class="ygrid crisp" transform="translate(0,57.64)" d="M40,0h1620" style="stroke: rgb(238, 238, 238); stroke-opacity: 1; stroke-width: 1px;"/></g></g><g class="zerolinelayer"><path class="yzl zl crisp" transform="translate(0,560)" d="M40,0h1620" style="stroke: rgb(68, 68, 68); stroke-opacity: 1; stroke-width: 1px;"/></g><path class="xlines-below"/><path class="ylines-below"/><g class="overlines-below"/><g class="xaxislayer-below"/><g class="yaxislayer-below"/><g class="overaxes-below"/><g class="plot" transform="translate(40, 40)" clip-path="url('#clip930bb0xyplot')"><g class="violinlayer mlayer"><g class="trace violins" style="opacity: 0;"><path class="violin" d="M134.1,247.54L45.9,247.54Z" style="vector-effect: non-scaling-stroke; stroke-width: 0.5px; stroke: rgb(0, 0, 0); stroke-opacity: 1; fill: rgb(49, 19, 62); fill-opacity: 1;"/><path class="box" d="M78.97,247.54H101.03M78.97,247.54H101.03V247.54H78.97ZM90,247.54V247.54M90,247.54V247.54" style="vector-effect: non-scaling-stroke; stroke-width: 0.5px; stroke: rgb(0, 0, 0); stroke-opacity: 1; fill: rgb(0, 0, 0); fill-opacity: 0.4;"/><path class="mean" d="M78.97,247.54H101.03" style="fill: none; vector-effect: non-scaling-stroke; stroke-width: 0.5px; stroke-dasharray: 1px, 0.5px; stroke: rgb(0, 0, 0); stroke-opacity: 1;"/></g><g class="trace violins" style="opacity: 1;"><path class="violin" d="M274.15,371.86Q276.34,365.71 277.82,362.72C279.36,359.61 281.24,356.56 283.29,353.58C285.43,350.47 287.95,347.45 290.44,344.44C292.99,341.36 295.85,338.37 298.45,335.3C301.02,332.27 303.74,329.28 305.95,326.15C308.05,323.18 310.1,320.15 311.47,317.01C312.76,314.05 313.68,310.95 314.1,307.87C314.51,304.85 314.29,301.77 314.01,298.73C313.73,295.67 312.93,292.64 312.4,289.59C311.87,286.54 311.16,283.51 310.81,280.45C310.46,277.41 310.28,274.36 310.28,271.31C310.28,268.26 310.62,265.22 310.81,262.17C311,259.12 311.43,256.08 311.43,253.03C311.43,249.98 311.38,246.9 310.83,243.88C310.27,240.8 309.33,237.72 308.08,234.74C306.78,231.62 304.97,228.59 303.1,225.6C301.16,222.49 298.81,219.49 296.58,216.46C294.32,213.4 291.86,210.39 289.63,207.32C287.44,204.3 285.23,201.28 283.31,198.18C281.45,195.18 279.71,192.14 278.26,189.04C276.85,186.04 275.67,182.98 274.69,179.9Q273.73,176.88 272.43,170.76L267.57,170.76Q266.27,176.88 265.31,179.9C264.33,182.98 263.15,186.04 261.74,189.04C260.29,192.14 258.55,195.18 256.69,198.18C254.77,201.28 252.56,204.3 250.37,207.32C248.14,210.39 245.68,213.4 243.42,216.46C241.19,219.49 238.84,222.49 236.9,225.6C235.03,228.59 233.22,231.62 231.92,234.74C230.67,237.72 229.73,240.8 229.17,243.88C228.62,246.9 228.57,249.98 228.57,253.03C228.57,256.08 229,259.12 229.19,262.17C229.38,265.22 229.72,268.26 229.72,271.31C229.72,274.36 229.54,277.41 229.19,280.45C228.84,283.51 228.13,286.54 227.6,289.59C227.07,292.64 226.27,295.67 225.99,298.73C225.71,301.77 225.49,304.85 225.9,307.87C226.32,310.95 227.24,314.05 228.53,317.01C229.9,320.15 231.95,323.18 234.05,326.15C236.26,329.28 238.98,332.27 241.55,335.3C244.15,338.37 247.01,341.36 249.56,344.44C252.05,347.45 254.57,350.47 256.71,353.58C258.76,356.56 260.64,359.61 262.18,362.72Q263.66,365.71 265.85,371.86Z" style="vector-effect: non-scaling-stroke; stroke-width: 0.5px; stroke: rgb(0, 0, 0); stroke-opacity: 1; fill: rgb(200, 239, 52); fill-opacity: 1;"/><path class="box" d="M258.98,280.25H281.02M258.98,308.66H281.02V247.54H258.98ZM270,308.66V314.98M270,247.54V227.63" style="vector-effect: non-scaling-stroke; stroke-width: 0.5px; stroke: rgb(0, 0, 0); stroke-opacity: 1; fill: rgb(0, 0, 0); fill-opacity: 0.4;"/><path class="mean" d="M258.98,276.55H281.02" style="fill: none; vector-effect: non-scaling-stroke; stroke-width: 0.5px; stroke-dasharray: 1px, 0.5px; stroke: rgb(0, 0, 0); stroke-opacity: 1;"/></g><g class="trace violins" style="opacity: 1;"><path class="violin" d="M451.98,434.94Q453.07,424.83 453.9,419.8C454.74,414.74 455.75,409.67 456.99,404.65C458.24,399.58 459.74,394.53 461.39,389.51C463.06,384.43 465,379.39 466.97,374.36C468.95,369.29 471.16,364.26 473.25,359.21C475.34,354.16 477.55,349.14 479.53,344.07C481.49,339.04 483.42,334 485.08,328.92C486.72,323.9 488.21,318.85 489.42,313.77C490.62,308.75 491.6,303.69 492.34,298.63C493.08,293.6 493.58,288.54 493.87,283.48C494.16,278.44 494.22,273.39 494.1,268.34C493.98,263.29 493.65,258.23 493.16,253.19C492.67,248.13 491.96,243.08 491.15,238.04C490.34,232.98 489.33,227.94 488.28,222.9C487.22,217.84 486.01,212.79 484.82,207.75C483.62,202.7 482.33,197.66 481.11,192.61C479.89,187.56 478.65,182.51 477.48,177.46C476.31,172.41 475.18,167.36 474.09,162.31C473,157.27 471.97,152.22 470.93,147.17C469.89,142.12 468.9,137.07 467.87,132.02C466.85,126.97 465.82,121.93 464.78,116.88C463.74,111.83 462.66,106.78 461.63,101.73C460.6,96.68 459.55,91.63 458.59,86.58C457.63,81.54 456.69,76.49 455.87,71.44C455.05,66.4 454.32,61.35 453.69,56.29C453.07,51.25 452.55,46.2 452.12,41.15Q451.69,36.1 451.1,26L448.9,26Q448.31,36.1 447.88,41.15C447.45,46.2 446.93,51.25 446.31,56.29C445.68,61.35 444.95,66.4 444.13,71.44C443.31,76.49 442.37,81.54 441.41,86.58C440.45,91.63 439.4,96.68 438.37,101.73C437.34,106.78 436.26,111.83 435.22,116.88C434.18,121.93 433.15,126.97 432.13,132.02C431.1,137.07 430.11,142.12 429.07,147.17C428.03,152.22 427,157.27 425.91,162.31C424.82,167.36 423.69,172.41 422.52,177.46C421.35,182.51 420.11,187.56 418.89,192.61C417.67,197.66 416.38,202.7 415.18,207.75C413.99,212.79 412.78,217.84 411.72,222.9C410.67,227.94 409.66,232.98 408.85,238.04C408.04,243.08 407.33,248.13 406.84,253.19C406.35,258.23 406.02,263.29 405.9,268.34C405.78,273.39 405.84,278.44 406.13,283.48C406.42,288.54 406.92,293.6 407.66,298.63C408.4,303.69 409.38,308.75 410.58,313.77C411.79,318.85 413.28,323.9 414.92,328.92C416.58,334 418.51,339.04 420.47,344.07C422.45,349.14 424.66,354.16 426.75,359.21C428.84,364.26 431.05,369.29 433.03,374.36C435,379.39 436.94,384.43 438.61,389.51C440.26,394.53 441.76,399.58 443.01,404.65C444.25,409.67 445.26,414.74 446.1,419.8Q446.93,424.83 448.02,434.94Z" style="vector-effect: non-scaling-stroke; stroke-width: 0.5px; stroke: rgb(0, 0, 0); stroke-opacity: 1; fill: rgb(70, 98, 215); fill-opacity: 1;"/><path class="box" d="M438.98,256.5H461.03M438.98,312.57H461.03V203.34H438.98ZM450,312.57V343.06M450,203.34V117.88" style="vector-effect: non-scaling-stroke; stroke-width: 0.5px; stroke: rgb(0, 0, 0); stroke-opacity: 1; fill: rgb(0, 0, 0); fill-opacity: 0.4;"/><path class="mean" d="M438.98,250.44H461.03" style="fill: none; vector-effect: non-scaling-stroke; stroke-width: 0.5px; stroke-dasharray: 1px, 0.5px; stroke: rgb(0, 0, 0); stroke-opacity: 1;"/></g><g class="trace violins" style="opacity: 1;"><path class="violin" d="M630.69,445.18Q631.03,441.13 631.26,439.11C631.49,437.09 631.77,435.07 632.07,433.05C632.37,431.03 632.72,429.01 633.05,426.99C633.38,424.97 633.75,422.95 634.04,420.92C634.33,418.9 634.61,416.88 634.79,414.86C634.96,412.84 635.08,410.82 635.09,408.8C635.1,406.78 635.02,404.75 634.87,402.73C634.72,400.71 634.45,398.69 634.18,396.67C633.91,394.65 633.56,392.63 633.26,390.61C632.95,388.59 632.61,386.57 632.35,384.54C632.09,382.52 631.86,380.5 631.71,378.48C631.56,376.46 631.47,374.44 631.47,372.42C631.47,370.4 631.54,368.37 631.71,366.35C631.88,364.33 632.14,362.3 632.47,360.29C632.8,358.26 633.22,356.24 633.71,354.23C634.21,352.2 634.78,350.17 635.44,348.16C636.11,346.13 636.85,344.1 637.71,342.1C638.59,340.06 639.55,338.03 640.66,336.04C641.8,333.99 643.08,331.95 644.49,329.97C645.95,327.91 647.6,325.9 649.31,323.91C651.08,321.85 653.04,319.86 654.97,317.85C656.92,315.81 659.01,313.82 660.94,311.78C662.83,309.78 664.77,307.79 666.43,305.72C668.01,303.75 669.55,301.74 670.71,299.66C671.81,297.69 672.74,295.65 673.3,293.59C673.84,291.61 674.11,289.55 674.1,287.53C674.09,285.51 673.74,283.46 673.21,281.47C672.66,279.42 671.8,277.38 670.82,275.4C669.8,273.34 668.51,271.33 667.17,269.34C665.79,267.29 664.19,265.29 662.65,263.28C661.09,261.25 659.4,259.25 657.85,257.21C656.33,255.2 654.77,253.21 653.43,251.15C652.13,249.16 650.91,247.15 649.9,245.09C648.92,243.1 648.1,241.07 647.41,239.02C646.74,237.02 646.24,234.99 645.8,232.96C645.36,230.95 645.07,228.92 644.78,226.9C644.49,224.88 644.29,222.85 644.08,220.83C643.87,218.81 643.72,216.79 643.54,214.77C643.37,212.75 643.22,210.73 643.03,208.71C642.84,206.69 642.66,204.66 642.39,202.64C642.12,200.62 641.81,198.59 641.42,196.58C641.02,194.55 640.55,192.53 640.02,190.52C639.49,188.49 638.86,186.47 638.23,184.45C637.6,182.42 636.9,180.41 636.25,178.39C635.6,176.37 634.93,174.36 634.35,172.33C633.77,170.31 633.23,168.29 632.77,166.26C632.31,164.25 631.92,162.23 631.6,160.2Q631.28,158.19 630.83,154.14L629.17,154.14Q628.72,158.19 628.4,160.2C628.08,162.23 627.69,164.25 627.23,166.26C626.77,168.29 626.23,170.31 625.65,172.33C625.07,174.36 624.4,176.37 623.75,178.39C623.1,180.41 622.4,182.42 621.77,184.45C621.14,186.47 620.51,188.49 619.98,190.52C619.45,192.53 618.98,194.55 618.58,196.58C618.19,198.59 617.88,200.62 617.61,202.64C617.34,204.66 617.16,206.69 616.97,208.71C616.78,210.73 616.63,212.75 616.46,214.77C616.28,216.79 616.13,218.81 615.92,220.83C615.71,222.85 615.51,224.88 615.22,226.9C614.93,228.92 614.64,230.95 614.2,232.96C613.76,234.99 613.26,237.02 612.59,239.02C611.9,241.07 611.08,243.1 610.1,245.09C609.09,247.15 607.87,249.16 606.57,251.15C605.23,253.21 603.67,255.2 602.15,257.21C600.6,259.25 598.91,261.25 597.35,263.28C595.81,265.29 594.21,267.29 592.83,269.34C591.49,271.33 590.2,273.34 589.18,275.4C588.2,277.38 587.34,279.42 586.79,281.47C586.26,283.46 585.91,285.51 585.9,287.53C585.89,289.55 586.16,291.61 586.7,293.59C587.26,295.65 588.19,297.69 589.29,299.66C590.45,301.74 591.99,303.75 593.57,305.72C595.23,307.79 597.17,309.78 599.06,311.78C600.99,313.82 603.08,315.81 605.03,317.85C606.96,319.86 608.92,321.85 610.69,323.91C612.4,325.9 614.05,327.91 615.51,329.97C616.92,331.95 618.2,333.99 619.34,336.04C620.45,338.03 621.41,340.06 622.29,342.1C623.15,344.1 623.89,346.13 624.56,348.16C625.22,350.17 625.79,352.2 626.29,354.23C626.78,356.24 627.2,358.26 627.53,360.29C627.86,362.3 628.12,364.33 628.29,366.35C628.46,368.37 628.53,370.4 628.53,372.42C628.53,374.44 628.44,376.46 628.29,378.48C628.14,380.5 627.91,382.52 627.65,384.54C627.39,386.57 627.05,388.59 626.74,390.61C626.44,392.63 626.09,394.65 625.82,396.67C625.55,398.69 625.28,400.71 625.13,402.73C624.98,404.75 624.9,406.78 624.91,408.8C624.92,410.82 625.04,412.84 625.21,414.86C625.39,416.88 625.67,418.9 625.96,420.92C626.25,422.95 626.62,424.97 626.95,426.99C627.28,429.01 627.63,431.03 627.93,433.05C628.23,435.07 628.51,437.09 628.74,439.11Q628.97,441.13 629.31,445.18Z" style="vector-effect: non-scaling-stroke; stroke-width: 0.5px; stroke: rgb(0, 0, 0); stroke-opacity: 1; fill: rgb(250, 186, 57); fill-opacity: 1;"/><path class="box" d="M618.98,280.42H641.03M618.98,302.58H641.03V260.79H618.98ZM630,302.58V335.57M630,260.79V203.34" style="vector-effect: non-scaling-stroke; stroke-width: 0.5px; stroke: rgb(0, 0, 0); stroke-opacity: 1; fill: rgb(0, 0, 0); fill-opacity: 0.4;"/><path class="mean" d="M618.98,279.88H641.03" style="fill: none; vector-effect: non-scaling-stroke; stroke-width: 0.5px; stroke-dasharray: 1px, 0.5px; stroke: rgb(0, 0, 0); stroke-opacity: 1;"/></g><g class="trace violins" style="opacity: 1;"><path class="violin" d="M810.53,473.99Q810.82,466.71 811.04,463.07C811.26,459.43 811.52,455.79 811.86,452.16C812.21,448.52 812.61,444.87 813.11,441.24C813.61,437.6 814.18,433.96 814.87,430.33C815.56,426.68 816.34,423.03 817.25,419.41C818.17,415.76 819.19,412.12 820.36,408.5C821.54,404.84 822.86,401.2 824.29,397.59C825.74,393.93 827.34,390.29 829.03,386.67C830.74,383.01 832.61,379.39 834.47,375.76C836.35,372.11 838.35,368.49 840.25,364.84C842.14,361.21 844.11,357.6 845.82,353.93C847.5,350.32 849.18,346.7 850.45,343.02C851.69,339.42 852.78,335.77 853.39,332.1C853.99,328.49 854.25,324.82 854.1,321.19C853.95,317.54 853.31,313.88 852.47,310.27C851.62,306.6 850.29,302.97 848.99,299.36C847.67,295.7 846.03,292.08 844.6,288.44C843.17,284.81 841.64,281.19 840.4,277.53C839.18,273.92 838.08,270.28 837.22,266.62C836.37,263 835.78,259.35 835.28,255.7C834.78,252.07 834.55,248.43 834.23,244.79C833.91,241.15 833.72,237.51 833.35,233.87C832.98,230.23 832.57,226.59 831.99,222.96C831.4,219.31 830.67,215.67 829.84,212.05C829,208.4 827.98,204.76 826.96,201.13C825.94,197.48 824.79,193.86 823.71,190.22C822.63,186.58 821.5,182.95 820.47,179.3C819.45,175.67 818.46,172.04 817.57,168.39C816.69,164.76 815.87,161.12 815.16,157.47C814.45,153.84 813.84,150.2 813.31,146.56C812.78,142.93 812.35,139.29 811.98,135.65C811.61,132.01 811.33,128.37 811.09,124.73Q810.85,121.09 810.56,113.82L809.44,113.82Q809.15,121.09 808.91,124.73C808.67,128.37 808.39,132.01 808.02,135.65C807.65,139.29 807.22,142.93 806.69,146.56C806.16,150.2 805.55,153.84 804.84,157.47C804.13,161.12 803.31,164.76 802.43,168.39C801.54,172.04 800.55,175.67 799.53,179.3C798.5,182.95 797.37,186.58 796.29,190.22C795.21,193.86 794.06,197.48 793.04,201.13C792.02,204.76 791,208.4 790.16,212.05C789.33,215.67 788.6,219.31 788.01,222.96C787.43,226.59 787.02,230.23 786.65,233.87C786.28,237.51 786.09,241.15 785.77,244.79C785.45,248.43 785.22,252.07 784.72,255.7C784.22,259.35 783.63,263 782.78,266.62C781.92,270.28 780.82,273.92 779.6,277.53C778.36,281.19 776.83,284.81 775.4,288.44C773.97,292.08 772.33,295.7 771.01,299.36C769.71,302.97 768.38,306.6 767.53,310.27C766.69,313.88 766.05,317.54 765.9,321.19C765.75,324.82 766.01,328.49 766.61,332.1C767.22,335.77 768.31,339.42 769.55,343.02C770.82,346.7 772.5,350.32 774.18,353.93C775.89,357.6 777.86,361.21 779.75,364.84C781.65,368.49 783.65,372.11 785.53,375.76C787.39,379.39 789.26,383.01 790.97,386.67C792.66,390.29 794.26,393.93 795.71,397.59C797.14,401.2 798.46,404.84 799.64,408.5C800.81,412.12 801.83,415.76 802.75,419.41C803.66,423.03 804.44,426.68 805.13,430.33C805.82,433.96 806.39,437.6 806.89,441.24C807.39,444.87 807.79,448.52 808.14,452.16C808.48,455.79 808.74,459.43 808.96,463.07Q809.18,466.71 809.47,473.99Z" style="vector-effect: non-scaling-stroke; stroke-width: 0.5px; stroke: rgb(0, 0, 0); stroke-opacity: 1; fill: rgb(54, 169, 249); fill-opacity: 1;"/><path class="box" d="M798.98,311.82H821.03M798.98,339.31H821.03V243.41H798.98ZM810,339.31V408.36M810,243.41V179.44" style="vector-effect: non-scaling-stroke; stroke-width: 0.5px; stroke: rgb(0, 0, 0); stroke-opacity: 1; fill: rgb(0, 0, 0); fill-opacity: 0.4;"/><path class="mean" d="M798.98,300.21H821.03" style="fill: none; vector-effect: non-scaling-stroke; stroke-width: 0.5px; stroke-dasharray: 1px, 0.5px; stroke: rgb(0, 0, 0); stroke-opacity: 1;"/></g><g class="trace violins" style="opacity: 1;"><path class="violin" d="M990.47,535.1Q990.71,527.11 990.89,523.11C991.07,519.11 991.28,515.12 991.54,511.12C991.8,507.12 992.1,503.12 992.44,499.12C992.78,495.12 993.17,491.12 993.59,487.13C994.01,483.13 994.47,479.13 994.95,475.14C995.44,471.14 995.96,467.14 996.5,463.15C997.05,459.15 997.62,455.15 998.22,451.16C998.82,447.16 999.44,443.16 1000.09,439.17C1000.74,435.17 1001.42,431.17 1002.11,427.18C1002.81,423.18 1003.53,419.19 1004.26,415.19C1005,411.19 1005.74,407.19 1006.52,403.19C1007.3,399.19 1008.09,395.19 1008.93,391.2C1009.78,387.2 1010.64,383.2 1011.59,379.21C1012.55,375.21 1013.56,371.21 1014.67,367.22C1015.78,363.21 1016.99,359.22 1018.26,355.23C1019.54,351.22 1020.94,347.23 1022.31,343.24C1023.68,339.24 1025.16,335.26 1026.48,331.25C1027.79,327.26 1029.14,323.28 1030.22,319.26C1031.28,315.28 1032.26,311.28 1032.91,307.26C1033.55,303.28 1033.97,299.27 1034.1,295.27C1034.23,291.28 1034.06,287.27 1033.69,283.28C1033.32,279.27 1032.66,275.27 1031.89,271.29C1031.12,267.28 1030.12,263.28 1029.06,259.3C1028,255.29 1026.79,251.29 1025.53,247.31C1024.27,243.3 1022.9,239.31 1021.5,235.32C1020.09,231.31 1018.6,227.31 1017.09,223.32C1015.58,219.32 1014,215.33 1012.45,211.33C1010.9,207.33 1009.3,203.35 1007.81,199.34C1006.33,195.35 1004.84,191.36 1003.52,187.35C1002.21,183.37 1000.98,179.38 999.93,175.36C998.89,171.38 998,167.38 997.27,163.37C996.54,159.39 996,155.38 995.55,151.38C995.11,147.39 994.84,143.39 994.6,139.39C994.36,135.39 994.24,131.39 994.09,127.39C993.94,123.39 993.85,119.4 993.71,115.4C993.57,111.4 993.43,107.41 993.26,103.41C993.08,99.41 992.87,95.42 992.66,91.42C992.45,87.42 992.2,83.43 991.98,79.43C991.76,75.43 991.54,71.44 991.34,67.44C991.15,63.44 990.96,59.45 990.81,55.45Q990.66,51.45 990.44,43.46L989.56,43.46Q989.34,51.45 989.19,55.45C989.04,59.45 988.85,63.44 988.66,67.44C988.46,71.44 988.24,75.43 988.02,79.43C987.8,83.43 987.55,87.42 987.34,91.42C987.13,95.42 986.92,99.41 986.74,103.41C986.57,107.41 986.43,111.4 986.29,115.4C986.15,119.4 986.06,123.39 985.91,127.39C985.76,131.39 985.64,135.39 985.4,139.39C985.16,143.39 984.89,147.39 984.45,151.38C984,155.38 983.46,159.39 982.73,163.37C982,167.38 981.11,171.38 980.07,175.36C979.02,179.38 977.79,183.37 976.48,187.35C975.16,191.36 973.67,195.35 972.19,199.34C970.7,203.35 969.1,207.33 967.55,211.33C966,215.33 964.42,219.32 962.91,223.32C961.4,227.31 959.91,231.31 958.5,235.32C957.1,239.31 955.73,243.3 954.47,247.31C953.21,251.29 952,255.29 950.94,259.3C949.88,263.28 948.88,267.28 948.11,271.29C947.34,275.27 946.68,279.27 946.31,283.28C945.94,287.27 945.77,291.28 945.9,295.27C946.03,299.27 946.45,303.28 947.09,307.26C947.74,311.28 948.72,315.28 949.78,319.26C950.86,323.28 952.21,327.26 953.52,331.25C954.84,335.26 956.32,339.24 957.69,343.24C959.06,347.23 960.46,351.22 961.74,355.23C963.01,359.22 964.22,363.21 965.33,367.22C966.44,371.21 967.45,375.21 968.41,379.21C969.36,383.2 970.22,387.2 971.07,391.2C971.91,395.19 972.7,399.19 973.48,403.19C974.26,407.19 975,411.19 975.74,415.19C976.47,419.19 977.19,423.18 977.89,427.18C978.58,431.17 979.26,435.17 979.91,439.17C980.56,443.16 981.18,447.16 981.78,451.16C982.38,455.15 982.95,459.15 983.5,463.15C984.04,467.14 984.56,471.14 985.05,475.14C985.53,479.13 985.99,483.13 986.41,487.13C986.83,491.12 987.22,495.12 987.56,499.12C987.9,503.12 988.2,507.12 988.46,511.12C988.72,515.12 988.93,519.11 989.11,523.11Q989.29,527.11 989.53,535.1Z" style="vector-effect: non-scaling-stroke; stroke-width: 0.5px; stroke: rgb(0, 0, 0); stroke-opacity: 1; fill: rgb(246, 106, 25); fill-opacity: 1;"/><path class="box" d="M978.97,296.83H1001.03M978.97,339.66H1001.03V249.69H978.97ZM990,339.66V462.56M990,249.69V116" style="vector-effect: non-scaling-stroke; stroke-width: 0.5px; stroke: rgb(0, 0, 0); stroke-opacity: 1; fill: rgb(0, 0, 0); fill-opacity: 0.4;"/><path class="mean" d="M978.97,298.65H1001.03" style="fill: none; vector-effect: non-scaling-stroke; stroke-width: 0.5px; stroke-dasharray: 1px, 0.5px; stroke: rgb(0, 0, 0); stroke-opacity: 1;"/></g><g class="trace violins" style="opacity: 1;"><path class="violin" d="M1170.62,517.36Q1170.95,509.75 1171.19,505.95C1171.44,502.14 1171.73,498.33 1172.09,494.53C1172.45,490.72 1172.87,486.92 1173.34,483.12C1173.81,479.31 1174.35,475.51 1174.9,471.71C1175.45,467.9 1176.06,464.1 1176.65,460.3C1177.24,456.5 1177.86,452.69 1178.46,448.89C1179.06,445.09 1179.65,441.28 1180.27,437.48C1180.89,433.67 1181.5,429.86 1182.2,426.06C1182.91,422.25 1183.62,418.44 1184.5,414.65C1185.39,410.83 1186.36,407.02 1187.52,403.24C1188.69,399.41 1190.03,395.61 1191.49,391.83C1192.97,388 1194.67,384.21 1196.38,380.42C1198.1,376.6 1200.01,372.81 1201.77,369C1203.53,365.2 1205.39,361.42 1206.95,357.59C1208.49,353.82 1209.98,350.02 1211.08,346.18C1212.16,342.41 1213.02,338.59 1213.52,334.77C1214.02,330.99 1214.15,327.16 1214.1,323.36C1214.05,319.56 1213.62,315.75 1213.21,311.95C1212.79,308.14 1212.14,304.34 1211.61,300.53C1211.08,296.73 1210.5,292.93 1210.05,289.12C1209.6,285.32 1209.25,281.51 1208.9,277.71C1208.55,273.91 1208.33,270.1 1207.96,266.3C1207.59,262.49 1207.27,258.68 1206.7,254.89C1206.13,251.07 1205.44,247.25 1204.54,243.47C1203.63,239.64 1202.49,235.84 1201.24,232.06C1199.98,228.23 1198.48,224.44 1196.99,220.65C1195.49,216.83 1193.82,213.04 1192.25,209.24C1190.68,205.44 1189.05,201.65 1187.56,197.83C1186.08,194.04 1184.62,190.24 1183.31,186.42C1182.01,182.63 1180.81,178.82 1179.73,175C1178.66,171.21 1177.7,167.4 1176.84,163.59C1175.99,159.8 1175.25,155.99 1174.6,152.18C1173.95,148.38 1173.41,144.58 1172.94,140.77C1172.47,136.97 1172.09,133.17 1171.76,129.36C1171.43,125.56 1171.19,121.75 1170.98,117.94Q1170.77,114.14 1170.5,106.53L1169.5,106.53Q1169.23,114.14 1169.02,117.94C1168.81,121.75 1168.57,125.56 1168.24,129.36C1167.91,133.17 1167.53,136.97 1167.06,140.77C1166.59,144.58 1166.05,148.38 1165.4,152.18C1164.75,155.99 1164.01,159.8 1163.16,163.59C1162.3,167.4 1161.34,171.21 1160.27,175C1159.19,178.82 1157.99,182.63 1156.69,186.42C1155.38,190.24 1153.92,194.04 1152.44,197.83C1150.95,201.65 1149.32,205.44 1147.75,209.24C1146.18,213.04 1144.51,216.83 1143.01,220.65C1141.52,224.44 1140.02,228.23 1138.76,232.06C1137.51,235.84 1136.37,239.64 1135.46,243.47C1134.56,247.25 1133.87,251.07 1133.3,254.89C1132.73,258.68 1132.41,262.49 1132.04,266.3C1131.67,270.1 1131.45,273.91 1131.1,277.71C1130.75,281.51 1130.4,285.32 1129.95,289.12C1129.5,292.93 1128.92,296.73 1128.39,300.53C1127.86,304.34 1127.21,308.14 1126.79,311.95C1126.38,315.75 1125.95,319.56 1125.9,323.36C1125.85,327.16 1125.98,330.99 1126.48,334.77C1126.98,338.59 1127.84,342.41 1128.92,346.18C1130.02,350.02 1131.51,353.82 1133.05,357.59C1134.61,361.42 1136.47,365.2 1138.23,369C1139.99,372.81 1141.9,376.6 1143.62,380.42C1145.33,384.21 1147.03,388 1148.51,391.83C1149.97,395.61 1151.31,399.41 1152.48,403.24C1153.64,407.02 1154.61,410.83 1155.5,414.65C1156.38,418.44 1157.09,422.25 1157.8,426.06C1158.5,429.86 1159.11,433.67 1159.73,437.48C1160.35,441.28 1160.94,445.09 1161.54,448.89C1162.14,452.69 1162.76,456.5 1163.35,460.3C1163.94,464.1 1164.55,467.9 1165.1,471.71C1165.65,475.51 1166.19,479.31 1166.66,483.12C1167.13,486.92 1167.55,490.72 1167.91,494.53C1168.27,498.33 1168.56,502.14 1168.81,505.95Q1169.05,509.75 1169.38,517.36Z" style="vector-effect: non-scaling-stroke; stroke-width: 0.5px; stroke: rgb(0, 0, 0); stroke-opacity: 1; fill: rgb(26, 228, 182); fill-opacity: 1;"/><path class="box" d="M1158.97,321.55H1181.03M1158.97,347.08H1181.03V248.62H1158.97ZM1170,347.08V447.2M1170,248.62V176.69" style="vector-effect: non-scaling-stroke; stroke-width: 0.5px; stroke: rgb(0, 0, 0); stroke-opacity: 1; fill: rgb(0, 0, 0); fill-opacity: 0.4;"/><path class="mean" d="M1158.97,306.43H1181.03" style="fill: none; vector-effect: non-scaling-stroke; stroke-width: 0.5px; stroke-dasharray: 1px, 0.5px; stroke: rgb(0, 0, 0); stroke-opacity: 1;"/></g><g class="trace violins" style="opacity: 1;"><path class="violin" d="M1350.44,572.87Q1350.68,564.65 1350.86,560.54C1351.05,556.43 1351.26,552.32 1351.55,548.21C1351.84,544.1 1352.18,539.99 1352.59,535.88C1353,531.76 1353.48,527.65 1354.02,523.54C1354.56,519.42 1355.18,515.32 1355.85,511.21C1356.52,507.1 1357.27,502.99 1358.05,498.88C1358.83,494.77 1359.69,490.66 1360.55,486.55C1361.42,482.43 1362.34,478.32 1363.24,474.21C1364.15,470.1 1365.07,465.99 1365.98,461.88C1366.88,457.77 1367.79,453.66 1368.67,449.55C1369.55,445.44 1370.4,441.33 1371.25,437.22C1372.1,433.11 1372.91,428.99 1373.76,424.88C1374.61,420.77 1375.45,416.66 1376.34,412.55C1377.23,408.44 1378.14,404.32 1379.11,400.22C1380.08,396.1 1381.1,392 1382.16,387.89C1383.22,383.77 1384.36,379.66 1385.45,375.55C1386.54,371.44 1387.69,367.34 1388.72,363.22C1389.74,359.12 1390.78,355.02 1391.59,350.89C1392.39,346.79 1393.13,342.67 1393.55,338.55C1393.97,334.45 1394.2,330.33 1394.1,326.22C1394,322.11 1393.6,317.98 1392.94,313.89C1392.27,309.76 1391.26,305.64 1390.11,301.56C1388.95,297.42 1387.46,293.32 1386,289.22C1384.53,285.09 1382.85,281 1381.3,276.89C1379.75,272.78 1378.15,268.69 1376.71,264.56C1375.28,260.47 1373.92,256.36 1372.71,252.23C1371.51,248.13 1370.44,244.01 1369.45,239.89C1368.47,235.79 1367.63,231.68 1366.8,227.56C1365.97,223.46 1365.24,219.34 1364.48,215.23C1363.72,211.12 1363,207.01 1362.25,202.9C1361.5,198.79 1360.75,194.67 1360,190.56C1359.25,186.45 1358.48,182.34 1357.75,178.23C1357.02,174.12 1356.29,170.01 1355.63,165.9C1354.97,161.79 1354.34,157.69 1353.79,153.57C1353.24,149.46 1352.76,145.35 1352.35,141.23C1351.94,137.12 1351.61,133.01 1351.33,128.9Q1351.05,124.79 1350.68,116.57L1349.32,116.57Q1348.95,124.79 1348.67,128.9C1348.39,133.01 1348.06,137.12 1347.65,141.23C1347.24,145.35 1346.76,149.46 1346.21,153.57C1345.66,157.69 1345.03,161.79 1344.37,165.9C1343.71,170.01 1342.98,174.12 1342.25,178.23C1341.52,182.34 1340.75,186.45 1340,190.56C1339.25,194.67 1338.5,198.79 1337.75,202.9C1337,207.01 1336.28,211.12 1335.52,215.23C1334.76,219.34 1334.03,223.46 1333.2,227.56C1332.37,231.68 1331.53,235.79 1330.55,239.89C1329.56,244.01 1328.49,248.13 1327.29,252.23C1326.08,256.36 1324.72,260.47 1323.29,264.56C1321.85,268.69 1320.25,272.78 1318.7,276.89C1317.15,281 1315.47,285.09 1314,289.22C1312.54,293.32 1311.05,297.42 1309.89,301.56C1308.74,305.64 1307.73,309.76 1307.06,313.89C1306.4,317.98 1306,322.11 1305.9,326.22C1305.8,330.33 1306.03,334.45 1306.45,338.55C1306.87,342.67 1307.61,346.79 1308.41,350.89C1309.22,355.02 1310.26,359.12 1311.28,363.22C1312.31,367.34 1313.46,371.44 1314.55,375.55C1315.64,379.66 1316.78,383.77 1317.84,387.89C1318.9,392 1319.92,396.1 1320.89,400.22C1321.86,404.32 1322.77,408.44 1323.66,412.55C1324.55,416.66 1325.39,420.77 1326.24,424.88C1327.09,428.99 1327.9,433.11 1328.75,437.22C1329.6,441.33 1330.45,445.44 1331.33,449.55C1332.21,453.66 1333.12,457.77 1334.02,461.88C1334.93,465.99 1335.85,470.1 1336.76,474.21C1337.66,478.32 1338.58,482.43 1339.45,486.55C1340.31,490.66 1341.17,494.77 1341.95,498.88C1342.73,502.99 1343.48,507.1 1344.15,511.21C1344.82,515.32 1345.44,519.42 1345.98,523.54C1346.52,527.65 1347,531.76 1347.41,535.88C1347.82,539.99 1348.16,544.1 1348.45,548.21C1348.74,552.32 1348.95,556.43 1349.14,560.54Q1349.32,564.65 1349.56,572.87Z" style="vector-effect: non-scaling-stroke; stroke-width: 0.5px; stroke: rgb(0, 0, 0); stroke-opacity: 1; fill: rgb(202, 43, 4); fill-opacity: 1;"/><path class="box" d="M1338.98,335.57H1361.03M1338.98,394.65H1361.03V298.19H1338.98ZM1350,394.65V498.49M1350,298.19V190.95" style="vector-effect: non-scaling-stroke; stroke-width: 0.5px; stroke: rgb(0, 0, 0); stroke-opacity: 1; fill: rgb(0, 0, 0); fill-opacity: 0.4;"/><path class="mean" d="M1338.98,339.32H1361.03" style="fill: none; vector-effect: non-scaling-stroke; stroke-width: 0.5px; stroke-dasharray: 1px, 0.5px; stroke: rgb(0, 0, 0); stroke-opacity: 1;"/></g><g class="trace violins" style="opacity: 1;"><path class="violin" d="M1530.46,557.63Q1530.72,551.07 1530.93,547.8C1531.14,544.52 1531.39,541.24 1531.73,537.97C1532.07,534.69 1532.47,531.42 1532.96,528.15C1533.45,524.87 1534.02,521.59 1534.65,518.32C1535.28,515.04 1536.02,511.76 1536.75,508.49C1537.49,505.21 1538.3,501.94 1539.06,498.67C1539.83,495.39 1540.62,492.12 1541.34,488.84C1542.06,485.57 1542.75,482.3 1543.36,479.02C1543.97,475.75 1544.5,472.47 1545,469.19C1545.49,465.92 1545.9,462.64 1546.33,459.36C1546.76,456.09 1547.14,452.81 1547.56,449.54C1547.98,446.26 1548.4,442.98 1548.86,439.71C1549.33,436.43 1549.82,433.15 1550.35,429.88C1550.88,426.6 1551.43,423.33 1552.03,420.06C1552.63,416.78 1553.24,413.5 1553.93,410.23C1554.62,406.95 1555.33,403.67 1556.16,400.41C1557,397.12 1557.9,393.84 1558.93,390.58C1559.97,387.29 1561.16,384.01 1562.39,380.75C1563.63,377.46 1565.06,374.21 1566.37,370.93C1567.68,367.66 1569.12,364.4 1570.26,361.1C1571.38,357.85 1572.52,354.58 1573.16,351.27C1573.79,348.03 1574.21,344.72 1574.1,341.45C1573.99,338.17 1573.43,334.84 1572.51,331.62C1571.56,328.29 1570.04,325.02 1568.42,321.8C1566.74,318.46 1564.6,315.22 1562.53,311.97C1560.42,308.66 1558.04,305.43 1555.85,302.14C1553.67,298.88 1551.42,295.63 1549.43,292.32C1547.48,289.08 1545.61,285.81 1544,282.49C1542.43,279.25 1541.04,275.97 1539.86,272.66C1538.7,269.42 1537.77,266.13 1536.97,262.84C1536.17,259.58 1535.58,256.29 1535.05,253.01C1534.52,249.74 1534.14,246.47 1533.77,243.19C1533.4,239.92 1533.11,236.64 1532.83,233.36C1532.55,230.08 1532.31,226.81 1532.08,223.53C1531.85,220.26 1531.64,216.98 1531.45,213.71C1531.26,210.43 1531.09,207.16 1530.94,203.88C1530.79,200.6 1530.66,197.33 1530.55,194.05Q1530.44,190.78 1530.3,184.23L1529.7,184.23Q1529.56,190.78 1529.45,194.05C1529.34,197.33 1529.21,200.6 1529.06,203.88C1528.91,207.16 1528.74,210.43 1528.55,213.71C1528.36,216.98 1528.15,220.26 1527.92,223.53C1527.69,226.81 1527.45,230.08 1527.17,233.36C1526.89,236.64 1526.6,239.92 1526.23,243.19C1525.86,246.47 1525.48,249.74 1524.95,253.01C1524.42,256.29 1523.83,259.58 1523.03,262.84C1522.23,266.13 1521.3,269.42 1520.14,272.66C1518.96,275.97 1517.57,279.25 1516,282.49C1514.39,285.81 1512.52,289.08 1510.57,292.32C1508.58,295.63 1506.33,298.88 1504.15,302.14C1501.96,305.43 1499.58,308.66 1497.47,311.97C1495.4,315.22 1493.26,318.46 1491.58,321.8C1489.96,325.02 1488.44,328.29 1487.49,331.62C1486.57,334.84 1486.01,338.17 1485.9,341.45C1485.79,344.72 1486.21,348.03 1486.84,351.27C1487.48,354.58 1488.62,357.85 1489.74,361.1C1490.88,364.4 1492.32,367.66 1493.63,370.93C1494.94,374.21 1496.37,377.46 1497.61,380.75C1498.84,384.01 1500.03,387.29 1501.07,390.58C1502.1,393.84 1503,397.12 1503.84,400.41C1504.67,403.67 1505.38,406.95 1506.07,410.23C1506.76,413.5 1507.37,416.78 1507.97,420.06C1508.57,423.33 1509.12,426.6 1509.65,429.88C1510.18,433.15 1510.67,436.43 1511.14,439.71C1511.6,442.98 1512.02,446.26 1512.44,449.54C1512.86,452.81 1513.24,456.09 1513.67,459.36C1514.1,462.64 1514.51,465.92 1515,469.19C1515.5,472.47 1516.03,475.75 1516.64,479.02C1517.25,482.3 1517.94,485.57 1518.66,488.84C1519.38,492.12 1520.17,495.39 1520.94,498.67C1521.7,501.94 1522.51,505.21 1523.25,508.49C1523.98,511.76 1524.72,515.04 1525.35,518.32C1525.98,521.59 1526.55,524.87 1527.04,528.15C1527.53,531.42 1527.93,534.69 1528.27,537.97C1528.61,541.24 1528.86,544.52 1529.07,547.8Q1529.28,551.07 1529.54,557.63Z" style="vector-effect: non-scaling-stroke; stroke-width: 0.5px; stroke: rgb(0, 0, 0); stroke-opacity: 1; fill: rgb(113, 254, 95); fill-opacity: 1;"/><path class="box" d="M1518.98,355.05H1541.03M1518.98,414.33H1541.03V335.57H1518.98ZM1530,414.33V498.49M1530,335.57V243.36" style="vector-effect: non-scaling-stroke; stroke-width: 0.5px; stroke: rgb(0, 0, 0); stroke-opacity: 1; fill: rgb(0, 0, 0); fill-opacity: 0.4;"/><path class="mean" d="M1518.98,371.63H1541.03" style="fill: none; vector-effect: non-scaling-stroke; stroke-width: 0.5px; stroke-dasharray: 1px, 0.5px; stroke: rgb(0, 0, 0); stroke-opacity: 1;"/></g></g></g><g class="overplot"/><path class="xlines-above crisp" d="M0,0" style="fill: none;"/><path class="ylines-above crisp" d="M0,0" style="fill: none;"/><g class="overlines-above"/><g class="xaxislayer-above"><g class="xtick"><text text-anchor="middle" x="0" y="571.5" transform="translate(130,0)" style="font-family: Arial, Helvetica, sans-serif; font-size: 10.5px; fill: rgb(68, 68, 68); fill-opacity: 1; white-space: pre;">acute_row2_implant</text></g><g class="xtick"><text text-anchor="middle" x="0" y="571.5" transform="translate(310,0)" style="font-family: Arial, Helvetica, sans-serif; font-size: 10.5px; fill: rgb(68, 68, 68); fill-opacity: 1; white-space: pre;">acute_row2_d1</text></g><g class="xtick"><text text-anchor="middle" x="0" y="571.5" transform="translate(490,0)" style="font-family: Arial, Helvetica, sans-serif; font-size: 10.5px; fill: rgb(68, 68, 68); fill-opacity: 1; white-space: pre;">acute_row2_d2</text></g><g class="xtick"><text text-anchor="middle" x="0" y="571.5" transform="translate(670,0)" style="font-family: Arial, Helvetica, sans-serif; font-size: 10.5px; fill: rgb(68, 68, 68); fill-opacity: 1; white-space: pre;">acute_row2_d3</text></g><g class="xtick"><text text-anchor="middle" x="0" y="571.5" transform="translate(850,0)" style="font-family: Arial, Helvetica, sans-serif; font-size: 10.5px; fill: rgb(68, 68, 68); fill-opacity: 1; white-space: pre;">acute_row2_d4</text></g><g class="xtick"><text text-anchor="middle" x="0" y="571.5" transform="translate(1030,0)" style="font-family: Arial, Helvetica, sans-serif; font-size: 10.5px; fill: rgb(68, 68, 68); fill-opacity: 1; white-space: pre;">acute_row2_d5</text></g><g class="xtick"><text text-anchor="middle" x="0" y="571.5" transform="translate(1210,0)" style="font-family: Arial, Helvetica, sans-serif; font-size: 10.5px; fill: rgb(68, 68, 68); fill-opacity: 1; white-space: pre;">acute_row2_d6</text></g><g class="xtick"><text text-anchor="middle" x="0" y="571.5" transform="translate(1390,0)" style="font-family: Arial, Helvetica, sans-serif; font-size: 10.5px; fill: rgb(68, 68, 68); fill-opacity: 1; white-space: pre;">acute_row2_d7</text></g><g class="xtick"><text text-anchor="middle" x="0" y="571.5" transform="translate(1570,0)" style="font-family: Arial, Helvetica, sans-serif; font-size: 10.5px; fill: rgb(68, 68, 68); fill-opacity: 1; white-space: pre;">acute_row2_d8</text></g></g><g class="yaxislayer-above"><g class="ytick"><text text-anchor="end" x="39" y="3.675" transform="translate(0,560)" style="font-family: Arial, Helvetica, sans-serif; font-size: 10.5px; fill: rgb(68, 68, 68); fill-opacity: 1; white-space: pre;">0</text></g><g class="ytick"><text text-anchor="end" x="39" y="3.675" transform="translate(0,504.18)" style="font-family: Arial, Helvetica, sans-serif; font-size: 10.5px; fill: rgb(68, 68, 68); fill-opacity: 1; white-space: pre;">0.5</text></g><g class="ytick"><text text-anchor="end" x="39" y="3.675" transform="translate(0,448.36)" style="font-family: Arial, Helvetica, sans-serif; font-size: 10.5px; fill: rgb(68, 68, 68); fill-opacity: 1; white-space: pre;">1</text></g><g class="ytick"><text text-anchor="end" x="39" y="3.675" transform="translate(0,392.55)" style="font-family: Arial, Helvetica, sans-serif; font-size: 10.5px; fill: rgb(68, 68, 68); fill-opacity: 1; white-space: pre;">1.5</text></g><g class="ytick"><text text-anchor="end" x="39" y="3.675" transform="translate(0,336.73)" style="font-family: Arial, Helvetica, sans-serif; font-size: 10.5px; fill: rgb(68, 68, 68); fill-opacity: 1; white-space: pre;">2</text></g><g class="ytick"><text text-anchor="end" x="39" y="3.675" transform="translate(0,280.90999999999997)" style="font-family: Arial, Helvetica, sans-serif; font-size: 10.5px; fill: rgb(68, 68, 68); fill-opacity: 1; white-space: pre;">2.5</text></g><g class="ytick"><text text-anchor="end" x="39" y="3.675" transform="translate(0,225.09)" style="font-family: Arial, Helvetica, sans-serif; font-size: 10.5px; fill: rgb(68, 68, 68); fill-opacity: 1; white-space: pre;">3</text></g><g class="ytick"><text text-anchor="end" x="39" y="3.675" transform="translate(0,169.27)" style="font-family: Arial, Helvetica, sans-serif; font-size: 10.5px; fill: rgb(68, 68, 68); fill-opacity: 1; white-space: pre;">3.5</text></g><g class="ytick"><text text-anchor="end" x="39" y="3.675" transform="translate(0,113.46)" style="font-family: Arial, Helvetica, sans-serif; font-size: 10.5px; fill: rgb(68, 68, 68); fill-opacity: 1; white-space: pre;">4</text></g><g class="ytick"><text text-anchor="end" x="39" y="3.675" transform="translate(0,57.64)" style="font-family: Arial, Helvetica, sans-serif; font-size: 10.5px; fill: rgb(68, 68, 68); fill-opacity: 1; white-space: pre;">4.5</text></g></g><g class="overaxes-above"/></g></g><g class="polarlayer"/><g class="ternarylayer"/><g class="geolayer"/><g class="funnelarealayer"/><g class="pielayer"/><g class="treemaplayer"/><g class="sunburstlayer"/><g class="glimages"/><defs id="topdefs-930bb0"><g class="clips"/></defs><g class="layer-above"><g class="imagelayer"/><g class="shapelayer"><path data-index="0" fill-rule="evenodd" d="M85,287.53999999999996L175,287.53999999999996" clip-path="url('#clip930bb0y')" style="opacity: 1; stroke: rgb(49, 19, 62); stroke-opacity: 1; fill: rgb(0, 0, 0); fill-opacity: 0; stroke-width: 2px;"/></g></g><g class="infolayer"><g class="g-gtitle"><text class="gtitle" x="850" y="20" text-anchor="middle" dy="0em" style="font-family: Arial, Helvetica, sans-serif; font-size: 14px; fill: rgb(68, 68, 68); opacity: 1; font-weight: normal; white-space: pre;">Log2 Avg Exp - MAPK Cascade (acute_row2)</text></g><g class="g-xtitle"/><g class="g-ytitle"/></g></svg>