<svg class="main-svg" xmlns="http://www.w3.org/2000/svg" xmlns:xlink="http://www.w3.org/1999/xlink" width="1700" height="600" style="" viewBox="0 0 1700 600"><rect x="0" y="0" width="1700" height="600" style="fill: rgb(255, 255, 255); fill-opacity: 1;"/><defs id="defs-f96b77"><g class="clips"><clipPath id="clipf96b77xyplot" class="plotclip"><rect width="1620" height="520"/></clipPath><clipPath class="axesclip" id="clipf96b77x"><rect x="40" y="0" width="1620" height="600"/></clipPath><clipPath class="axesclip" id="clipf96b77y"><rect x="0" y="40" width="1700" height="520"/></clipPath><clipPath class="axesclip" id="clipf96b77xy"><rect x="40" y="40" width="1620" height="520"/></clipPath></g><g class="gradients"/></defs><g class="bglayer"/><g class="layer-below"><g class="imagelayer"/><g class="shapelayer"/></g><g class="cartesianlayer"><g class="subplot xy"><g class="layer-subplot"><g class="shapelayer"/><g class="imagelayer"/></g><g class="gridlayer"><g class="x"/><g class="y"><path class="ygrid crisp" transform="translate(0,497.95)" d="M40,0h1620" style="stroke: rgb(238, 238, 238); stroke-opacity: 1; stroke-width: 1px;"/><path class="ygrid crisp" transform="translate(0,435.89)" d="M40,0h1620" style="stroke: rgb(238, 238, 238); stroke-opacity: 1; stroke-width: 1px;"/><path class="ygrid crisp" transform="translate(0,373.84)" d="M40,0h1620" style="stroke: rgb(238, 238, 238); stroke-opacity: 1; stroke-width: 1px;"/><path class="ygrid crisp" transform="translate(0,311.78)" d="M40,0h1620" style="stroke: rgb(238, 238, 238); stroke-opacity: 1; stroke-width: 1px;"/><path class="ygrid crisp" transform="translate(0,249.73)" d="M40,0h1620" style="stroke: rgb(238, 238, 238); stroke-opacity: 1; stroke-width: 1px;"/><path class="ygrid crisp" transform="translate(0,187.68)" d="M40,0h1620" style="stroke: rgb(238, 238, 238); stroke-opacity: 1; stroke-width: 1px;"/><path class="ygrid crisp" transform="translate(0,125.62)" d="M40,0h1620" style="stroke: rgb(238, 238, 238); stroke-opacity: 1; stroke-width: 1px;"/><path class="ygrid crisp" transform="translate(0,63.57)" d="M40,0h1620" style="stroke: rgb(238, 238, 238); stroke-opacity: 1; stroke-width: 1px;"/></g></g><g class="zerolinelayer"><path class="yzl zl crisp" transform="translate(0,560)" d="M40,0h1620" style="stroke: rgb(68, 68, 68); stroke-opacity: 1; stroke-width: 1px;"/></g><path class="xlines-below"/><path class="ylines-below"/><g class="overlines-below"/><g class="xaxislayer-below"/><g class="yaxislayer-below"/><g class="overaxes-below"/><g class="plot" transform="translate(40, 40)" clip-path="url('#clipf96b77xyplot')"><g class="violinlayer mlayer"><g class="trace violins" style="opacity: 0;"><path class="violin" d="M134.1,375.84L45.9,375.84Z" style="vector-effect: non-scaling-stroke; stroke-width: 0.5px; stroke: rgb(0, 0, 0); stroke-opacity: 1; fill: rgb(49, 19, 62); fill-opacity: 1;"/><path class="box" d="M78.97,375.84H101.03M78.97,375.84H101.03V375.84H78.97ZM90,375.84V375.84M90,375.84V375.84" style="vector-effect: non-scaling-stroke; stroke-width: 0.5px; stroke: rgb(0, 0, 0); stroke-opacity: 1; fill: rgb(0, 0, 0); fill-opacity: 0.4;"/><path class="mean" d="M78.97,375.84H101.03" style="fill: none; vector-effect: non-scaling-stroke; stroke-width: 0.5px; stroke-dasharray: 1px, 0.5px; stroke: rgb(0, 0, 0); stroke-opacity: 1;"/></g><g class="trace violins" style="opacity: 1;"><path class="violin" d="M272.9,455.11Q274.51,450.76 275.64,448.66C276.83,446.45 278.28,444.3 279.92,442.21C281.66,439.99 283.72,437.86 285.85,435.76C288.09,433.55 290.61,431.44 293.06,429.31C295.55,427.14 298.24,425.05 300.67,422.86C303.03,420.74 305.48,418.65 307.45,416.41C309.27,414.34 311.06,412.21 312.18,409.96C313.21,407.9 313.95,405.68 314.1,403.51C314.25,401.38 313.79,399.16 313.11,397.06C312.39,394.85 311.07,392.71 309.76,390.61C308.39,388.4 306.64,386.29 305.01,384.15C303.36,381.98 301.54,379.87 299.9,377.7C298.29,375.57 296.67,373.44 295.25,371.25C293.88,369.13 292.62,366.98 291.52,364.8C290.45,362.68 289.56,360.52 288.71,358.35C287.88,356.22 287.2,354.05 286.48,351.9C285.76,349.75 285.12,347.59 284.39,345.45C283.66,343.29 282.91,341.14 282.1,339C281.29,336.84 280.4,334.7 279.54,332.55C278.68,330.4 277.77,328.26 276.94,326.1C276.12,323.95 275.3,321.8 274.6,319.64C273.91,317.5 273.28,315.35 272.76,313.19Q272.25,311.05 271.49,306.74L268.51,306.74Q267.75,311.05 267.24,313.19C266.72,315.35 266.09,317.5 265.4,319.64C264.7,321.8 263.88,323.95 263.06,326.1C262.23,328.26 261.32,330.4 260.46,332.55C259.6,334.7 258.71,336.84 257.9,339C257.09,341.14 256.34,343.29 255.61,345.45C254.88,347.59 254.24,349.75 253.52,351.9C252.8,354.05 252.12,356.22 251.29,358.35C250.44,360.52 249.55,362.68 248.48,364.8C247.38,366.98 246.12,369.13 244.75,371.25C243.33,373.44 241.71,375.57 240.1,377.7C238.46,379.87 236.64,381.98 234.99,384.15C233.36,386.29 231.61,388.4 230.24,390.61C228.93,392.71 227.61,394.85 226.89,397.06C226.21,399.16 225.75,401.38 225.9,403.51C226.05,405.68 226.79,407.9 227.82,409.96C228.94,412.21 230.73,414.34 232.55,416.41C234.52,418.65 236.97,420.74 239.33,422.86C241.76,425.05 244.45,427.14 246.94,429.31C249.39,431.44 251.91,433.55 254.15,435.76C256.28,437.86 258.34,439.99 260.08,442.21C261.72,444.3 263.17,446.45 264.36,448.66Q265.49,450.76 267.1,455.11Z" style="vector-effect: non-scaling-stroke; stroke-width: 0.5px; stroke: rgb(0, 0, 0); stroke-opacity: 1; fill: rgb(200, 239, 52); fill-opacity: 1;"/><path class="box" d="M258.98,398.39H281.02M258.98,413.21H281.02V377.41H258.98ZM270,413.21V416.1M270,377.41V345.75" style="vector-effect: non-scaling-stroke; stroke-width: 0.5px; stroke: rgb(0, 0, 0); stroke-opacity: 1; fill: rgb(0, 0, 0); fill-opacity: 0.4;"/><path class="mean" d="M258.98,391.54H281.02" style="fill: none; vector-effect: non-scaling-stroke; stroke-width: 0.5px; stroke-dasharray: 1px, 0.5px; stroke: rgb(0, 0, 0); stroke-opacity: 1;"/></g><g class="trace violins" style="opacity: 1;"><path class="violin" d="M451.07,614.98Q451.64,604.67 452.07,599.52C452.5,594.36 453.01,589.21 453.64,584.06C454.28,578.9 455.04,573.75 455.88,568.6C456.72,563.44 457.7,558.29 458.69,553.14C459.68,547.98 460.8,542.83 461.82,537.67C462.84,532.52 463.92,527.37 464.82,522.21C465.71,517.07 466.56,511.91 467.19,506.75C467.82,501.61 468.29,496.45 468.6,491.29C468.91,486.14 468.98,480.98 469.07,475.83C469.16,470.68 469.03,465.52 469.13,460.37C469.23,455.22 469.25,450.06 469.66,444.91C470.07,439.75 470.64,434.57 471.58,429.44C472.53,424.26 473.85,419.1 475.37,413.98C476.91,408.79 478.88,403.66 480.76,398.52C482.65,393.35 484.85,388.24 486.66,383.06C488.45,377.93 490.32,372.8 491.56,367.6C492.78,362.49 493.75,357.31 494.1,352.14C494.45,347 494.25,341.81 493.67,336.68C493.09,331.5 491.88,326.34 490.59,321.22C489.28,316.03 487.51,310.89 485.85,305.75C484.18,300.58 482.29,295.45 480.58,290.29C478.87,285.14 477.16,280 475.58,274.83C474.01,269.69 472.53,264.53 471.11,259.37C469.69,254.23 468.37,249.07 467.07,243.91C465.77,238.76 464.53,233.61 463.32,228.45C462.11,223.3 460.93,218.15 459.83,212.99C458.74,207.84 457.68,202.69 456.75,197.53C455.83,192.38 454.99,187.22 454.27,182.06C453.56,176.91 452.96,171.76 452.46,166.6Q451.96,161.45 451.29,151.14L448.71,151.14Q448.04,161.45 447.54,166.6C447.04,171.76 446.44,176.91 445.73,182.06C445.01,187.22 444.17,192.38 443.25,197.53C442.32,202.69 441.26,207.84 440.17,212.99C439.07,218.15 437.89,223.3 436.68,228.45C435.47,233.61 434.23,238.76 432.93,243.91C431.63,249.07 430.31,254.23 428.89,259.37C427.47,264.53 425.99,269.69 424.42,274.83C422.84,280 421.13,285.14 419.42,290.29C417.71,295.45 415.82,300.58 414.15,305.75C412.49,310.89 410.72,316.03 409.41,321.22C408.12,326.34 406.91,331.5 406.33,336.68C405.75,341.81 405.55,347 405.9,352.14C406.25,357.31 407.22,362.49 408.44,367.6C409.68,372.8 411.55,377.93 413.34,383.06C415.15,388.24 417.35,393.35 419.24,398.52C421.12,403.66 423.09,408.79 424.63,413.98C426.15,419.1 427.47,424.26 428.42,429.44C429.36,434.57 429.93,439.75 430.34,444.91C430.75,450.06 430.77,455.22 430.87,460.37C430.97,465.52 430.84,470.68 430.93,475.83C431.02,480.98 431.09,486.14 431.4,491.29C431.71,496.45 432.18,501.61 432.81,506.75C433.44,511.91 434.29,517.07 435.18,522.21C436.08,527.37 437.16,532.52 438.18,537.67C439.2,542.83 440.32,547.98 441.31,553.14C442.3,558.29 443.28,563.44 444.12,568.6C444.96,573.75 445.72,578.9 446.36,584.06C446.99,589.21 447.5,594.36 447.93,599.52Q448.36,604.67 448.93,614.98Z" style="vector-effect: non-scaling-stroke; stroke-width: 0.5px; stroke: rgb(0, 0, 0); stroke-opacity: 1; fill: rgb(70, 98, 215); fill-opacity: 1;"/><path class="box" d="M438.98,352.12H461.03M438.98,426.55H461.03V327.11H438.98ZM450,426.55V520M450,327.11V246.12" style="vector-effect: non-scaling-stroke; stroke-width: 0.5px; stroke: rgb(0, 0, 0); stroke-opacity: 1; fill: rgb(0, 0, 0); fill-opacity: 0.4;"/><path class="mean" d="M438.98,369.85H461.03" style="fill: none; vector-effect: non-scaling-stroke; stroke-width: 0.5px; stroke-dasharray: 1px, 0.5px; stroke: rgb(0, 0, 0); stroke-opacity: 1;"/></g><g class="trace violins" style="opacity: 1;"><path class="violin" d="M631.96,595.42Q632.96,587.04 633.66,582.86C634.36,578.66 635.21,574.47 636.15,570.3C637.1,566.1 638.22,561.92 639.35,557.74C640.48,553.55 641.75,549.37 642.93,545.18C644.11,540.99 645.34,536.82 646.44,532.62C647.54,528.44 648.57,524.26 649.52,520.06C650.46,515.88 651.28,511.69 652.12,507.5C652.96,503.32 653.68,499.12 654.56,494.94C655.44,490.75 656.33,486.55 657.4,482.38C658.47,478.18 659.69,473.99 660.99,469.82C662.3,465.62 663.82,461.45 665.24,457.26C666.66,453.07 668.23,448.91 669.49,444.7C670.73,440.54 671.98,436.36 672.75,432.14C673.51,427.98 674.05,423.77 674.1,419.58C674.15,415.4 673.77,411.18 673.08,407.02C672.38,402.8 671.18,398.61 669.89,394.46C668.57,390.24 666.87,386.07 665.23,381.9C663.57,377.7 661.71,373.53 659.99,369.34C658.28,365.16 656.51,360.98 654.93,356.78C653.36,352.61 651.86,348.43 650.52,344.22C649.19,340.05 647.99,335.86 646.92,331.66C645.85,327.49 644.93,323.3 644.1,319.1C643.27,314.92 642.56,310.73 641.92,306.54C641.28,302.36 640.73,298.17 640.24,293.98C639.75,289.8 639.34,285.62 638.97,281.43C638.6,277.25 638.3,273.06 638.02,268.87C637.75,264.68 637.54,260.5 637.32,256.31C637.1,252.12 636.92,247.94 636.7,243.75C636.48,239.56 636.27,235.38 636.01,231.19C635.75,227 635.45,222.82 635.13,218.63C634.81,214.44 634.45,210.26 634.09,206.07C633.73,201.88 633.34,197.7 632.99,193.51C632.64,189.32 632.29,185.14 631.99,180.95C631.69,176.76 631.42,172.58 631.19,168.39Q630.97,164.2 630.64,155.83L629.36,155.83Q629.03,164.2 628.81,168.39C628.58,172.58 628.31,176.76 628.01,180.95C627.71,185.14 627.36,189.32 627.01,193.51C626.66,197.7 626.27,201.88 625.91,206.07C625.55,210.26 625.19,214.44 624.87,218.63C624.55,222.82 624.25,227 623.99,231.19C623.73,235.38 623.52,239.56 623.3,243.75C623.08,247.94 622.9,252.12 622.68,256.31C622.46,260.5 622.25,264.68 621.98,268.87C621.7,273.06 621.4,277.25 621.03,281.43C620.66,285.62 620.25,289.8 619.76,293.98C619.27,298.17 618.72,302.36 618.08,306.54C617.44,310.73 616.73,314.92 615.9,319.1C615.07,323.3 614.15,327.49 613.08,331.66C612.01,335.86 610.81,340.05 609.48,344.22C608.14,348.43 606.64,352.61 605.07,356.78C603.49,360.98 601.72,365.16 600.01,369.34C598.29,373.53 596.43,377.7 594.77,381.9C593.13,386.07 591.43,390.24 590.11,394.46C588.82,398.61 587.62,402.8 586.92,407.02C586.23,411.18 585.85,415.4 585.9,419.58C585.95,423.77 586.49,427.98 587.25,432.14C588.02,436.36 589.27,440.54 590.51,444.7C591.77,448.91 593.34,453.07 594.76,457.26C596.18,461.45 597.7,465.62 599.01,469.82C600.31,473.99 601.53,478.18 602.6,482.38C603.67,486.55 604.56,490.75 605.44,494.94C606.32,499.12 607.04,503.32 607.88,507.5C608.72,511.69 609.54,515.88 610.48,520.06C611.43,524.26 612.46,528.44 613.56,532.62C614.66,536.82 615.89,540.99 617.07,545.18C618.25,549.37 619.52,553.55 620.65,557.74C621.78,561.92 622.9,566.1 623.85,570.3C624.79,574.47 625.64,578.66 626.34,582.86Q627.04,587.04 628.04,595.42Z" style="vector-effect: non-scaling-stroke; stroke-width: 0.5px; stroke: rgb(0, 0, 0); stroke-opacity: 1; fill: rgb(250, 186, 57); fill-opacity: 1;"/><path class="box" d="M618.98,421.63H641.03M618.98,462.75H641.03V377.12H618.98ZM630,462.75V520M630,377.12V294.32" style="vector-effect: non-scaling-stroke; stroke-width: 0.5px; stroke: rgb(0, 0, 0); stroke-opacity: 1; fill: rgb(0, 0, 0); fill-opacity: 0.4;"/><path class="mean" d="M618.98,413.62H641.03" style="fill: none; vector-effect: non-scaling-stroke; stroke-width: 0.5px; stroke-dasharray: 1px, 0.5px; stroke: rgb(0, 0, 0); stroke-opacity: 1;"/></g><g class="trace violins" style="opacity: 1;"><path class="violin" d="M812.67,587.75Q814.01,580.27 814.92,576.56C815.84,572.81 816.95,569.07 818.16,565.36C819.38,561.61 820.82,557.88 822.23,554.16C823.64,550.42 825.21,546.71 826.62,542.97C828.02,539.25 829.45,535.52 830.67,531.77C831.88,528.06 832.97,524.32 833.91,520.57C834.84,516.86 835.56,513.12 836.31,509.38C837.05,505.65 837.63,501.91 838.38,498.18C839.13,494.44 839.88,490.7 840.82,486.98C841.77,483.23 842.89,479.51 844.06,475.79C845.24,472.04 846.65,468.33 847.89,464.59C849.13,460.86 850.5,457.15 851.5,453.39C852.48,449.68 853.41,445.95 853.84,442.2C854.27,438.49 854.38,434.72 854.1,431C853.81,427.25 853.06,423.5 852.11,419.8C851.14,416.03 849.72,412.32 848.31,408.61C846.88,404.85 845.15,401.14 843.58,397.41C842.01,393.68 840.31,389.97 838.87,386.21C837.45,382.5 836.07,378.78 834.97,375.02C833.89,371.31 832.99,367.57 832.31,363.82C831.63,360.1 831.21,356.36 830.87,352.62C830.53,348.9 830.43,345.16 830.26,341.43C830.09,337.7 830.06,333.96 829.85,330.23C829.64,326.49 829.42,322.75 828.99,319.03C828.56,315.29 827.98,311.56 827.26,307.84C826.54,304.09 825.62,300.36 824.66,296.64C823.7,292.9 822.56,289.17 821.5,285.44C820.44,281.71 819.29,277.99 818.28,274.25C817.27,270.53 816.29,266.79 815.45,263.05C814.62,259.33 813.89,255.6 813.28,251.86C812.67,248.14 812.19,244.4 811.79,240.66Q811.39,236.93 810.89,229.46L809.11,229.46Q808.61,236.93 808.21,240.66C807.81,244.4 807.33,248.14 806.72,251.86C806.11,255.6 805.38,259.33 804.55,263.05C803.71,266.79 802.73,270.53 801.72,274.25C800.71,277.99 799.56,281.71 798.5,285.44C797.44,289.17 796.3,292.9 795.34,296.64C794.38,300.36 793.46,304.09 792.74,307.84C792.02,311.56 791.44,315.29 791.01,319.03C790.58,322.75 790.36,326.49 790.15,330.23C789.94,333.96 789.91,337.7 789.74,341.43C789.57,345.16 789.47,348.9 789.13,352.62C788.79,356.36 788.37,360.1 787.69,363.82C787.01,367.57 786.11,371.31 785.03,375.02C783.93,378.78 782.55,382.5 781.13,386.21C779.69,389.97 777.99,393.68 776.42,397.41C774.85,401.14 773.12,404.85 771.69,408.61C770.28,412.32 768.86,416.03 767.89,419.8C766.94,423.5 766.19,427.25 765.9,431C765.62,434.72 765.73,438.49 766.16,442.2C766.59,445.95 767.52,449.68 768.5,453.39C769.5,457.15 770.87,460.86 772.11,464.59C773.35,468.33 774.76,472.04 775.94,475.79C777.11,479.51 778.23,483.23 779.18,486.98C780.12,490.7 780.87,494.44 781.62,498.18C782.37,501.91 782.95,505.65 783.69,509.38C784.44,513.12 785.16,516.86 786.09,520.57C787.03,524.32 788.12,528.06 789.33,531.77C790.55,535.52 791.98,539.25 793.38,542.97C794.79,546.71 796.36,550.42 797.77,554.16C799.18,557.88 800.62,561.61 801.84,565.36C803.05,569.07 804.16,572.81 805.08,576.56Q805.99,580.27 807.33,587.75Z" style="vector-effect: non-scaling-stroke; stroke-width: 0.5px; stroke: rgb(0, 0, 0); stroke-opacity: 1; fill: rgb(54, 169, 249); fill-opacity: 1;"/><path class="box" d="M798.98,431.36H821.03M798.98,468.51H821.03V387.03H798.98ZM810,468.51V520M810,387.03V297.21" style="vector-effect: non-scaling-stroke; stroke-width: 0.5px; stroke: rgb(0, 0, 0); stroke-opacity: 1; fill: rgb(0, 0, 0); fill-opacity: 0.4;"/><path class="mean" d="M798.98,426.31H821.03" style="fill: none; vector-effect: non-scaling-stroke; stroke-width: 0.5px; stroke-dasharray: 1px, 0.5px; stroke: rgb(0, 0, 0); stroke-opacity: 1;"/></g><g class="trace violins" style="opacity: 1;"><path class="violin" d="M993.25,612.59Q994.89,602.54 996.04,597.55C997.2,592.51 998.6,587.49 1000.2,582.51C1001.82,577.46 1003.72,572.46 1005.7,567.47C1007.7,562.43 1009.96,557.44 1012.14,552.43C1014.32,547.41 1016.67,542.42 1018.79,537.39C1020.89,532.4 1023.02,527.4 1024.82,522.35C1026.6,517.37 1028.24,512.35 1029.55,507.3C1030.84,502.32 1031.89,497.29 1032.65,492.26C1033.4,487.27 1033.87,482.24 1034.1,477.22C1034.33,472.21 1034.28,467.19 1034.03,462.18C1033.78,457.16 1033.27,452.14 1032.59,447.14C1031.91,442.11 1030.99,437.1 1029.95,432.1C1028.91,427.07 1027.64,422.06 1026.34,417.06C1025.03,412.03 1023.55,407.03 1022.1,402.02C1020.65,397 1019.1,392 1017.64,386.98C1016.18,381.97 1014.71,376.96 1013.35,371.94C1012,366.94 1010.7,361.92 1009.51,356.9C1008.33,351.9 1007.23,346.88 1006.23,341.86C1005.23,336.86 1004.34,331.84 1003.49,326.82C1002.64,321.81 1001.89,316.79 1001.14,311.77C1000.4,306.76 999.7,301.75 999.02,296.73C998.34,291.72 997.69,286.7 997.06,281.69C996.43,276.68 995.82,271.67 995.25,266.65C994.69,261.64 994.14,256.63 993.67,251.61C993.2,246.6 992.78,241.59 992.43,236.57C992.09,231.56 991.81,226.54 991.6,221.53C991.39,216.52 991.26,211.5 991.19,206.49C991.12,201.48 991.13,196.46 991.17,191.45C991.21,186.44 991.33,181.42 991.45,176.41C991.57,171.4 991.75,166.38 991.9,161.37C992.05,156.36 992.23,151.34 992.37,146.33C992.51,141.32 992.65,136.3 992.72,131.29C992.79,126.27 992.83,121.26 992.81,116.24C992.79,111.23 992.72,106.21 992.62,101.2C992.52,96.19 992.36,91.17 992.2,86.16C992.04,81.15 991.84,76.13 991.66,71.12C991.48,66.11 991.29,61.09 991.13,56.08C990.97,51.07 990.82,46.05 990.69,41.04Q990.57,36.03 990.38,26L989.62,26Q989.43,36.03 989.31,41.04C989.18,46.05 989.03,51.07 988.87,56.08C988.71,61.09 988.52,66.11 988.34,71.12C988.16,76.13 987.96,81.15 987.8,86.16C987.64,91.17 987.48,96.19 987.38,101.2C987.28,106.21 987.21,111.23 987.19,116.24C987.17,121.26 987.21,126.27 987.28,131.29C987.35,136.3 987.49,141.32 987.63,146.33C987.77,151.34 987.95,156.36 988.1,161.37C988.25,166.38 988.43,171.4 988.55,176.41C988.67,181.42 988.79,186.44 988.83,191.45C988.87,196.46 988.88,201.48 988.81,206.49C988.74,211.5 988.61,216.52 988.4,221.53C988.19,226.54 987.91,231.56 987.57,236.57C987.22,241.59 986.8,246.6 986.33,251.61C985.86,256.63 985.31,261.64 984.75,266.65C984.18,271.67 983.57,276.68 982.94,281.69C982.31,286.7 981.66,291.72 980.98,296.73C980.3,301.75 979.6,306.76 978.86,311.77C978.11,316.79 977.36,321.81 976.51,326.82C975.66,331.84 974.77,336.86 973.77,341.86C972.77,346.88 971.67,351.9 970.49,356.9C969.3,361.92 968,366.94 966.65,371.94C965.29,376.96 963.82,381.97 962.36,386.98C960.9,392 959.35,397 957.9,402.02C956.45,407.03 954.97,412.03 953.66,417.06C952.36,422.06 951.09,427.07 950.05,432.1C949.01,437.1 948.09,442.11 947.41,447.14C946.73,452.14 946.22,457.16 945.97,462.18C945.72,467.19 945.67,472.21 945.9,477.22C946.13,482.24 946.6,487.27 947.35,492.26C948.11,497.29 949.16,502.32 950.45,507.3C951.76,512.35 953.4,517.37 955.18,522.35C956.98,527.4 959.11,532.4 961.21,537.39C963.33,542.42 965.68,547.41 967.86,552.43C970.04,557.44 972.3,562.43 974.3,567.47C976.28,572.46 978.18,577.46 979.8,582.51C981.4,587.49 982.8,592.51 983.96,597.55Q985.11,602.54 986.75,612.59Z" style="vector-effect: non-scaling-stroke; stroke-width: 0.5px; stroke: rgb(0, 0, 0); stroke-opacity: 1; fill: rgb(246, 106, 25); fill-opacity: 1;"/><path class="box" d="M978.97,451.57H1001.03M978.97,520H1001.03V405.16H978.97ZM990,520V520M990,405.16V295.87" style="vector-effect: non-scaling-stroke; stroke-width: 0.5px; stroke: rgb(0, 0, 0); stroke-opacity: 1; fill: rgb(0, 0, 0); fill-opacity: 0.4;"/><path class="mean" d="M978.97,436.39H1001.03" style="fill: none; vector-effect: non-scaling-stroke; stroke-width: 0.5px; stroke-dasharray: 1px, 0.5px; stroke: rgb(0, 0, 0); stroke-opacity: 1;"/></g><g class="trace violins" style="opacity: 1;"><path class="violin" d="M1174.26,613.35Q1176.39,603.22 1177.85,598.21C1179.33,593.12 1181.12,588.07 1183.09,583.06C1185.1,577.97 1187.46,572.94 1189.82,567.92C1192.2,562.85 1194.87,557.83 1197.32,552.77C1199.76,547.73 1202.34,542.72 1204.48,537.63C1206.59,532.63 1208.61,527.58 1210.1,522.48C1211.56,517.48 1212.69,512.41 1213.36,507.34C1214.02,502.32 1214.21,497.24 1214.1,492.19C1213.99,487.14 1213.4,482.08 1212.71,477.05C1212.01,471.98 1210.96,466.94 1209.92,461.9C1208.87,456.84 1207.62,451.81 1206.45,446.76C1205.28,441.71 1204.03,436.67 1202.91,431.61C1201.8,426.57 1200.69,421.53 1199.75,416.47C1198.82,411.43 1197.98,406.38 1197.3,401.32C1196.62,396.28 1196.1,391.23 1195.67,386.18C1195.24,381.14 1194.99,376.08 1194.71,371.03C1194.43,365.98 1194.29,360.94 1194.01,355.89C1193.73,350.84 1193.47,345.78 1193.05,340.74C1192.63,335.69 1192.11,330.64 1191.48,325.6C1190.84,320.55 1190.06,315.5 1189.24,310.46C1188.42,305.41 1187.47,300.36 1186.58,295.31C1185.69,290.26 1184.74,285.22 1183.88,280.17C1183.02,275.12 1182.18,270.07 1181.41,265.02C1180.64,259.98 1179.94,254.93 1179.28,249.88C1178.62,244.83 1178.02,239.78 1177.43,234.73C1176.84,229.68 1176.29,224.64 1175.76,219.59C1175.23,214.54 1174.72,209.49 1174.24,204.44C1173.77,199.39 1173.31,194.35 1172.91,189.3C1172.51,184.25 1172.15,179.2 1171.84,174.15C1171.53,169.1 1171.28,164.06 1171.07,159.01Q1170.86,153.96 1170.56,143.86L1169.44,143.86Q1169.14,153.96 1168.93,159.01C1168.72,164.06 1168.47,169.1 1168.16,174.15C1167.85,179.2 1167.49,184.25 1167.09,189.3C1166.69,194.35 1166.23,199.39 1165.76,204.44C1165.28,209.49 1164.77,214.54 1164.24,219.59C1163.71,224.64 1163.16,229.68 1162.57,234.73C1161.98,239.78 1161.38,244.83 1160.72,249.88C1160.06,254.93 1159.36,259.98 1158.59,265.02C1157.82,270.07 1156.98,275.12 1156.12,280.17C1155.26,285.22 1154.31,290.26 1153.42,295.31C1152.53,300.36 1151.58,305.41 1150.76,310.46C1149.94,315.5 1149.16,320.55 1148.52,325.6C1147.89,330.64 1147.37,335.69 1146.95,340.74C1146.53,345.78 1146.27,350.84 1145.99,355.89C1145.71,360.94 1145.57,365.98 1145.29,371.03C1145.01,376.08 1144.76,381.14 1144.33,386.18C1143.9,391.23 1143.38,396.28 1142.7,401.32C1142.02,406.38 1141.18,411.43 1140.25,416.47C1139.31,421.53 1138.2,426.57 1137.09,431.61C1135.97,436.67 1134.72,441.71 1133.55,446.76C1132.38,451.81 1131.13,456.84 1130.08,461.9C1129.04,466.94 1127.99,471.98 1127.29,477.05C1126.6,482.08 1126.01,487.14 1125.9,492.19C1125.79,497.24 1125.98,502.32 1126.64,507.34C1127.31,512.41 1128.44,517.48 1129.9,522.48C1131.39,527.58 1133.41,532.63 1135.52,537.63C1137.66,542.72 1140.24,547.73 1142.68,552.77C1145.13,557.83 1147.8,562.85 1150.18,567.92C1152.54,572.94 1154.9,577.97 1156.91,583.06C1158.88,588.07 1160.67,593.12 1162.15,598.21Q1163.61,603.22 1165.74,613.35Z" style="vector-effect: non-scaling-stroke; stroke-width: 0.5px; stroke: rgb(0, 0, 0); stroke-opacity: 1; fill: rgb(26, 228, 182); fill-opacity: 1;"/><path class="box" d="M1158.97,464.73H1181.03M1158.97,520H1181.03V356.08H1158.97ZM1170,520V520M1170,356.08V237.21" style="vector-effect: non-scaling-stroke; stroke-width: 0.5px; stroke: rgb(0, 0, 0); stroke-opacity: 1; fill: rgb(0, 0, 0); fill-opacity: 0.4;"/><path class="mean" d="M1158.97,434.56H1181.03" style="fill: none; vector-effect: non-scaling-stroke; stroke-width: 0.5px; stroke-dasharray: 1px, 0.5px; stroke: rgb(0, 0, 0); stroke-opacity: 1;"/></g><g class="trace violins" style="opacity: 1;"><path class="violin" d="M1355.3,599.12Q1357.97,590.4 1359.74,586.13C1361.56,581.74 1363.77,577.42 1366.11,573.14C1368.51,568.75 1371.32,564.46 1374.01,560.15C1376.71,555.81 1379.72,551.54 1382.29,547.17C1384.81,542.89 1387.43,538.6 1389.32,534.18C1391.14,529.93 1392.73,525.57 1393.52,521.19C1394.29,516.91 1394.45,512.51 1394.1,508.2C1393.74,503.85 1392.61,499.49 1391.36,495.21C1390.09,490.83 1388.21,486.53 1386.49,482.22C1384.75,477.87 1382.73,473.58 1380.98,469.24C1379.24,464.93 1377.49,460.61 1376.01,456.25C1374.55,451.95 1373.25,447.61 1372.15,443.26C1371.06,438.95 1370.2,434.61 1369.43,430.27C1368.67,425.95 1368.09,421.61 1367.55,417.28C1367.01,412.96 1366.6,408.63 1366.18,404.3C1365.76,399.97 1365.41,395.64 1365.04,391.31C1364.67,386.98 1364.33,382.65 1363.97,378.32C1363.61,373.99 1363.25,369.66 1362.88,365.33C1362.51,361 1362.14,356.67 1361.75,352.34C1361.36,348.01 1360.97,343.69 1360.56,339.36C1360.15,335.03 1359.73,330.7 1359.31,326.37C1358.89,322.04 1358.47,317.71 1358.06,313.38C1357.65,309.05 1357.24,304.72 1356.85,300.39C1356.46,296.06 1356.09,291.73 1355.74,287.4C1355.4,283.07 1355.08,278.74 1354.78,274.41C1354.48,270.08 1354.21,265.76 1353.95,261.43C1353.69,257.1 1353.45,252.77 1353.22,248.44C1352.99,244.11 1352.77,239.78 1352.55,235.45C1352.33,231.12 1352.12,226.79 1351.92,222.46C1351.72,218.13 1351.53,213.8 1351.36,209.47C1351.19,205.14 1351.02,200.82 1350.88,196.49C1350.74,192.16 1350.62,187.83 1350.52,183.5Q1350.42,179.17 1350.28,170.51L1349.72,170.51Q1349.58,179.17 1349.48,183.5C1349.38,187.83 1349.26,192.16 1349.12,196.49C1348.98,200.82 1348.81,205.14 1348.64,209.47C1348.47,213.8 1348.28,218.13 1348.08,222.46C1347.88,226.79 1347.67,231.12 1347.45,235.45C1347.23,239.78 1347.01,244.11 1346.78,248.44C1346.55,252.77 1346.31,257.1 1346.05,261.43C1345.79,265.76 1345.52,270.08 1345.22,274.41C1344.92,278.74 1344.6,283.07 1344.26,287.4C1343.91,291.73 1343.54,296.06 1343.15,300.39C1342.76,304.72 1342.35,309.05 1341.94,313.38C1341.53,317.71 1341.11,322.04 1340.69,326.37C1340.27,330.7 1339.85,335.03 1339.44,339.36C1339.03,343.69 1338.64,348.01 1338.25,352.34C1337.86,356.67 1337.49,361 1337.12,365.33C1336.75,369.66 1336.39,373.99 1336.03,378.32C1335.67,382.65 1335.33,386.98 1334.96,391.31C1334.59,395.64 1334.24,399.97 1333.82,404.3C1333.4,408.63 1332.99,412.96 1332.45,417.28C1331.91,421.61 1331.33,425.95 1330.57,430.27C1329.8,434.61 1328.94,438.95 1327.85,443.26C1326.75,447.61 1325.45,451.95 1323.99,456.25C1322.51,460.61 1320.76,464.93 1319.02,469.24C1317.27,473.58 1315.25,477.87 1313.51,482.22C1311.79,486.53 1309.91,490.83 1308.64,495.21C1307.39,499.49 1306.26,503.85 1305.9,508.2C1305.55,512.51 1305.71,516.91 1306.48,521.19C1307.27,525.57 1308.86,529.93 1310.68,534.18C1312.57,538.6 1315.19,542.89 1317.71,547.17C1320.28,551.54 1323.29,555.81 1325.99,560.15C1328.68,564.46 1331.49,568.75 1333.89,573.14C1336.23,577.42 1338.44,581.74 1340.26,586.13Q1342.03,590.4 1344.7,599.12Z" style="vector-effect: non-scaling-stroke; stroke-width: 0.5px; stroke: rgb(0, 0, 0); stroke-opacity: 1; fill: rgb(202, 43, 4); fill-opacity: 1;"/><path class="box" d="M1338.98,519H1361.03M1338.98,520H1361.03V412.25H1338.98ZM1350,520V520M1350,412.25V306.69" style="vector-effect: non-scaling-stroke; stroke-width: 0.5px; stroke: rgb(0, 0, 0); stroke-opacity: 1; fill: rgb(0, 0, 0); fill-opacity: 0.4;"/><path class="mean" d="M1338.98,464.76H1361.03" style="fill: none; vector-effect: non-scaling-stroke; stroke-width: 0.5px; stroke-dasharray: 1px, 0.5px; stroke: rgb(0, 0, 0); stroke-opacity: 1;"/></g><g class="trace violins" style="opacity: 1;"><path class="violin" d="M1535.96,570.01Q1538.96,564.49 1540.86,561.84C1542.87,559.03 1545.3,556.33 1547.79,553.67C1550.39,550.88 1553.38,548.22 1556.19,545.5C1559,542.77 1562.09,540.14 1564.65,537.33C1567.07,534.68 1569.62,532.03 1571.22,529.16C1572.67,526.55 1573.9,523.74 1574.1,520.99C1574.29,518.29 1573.57,515.44 1572.48,512.82C1571.29,509.97 1569.06,507.29 1566.93,504.65C1564.66,501.83 1561.77,499.2 1559.16,496.48C1556.54,493.75 1553.68,491.1 1551.23,488.31C1548.88,485.64 1546.58,482.94 1544.73,480.13C1542.99,477.48 1541.49,474.74 1540.35,471.96C1539.26,469.29 1538.54,466.54 1537.97,463.79C1537.41,461.09 1537.17,458.35 1536.94,455.62C1536.71,452.9 1536.67,450.17 1536.58,447.45C1536.49,444.73 1536.45,442 1536.38,439.28C1536.31,436.56 1536.22,433.83 1536.14,431.11C1536.06,428.39 1535.97,425.66 1535.92,422.94C1535.87,420.22 1535.83,417.49 1535.85,414.77C1535.87,412.05 1535.94,409.32 1536.04,406.6C1536.14,403.88 1536.3,401.15 1536.44,398.43C1536.58,395.71 1536.76,392.98 1536.87,390.26C1536.98,387.54 1537.09,384.81 1537.1,382.09C1537.11,379.37 1537.07,376.64 1536.96,373.92C1536.85,371.2 1536.64,368.47 1536.42,365.75C1536.19,363.02 1535.89,360.3 1535.61,357.58C1535.33,354.86 1534.99,352.13 1534.72,349.41C1534.45,346.69 1534.19,343.97 1533.99,341.24C1533.79,338.52 1533.65,335.79 1533.54,333.07C1533.44,330.35 1533.39,327.62 1533.36,324.9C1533.33,322.18 1533.35,319.45 1533.34,316.73C1533.33,314.01 1533.35,311.28 1533.31,308.56C1533.27,305.84 1533.22,303.11 1533.12,300.39C1533.02,297.67 1532.89,294.94 1532.73,292.22C1532.57,289.5 1532.37,286.77 1532.18,284.05C1531.99,281.33 1531.76,278.6 1531.57,275.88C1531.38,273.16 1531.19,270.43 1531.03,267.71C1530.87,264.99 1530.73,262.26 1530.61,259.54Q1530.49,256.82 1530.32,251.37L1529.68,251.37Q1529.51,256.82 1529.39,259.54C1529.27,262.26 1529.13,264.99 1528.97,267.71C1528.81,270.43 1528.62,273.16 1528.43,275.88C1528.24,278.6 1528.01,281.33 1527.82,284.05C1527.63,286.77 1527.43,289.5 1527.27,292.22C1527.11,294.94 1526.98,297.67 1526.88,300.39C1526.78,303.11 1526.73,305.84 1526.69,308.56C1526.65,311.28 1526.67,314.01 1526.66,316.73C1526.65,319.45 1526.67,322.18 1526.64,324.9C1526.61,327.62 1526.56,330.35 1526.46,333.07C1526.35,335.79 1526.21,338.52 1526.01,341.24C1525.81,343.97 1525.55,346.69 1525.28,349.41C1525.01,352.13 1524.67,354.86 1524.39,357.58C1524.11,360.3 1523.81,363.02 1523.58,365.75C1523.36,368.47 1523.15,371.2 1523.04,373.92C1522.93,376.64 1522.89,379.37 1522.9,382.09C1522.91,384.81 1523.02,387.54 1523.13,390.26C1523.24,392.98 1523.42,395.71 1523.56,398.43C1523.7,401.15 1523.86,403.88 1523.96,406.6C1524.06,409.32 1524.13,412.05 1524.15,414.77C1524.17,417.49 1524.13,420.22 1524.08,422.94C1524.03,425.66 1523.94,428.39 1523.86,431.11C1523.78,433.83 1523.69,436.56 1523.62,439.28C1523.55,442 1523.51,444.73 1523.42,447.45C1523.33,450.17 1523.29,452.9 1523.06,455.62C1522.83,458.35 1522.59,461.09 1522.03,463.79C1521.46,466.54 1520.74,469.29 1519.65,471.96C1518.51,474.74 1517.01,477.48 1515.27,480.13C1513.42,482.94 1511.12,485.64 1508.77,488.31C1506.32,491.1 1503.46,493.75 1500.84,496.48C1498.23,499.2 1495.34,501.83 1493.07,504.65C1490.94,507.29 1488.71,509.97 1487.52,512.82C1486.43,515.44 1485.71,518.29 1485.9,520.99C1486.1,523.74 1487.33,526.55 1488.78,529.16C1490.38,532.03 1492.93,534.68 1495.35,537.33C1497.91,540.14 1501,542.77 1503.81,545.5C1506.62,548.22 1509.61,550.88 1512.21,553.67C1514.7,556.33 1517.13,559.03 1519.14,561.84Q1521.04,564.49 1524.04,570.01Z" style="vector-effect: non-scaling-stroke; stroke-width: 0.5px; stroke: rgb(0, 0, 0); stroke-opacity: 1; fill: rgb(113, 254, 95); fill-opacity: 1;"/><path class="box" d="M1518.98,519H1541.03M1518.98,520H1541.03V453.39H1518.98ZM1530,520V520M1530,453.39V357.08" style="vector-effect: non-scaling-stroke; stroke-width: 0.5px; stroke: rgb(0, 0, 0); stroke-opacity: 1; fill: rgb(0, 0, 0); fill-opacity: 0.4;"/><path class="mean" d="M1518.98,483.88H1541.03" style="fill: none; vector-effect: non-scaling-stroke; stroke-width: 0.5px; stroke-dasharray: 1px, 0.5px; stroke: rgb(0, 0, 0); stroke-opacity: 1;"/></g></g></g><g class="overplot"/><path class="xlines-above crisp" d="M0,0" style="fill: none;"/><path class="ylines-above crisp" d="M0,0" style="fill: none;"/><g class="overlines-above"/><g class="xaxislayer-above"><g class="xtick"><text text-anchor="middle" x="0" y="571.5" transform="translate(130,0)" style="font-family: Arial, Helvetica, sans-serif; font-size: 10.5px; fill: rgb(68, 68, 68); fill-opacity: 1; white-space: pre;">acute_row2_implant</text></g><g class="xtick"><text text-anchor="middle" x="0" y="571.5" transform="translate(310,0)" style="font-family: Arial, Helvetica, sans-serif; font-size: 10.5px; fill: rgb(68, 68, 68); fill-opacity: 1; white-space: pre;">acute_row2_d1</text></g><g class="xtick"><text text-anchor="middle" x="0" y="571.5" transform="translate(490,0)" style="font-family: Arial, Helvetica, sans-serif; font-size: 10.5px; fill: rgb(68, 68, 68); fill-opacity: 1; white-space: pre;">acute_row2_d2</text></g><g class="xtick"><text text-anchor="middle" x="0" y="571.5" transform="translate(670,0)" style="font-family: Arial, Helvetica, sans-serif; font-size: 10.5px; fill: rgb(68, 68, 68); fill-opacity: 1; white-space: pre;">acute_row2_d3</text></g><g class="xtick"><text text-anchor="middle" x="0" y="571.5" transform="translate(850,0)" style="font-family: Arial, Helvetica, sans-serif; font-size: 10.5px; fill: rgb(68, 68, 68); fill-opacity: 1; white-space: pre;">acute_row2_d4</text></g><g class="xtick"><text text-anchor="middle" x="0" y="571.5" transform="translate(1030,0)" style="font-family: Arial, Helvetica, sans-serif; font-size: 10.5px; fill: rgb(68, 68, 68); fill-opacity: 1; white-space: pre;">acute_row2_d5</text></g><g class="xtick"><text text-anchor="middle" x="0" y="571.5" transform="translate(1210,0)" style="font-family: Arial, Helvetica, sans-serif; font-size: 10.5px; fill: rgb(68, 68, 68); fill-opacity: 1; white-space: pre;">acute_row2_d6</text></g><g class="xtick"><text text-anchor="middle" x="0" y="571.5" transform="translate(1390,0)" style="font-family: Arial, Helvetica, sans-serif; font-size: 10.5px; fill: rgb(68, 68, 68); fill-opacity: 1; white-space: pre;">acute_row2_d7</text></g><g class="xtick"><text text-anchor="middle" x="0" y="571.5" transform="translate(1570,0)" style="font-family: Arial, Helvetica, sans-serif; font-size: 10.5px; fill: rgb(68, 68, 68); fill-opacity: 1; white-space: pre;">acute_row2_d8</text></g></g><g class="yaxislayer-above"><g class="ytick"><text text-anchor="end" x="39" y="3.675" transform="translate(0,560)" style="font-family: Arial, Helvetica, sans-serif; font-size: 10.5px; fill: rgb(68, 68, 68); fill-opacity: 1; white-space: pre;">0</text></g><g class="ytick"><text text-anchor="end" x="39" y="3.675" transform="translate(0,497.95)" style="font-family: Arial, Helvetica, sans-serif; font-size: 10.5px; fill: rgb(68, 68, 68); fill-opacity: 1; white-space: pre;">0.5</text></g><g class="ytick"><text text-anchor="end" x="39" y="3.675" transform="translate(0,435.89)" style="font-family: Arial, Helvetica, sans-serif; font-size: 10.5px; fill: rgb(68, 68, 68); fill-opacity: 1; white-space: pre;">1</text></g><g class="ytick"><text text-anchor="end" x="39" y="3.675" transform="translate(0,373.84)" style="font-family: Arial, Helvetica, sans-serif; font-size: 10.5px; fill: rgb(68, 68, 68); fill-opacity: 1; white-space: pre;">1.5</text></g><g class="ytick"><text text-anchor="end" x="39" y="3.675" transform="translate(0,311.78)" style="font-family: Arial, Helvetica, sans-serif; font-size: 10.5px; fill: rgb(68, 68, 68); fill-opacity: 1; white-space: pre;">2</text></g><g class="ytick"><text text-anchor="end" x="39" y="3.675" transform="translate(0,249.73)" style="font-family: Arial, Helvetica, sans-serif; font-size: 10.5px; fill: rgb(68, 68, 68); fill-opacity: 1; white-space: pre;">2.5</text></g><g class="ytick"><text text-anchor="end" x="39" y="3.675" transform="translate(0,187.68)" style="font-family: Arial, Helvetica, sans-serif; font-size: 10.5px; fill: rgb(68, 68, 68); fill-opacity: 1; white-space: pre;">3</text></g><g class="ytick"><text text-anchor="end" x="39" y="3.675" transform="translate(0,125.62)" style="font-family: Arial, Helvetica, sans-serif; font-size: 10.5px; fill: rgb(68, 68, 68); fill-opacity: 1; white-space: pre;">3.5</text></g><g class="ytick"><text text-anchor="end" x="39" y="3.675" transform="translate(0,63.57)" style="font-family: Arial, Helvetica, sans-serif; font-size: 10.5px; fill: rgb(68, 68, 68); fill-opacity: 1; white-space: pre;">4</text></g></g><g class="overaxes-above"/></g></g><g class="polarlayer"/><g class="ternarylayer"/><g class="geolayer"/><g class="funnelarealayer"/><g class="pielayer"/><g class="treemaplayer"/><g class="sunburstlayer"/><g class="glimages"/><defs id="topdefs-f96b77"><g class="clips"/></defs><g class="layer-above"><g class="imagelayer"/><g class="shapelayer"><path data-index="0" fill-rule="evenodd" d="M85,415.84L175,415.84" clip-path="url('#clipf96b77y')" style="opacity: 1; stroke: rgb(49, 19, 62); stroke-opacity: 1; fill: rgb(0, 0, 0); fill-opacity: 0; stroke-width: 2px;"/></g></g><g class="infolayer"><g class="g-gtitle"><text class="gtitle" x="850" y="20" text-anchor="middle" dy="0em" style="font-family: Arial, Helvetica, sans-serif; font-size: 14px; fill: rgb(68, 68, 68); opacity: 1; font-weight: normal; white-space: pre;">Log Normalized Exp - Cxcl2 (acute_row2)</text></g><g class="g-xtitle"/><g class="g-ytitle"/></g></svg>